M48
;Layer_Color=9474304
;FILE_FORMAT=2:5
INCH,TZ
;TYPE=PLATED
T1F00S00C0.01181
T2F00S00C0.02362
T4F00S00C0.03937
T5F00S00C0.04331
T6F00S00C0.04724
T7F00S00C0.06299
T8F00S00C0.12598
;TYPE=NON_PLATED
T9F00S00C0.12598
%
T01
X164949Y88189
X219685Y88878
X222835
X225984Y88976
Y85433
X222835
X219685
X229528
X229331Y89173
X224409Y100197
X220472Y100394
X231004Y114272
X225590Y148425
X262992Y151969
X271654
Y161417
X267717
X263779
X281496Y171260
X282283Y148819
X286221
X290158
X294094
X298031
X301969
X308957Y148031
X312894Y148228
X319685Y128740
X323622
X327559
X303248Y130118
X294587Y130610
X285728Y111417
X280118Y111614
X276279Y111516
X274803Y121653
X271850Y118898
X285728Y105217
X298327Y161713
X303150Y173228
X307087
X311024
X314961
X318898
Y191437
X314961
X311024
X307087
X303150
X299213
X226772Y224410
X221654Y219685
X200787Y118504
X191732Y112992
X194488Y100394
X197874Y97795
X165343Y96850
X164173Y110236
X155905Y103937
X155512Y118504
X146949Y119587
X146850Y116535
X143701
X140551
X137402
Y119685
X140551
X143701
X140551Y123228
X137402
X157874Y138484
X178740Y121653
X110236Y146850
X96260Y151279
X93504Y172835
X110236Y177165
X80315Y180709
Y183858
Y187008
Y190157
X77165
X65945Y195866
X57480Y175984
X63386Y163386
X75590Y120866
X79134
X82677
X85138Y113386
X57185Y222244
X54724Y178347
X51968Y181102
X51181Y174409
X37008Y153543
X29134Y148622
X26500Y131700
Y128500
X23228Y129921
Y126772
X20079
Y129921
X34400Y127100
X33858Y116142
X49508Y113386
X26378Y268110
Y271260
Y274410
X22441
Y271260
Y268110
X89764Y279921
X137402Y250394
X162008Y263779
X166437Y268012
X200394Y274410
X233957Y277067
X234449Y252461
X267717Y251673
X287402
X307087
X326772
X346457
X366142
T02
X16339Y130413
X16339Y146161
T04
X70866Y183858
Y223228
X35827Y209449
Y191732
X10236
Y209449
X44094Y267717
Y285433
X69685
Y267717
X108661
Y285433
X134252
Y267717
T05
X12205Y78031
Y88032
X110000Y53307
X120000
X130000
X140000
X150000
X160000
X170000
X180000
X200000
X210000
X220000
X230000
X240000
X250000
X362205Y54331
Y66142
Y77953
Y89764
X372205
X382205
Y77953
X372205
Y66142
X382205
Y54331
X372205
Y104724
X382205
Y116535
X372205
Y128347
X382205
Y140157
X372205
Y155118
X382205
Y166929
X372205
Y178740
X382205
Y190551
X372205
Y205512
X382205
Y217323
X372205
Y229134
X382205
Y240945
X372205
X362205
Y229134
Y217323
Y205512
Y190551
Y178740
Y166929
Y155118
Y140157
Y128347
Y116535
Y104724
X250000Y243307
X240000
X230000
X220000
X210000
X200000
X190000
X180000
X164000
X154000
X144000
X134000
X124000
X114000
X104000
X94000
X84000
X74000
X31890Y237795
X21890
X11890
Y227795
X21890
X31890
X12205Y98032
X267717Y273465
Y283465
X287402
Y273465
X307087
Y283465
X326772
Y273465
X346457
Y283465
X366142
Y273465
T06
X313386Y15354
Y35039
T07
X45276Y18504
X64961
X257480
X277165
T08
X55000Y53307
X260000Y73307
Y183307
T09
X60000Y243307
M30
