G04 Layer_Physical_Order=1*
G04 Layer_Color=255*
%FSLAX25Y25*%
%MOIN*%
G70*
G01*
G75*
%ADD10R,0.05906X0.02362*%
%ADD11R,0.03150X0.03150*%
%ADD12R,0.05118X0.02756*%
%ADD13R,0.03543X0.02362*%
%ADD14R,0.02362X0.03543*%
%ADD15R,0.03543X0.05118*%
%ADD16R,0.21654X0.08268*%
%ADD17R,0.02756X0.05118*%
%ADD18R,0.05118X0.03543*%
%ADD19R,0.03150X0.03150*%
%ADD20R,0.06299X0.11811*%
%ADD21R,0.08268X0.21654*%
%ADD22R,0.01772X0.04724*%
%ADD23R,0.04724X0.01772*%
%ADD24C,0.04000*%
%ADD25R,0.01378X0.03937*%
%ADD26R,0.07874X0.10630*%
%ADD27R,0.09843X0.04724*%
%ADD28R,0.09843X0.13780*%
%ADD29R,0.02362X0.04724*%
%ADD30R,0.08268X0.01575*%
%ADD31C,0.00787*%
%ADD32C,0.01575*%
%ADD33C,0.01500*%
%ADD34C,0.03150*%
%ADD35C,0.01969*%
%ADD36C,0.12598*%
%ADD37C,0.09843*%
%ADD38C,0.07480*%
%ADD39R,0.07480X0.07480*%
%ADD40R,0.06299X0.07874*%
%ADD41O,0.06299X0.07874*%
%ADD42C,0.05906*%
%ADD43R,0.06693X0.06693*%
%ADD44C,0.06693*%
%ADD45R,0.07874X0.06299*%
%ADD46O,0.07874X0.06299*%
%ADD47C,0.07087*%
%ADD48C,0.29134*%
G04:AMPARAMS|DCode=49|XSize=84.65mil|YSize=47.24mil|CornerRadius=14.17mil|HoleSize=0mil|Usage=FLASHONLY|Rotation=0.000|XOffset=0mil|YOffset=0mil|HoleType=Round|Shape=RoundedRectangle|*
%AMROUNDEDRECTD49*
21,1,0.08465,0.01890,0,0,0.0*
21,1,0.05630,0.04724,0,0,0.0*
1,1,0.02835,0.02815,-0.00945*
1,1,0.02835,-0.02815,-0.00945*
1,1,0.02835,-0.02815,0.00945*
1,1,0.02835,0.02815,0.00945*
%
%ADD49ROUNDEDRECTD49*%
%ADD50C,0.02559*%
G36*
X392304Y272207D02*
X371200D01*
Y277559D01*
X262992D01*
Y273723D01*
X262958Y273465D01*
X262992Y273207D01*
Y253150D01*
X242520D01*
Y259449D01*
X224410D01*
Y267717D01*
X241732D01*
Y266742D01*
X240157D01*
Y264370D01*
Y261998D01*
X241732D01*
Y261417D01*
X255906D01*
Y293878D01*
X392304D01*
Y272207D01*
D02*
G37*
G36*
X254331Y264173D02*
X250797D01*
Y266742D01*
X248819D01*
Y264370D01*
X246457D01*
Y266742D01*
X244479D01*
Y264173D01*
X242620D01*
Y270660D01*
X244551D01*
Y273031D01*
X245732D01*
Y274213D01*
X248891D01*
Y274803D01*
X249213D01*
Y283071D01*
X226772D01*
Y283071D01*
X226638D01*
Y280315D01*
X210297D01*
X210163Y280517D01*
X210162Y280517D01*
X209513Y281167D01*
X209122Y281428D01*
X208661Y281519D01*
X208661Y281519D01*
X200787D01*
X200327Y281428D01*
X199936Y281167D01*
X199936Y281167D01*
X196352Y277582D01*
X166142D01*
X166142Y277582D01*
X165681Y277490D01*
X165290Y277229D01*
X162296Y274236D01*
X131299D01*
X130838Y274144D01*
X130448Y273883D01*
X129596Y273031D01*
X129528D01*
Y272963D01*
X128282Y271718D01*
X128021Y271327D01*
X127930Y270866D01*
X127930Y270866D01*
Y264567D01*
X127930Y264567D01*
X128021Y264106D01*
X128282Y263715D01*
X129528Y262470D01*
Y259842D01*
X124144D01*
X124080Y259907D01*
X123689Y260168D01*
X123228Y260259D01*
X123228Y260259D01*
X96168D01*
X91527Y264901D01*
X91734Y265401D01*
X93247D01*
Y270519D01*
X86554D01*
Y269118D01*
X83661D01*
Y270079D01*
X76968D01*
Y265748D01*
X83661D01*
Y266709D01*
X86554D01*
Y265401D01*
X88696D01*
Y264825D01*
X88696Y264824D01*
X88787Y264364D01*
X89048Y263973D01*
X92717Y260304D01*
X92526Y259842D01*
X91409D01*
X87605Y263647D01*
X87214Y263908D01*
X86753Y264000D01*
X86753Y264000D01*
X73056D01*
X72949Y264314D01*
X72923Y264499D01*
X73640Y265433D01*
X74096Y266535D01*
X74252Y267717D01*
X74096Y268899D01*
X73649Y269977D01*
X76608Y272937D01*
X76968Y273228D01*
Y273228D01*
X76968Y273228D01*
X83661D01*
Y277559D01*
X76968D01*
Y276520D01*
X76901Y276506D01*
X76511Y276245D01*
X71946Y271681D01*
X70867Y272128D01*
X69685Y272283D01*
X68503Y272128D01*
X67402Y271671D01*
X66456Y270946D01*
X65730Y270000D01*
X65283Y268921D01*
X48496D01*
X48049Y270000D01*
X47324Y270946D01*
X46378Y271671D01*
X45276Y272128D01*
X44094Y272283D01*
X42913Y272128D01*
X41811Y271671D01*
X40865Y270946D01*
X40140Y270000D01*
X39693Y268921D01*
X37205D01*
Y270079D01*
X30512D01*
Y265748D01*
X37205D01*
Y266512D01*
X39693D01*
X40140Y265433D01*
X40856Y264499D01*
X40830Y264314D01*
X40723Y264000D01*
X31693D01*
X31232Y263908D01*
X30841Y263647D01*
X30841Y263647D01*
X27037Y259842D01*
X1003D01*
Y293878D01*
X254331D01*
X254331Y264173D01*
D02*
G37*
G36*
X65730Y265433D02*
X66447Y264499D01*
X66421Y264314D01*
X66314Y264000D01*
X47465D01*
X47359Y264314D01*
X47333Y264499D01*
X48049Y265433D01*
X48496Y266512D01*
X65283D01*
X65730Y265433D01*
D02*
G37*
G36*
X63149Y189355D02*
X66560Y189355D01*
X66914Y189001D01*
Y186411D01*
X66919Y186385D01*
X66915Y186358D01*
X66949Y186232D01*
X66975Y186104D01*
X66990Y186082D01*
X66997Y186056D01*
X67076Y185952D01*
X67149Y185843D01*
X67171Y185828D01*
X67187Y185807D01*
X67300Y185742D01*
X67409Y185669D01*
X67365Y185179D01*
X67222Y184835D01*
X67094Y183858D01*
X67222Y182882D01*
X67599Y181972D01*
X68199Y181191D01*
X68980Y180591D01*
X69890Y180214D01*
X70089Y180188D01*
X70315Y180018D01*
X70500Y179827D01*
X70534Y179701D01*
X70560Y179573D01*
X70574Y179551D01*
X70581Y179525D01*
X70661Y179421D01*
X70734Y179312D01*
X73552Y176494D01*
X73345Y175994D01*
X72638D01*
Y172835D01*
X71457D01*
Y171653D01*
X69085D01*
Y170079D01*
X66535D01*
Y176181D01*
X61417D01*
Y174440D01*
X56299D01*
X56299Y174440D01*
X56144Y174409D01*
X53289D01*
X53128Y175216D01*
X52671Y175900D01*
X51988Y176356D01*
X51181Y176517D01*
X50375Y176356D01*
X49691Y175900D01*
X49234Y175216D01*
X49192Y175004D01*
X49122Y174968D01*
X48622Y175197D01*
Y175197D01*
X37811D01*
Y178140D01*
X41732D01*
Y181103D01*
X42913D01*
Y182284D01*
X48435D01*
Y183449D01*
X53543D01*
X53543Y183449D01*
X53851Y183510D01*
X54111Y183684D01*
X54111Y183684D01*
X55859Y185432D01*
X56290Y185620D01*
Y185620D01*
X56290Y185620D01*
X58268D01*
Y187992D01*
X59449D01*
Y189173D01*
X62834D01*
X63108Y189363D01*
X63149Y189355D01*
D02*
G37*
G36*
X39370Y196072D02*
X37008D01*
Y191732D01*
X35827D01*
Y190551D01*
X31487D01*
Y188189D01*
X23228D01*
Y179537D01*
X19685D01*
Y172047D01*
Y164558D01*
X22172D01*
X22363Y164095D01*
X20253Y161985D01*
X19992Y162159D01*
X19685Y162220D01*
X1003D01*
Y201969D01*
X39370D01*
Y196072D01*
D02*
G37*
G36*
X276378Y154331D02*
X274813D01*
Y154527D01*
X271654D01*
X268495D01*
Y154331D01*
X266151D01*
Y154527D01*
X262992D01*
X259833D01*
Y154331D01*
X259449D01*
Y145276D01*
X262205D01*
Y125196D01*
X262175Y125151D01*
X262083Y124690D01*
X262083Y124690D01*
Y115351D01*
X262083Y115351D01*
X262175Y114890D01*
X262436Y114499D01*
X270449Y106486D01*
Y87767D01*
X270449Y87767D01*
X270472Y87651D01*
Y85152D01*
X270018Y84943D01*
X269053Y85767D01*
X266992Y87030D01*
X264759Y87955D01*
X262409Y88519D01*
X260000Y88709D01*
X257591Y88519D01*
X255241Y87955D01*
X253008Y87030D01*
X250947Y85767D01*
X249109Y84198D01*
X247540Y82360D01*
X246769Y81102D01*
X209449D01*
Y91906D01*
X244094D01*
X244094Y91906D01*
X244555Y91998D01*
X244946Y92259D01*
X253115Y100428D01*
X253115Y100428D01*
X253376Y100819D01*
X253468Y101279D01*
X253468Y101280D01*
Y163386D01*
X276378D01*
Y154331D01*
D02*
G37*
G36*
X28632Y126989D02*
X27431Y125787D01*
X24409D01*
Y125787D01*
X24056Y125606D01*
X23927D01*
X23849Y125591D01*
X23770D01*
X23770Y125591D01*
X22687D01*
X22687Y125591D01*
X22608D01*
X22530Y125606D01*
X20777Y125606D01*
X20699Y125591D01*
X20620D01*
X20620Y125591D01*
X19537D01*
X19537Y125591D01*
X19458D01*
X19381Y125606D01*
X19276D01*
X18504Y126378D01*
X18504Y133858D01*
X28565Y133858D01*
X28632Y126989D01*
D02*
G37*
G36*
X330315Y121677D02*
X317323D01*
Y130315D01*
X330315D01*
Y121677D01*
D02*
G37*
G36*
X108294Y176351D02*
X108746Y175675D01*
X109422Y175224D01*
X114960Y169685D01*
X123714D01*
X127922Y165477D01*
Y138976D01*
X127922Y138976D01*
X128024Y138464D01*
X128044Y138362D01*
X128392Y137841D01*
X139810Y126424D01*
X139810Y126424D01*
X140330Y126076D01*
X140945Y125953D01*
X143790D01*
Y125000D01*
X146949D01*
X150108D01*
Y125953D01*
X151575D01*
Y114961D01*
X128740D01*
X115551Y128150D01*
Y150787D01*
X100787D01*
X100394Y151181D01*
Y153543D01*
Y161811D01*
X107480D01*
Y161811D01*
X108071D01*
Y166929D01*
X96063D01*
Y174803D01*
X94488Y176378D01*
X74803D01*
X71301Y179880D01*
X71462Y180353D01*
X71794Y180397D01*
X72658Y180755D01*
X73400Y181324D01*
X73970Y182067D01*
X74222Y182677D01*
X70866D01*
Y183858D01*
X69685D01*
Y187215D01*
X69074Y186962D01*
X68332Y186392D01*
X68217Y186241D01*
X67716Y186411D01*
Y190157D01*
X63149Y190157D01*
X62795Y190511D01*
Y190551D01*
X56102D01*
Y186811D01*
X53543Y184252D01*
X37008D01*
Y168898D01*
X49606D01*
Y160145D01*
X49304Y159843D01*
X49213D01*
X46850Y157480D01*
X30709D01*
Y150787D01*
X28159D01*
Y152362D01*
X25787D01*
X23416D01*
Y150787D01*
X20488D01*
Y160645D01*
X24016Y164173D01*
X24803D01*
Y187008D01*
X40551D01*
Y192520D01*
X54331Y192520D01*
X54331Y204724D01*
X79921Y204725D01*
X108294Y176351D01*
D02*
G37*
G36*
X19685Y149606D02*
X24409D01*
X24409Y142520D01*
X14173Y142520D01*
X14173Y129527D01*
X18898Y124803D01*
X19381Y124803D01*
X20079Y124664D01*
X20777Y124803D01*
X22530Y124803D01*
X23228Y124664D01*
X23927Y124803D01*
X24056D01*
X24409Y124450D01*
Y118898D01*
X31102D01*
Y114173D01*
X36220Y109055D01*
X36220Y93716D01*
X1003Y93716D01*
Y161417D01*
X19685D01*
Y149606D01*
D02*
G37*
G36*
X125000Y60039D02*
Y40650D01*
X99508D01*
Y49311D01*
X99508Y54724D01*
X70290D01*
X70212Y55717D01*
X69648Y58066D01*
X68723Y60299D01*
X67460Y62360D01*
X65891Y64198D01*
X64053Y65767D01*
X61992Y67030D01*
X59759Y67955D01*
X57409Y68519D01*
X55118Y68700D01*
Y89312D01*
X55472Y89665D01*
X56988Y89665D01*
X95374Y89665D01*
X125000Y60039D01*
D02*
G37*
G36*
X54331Y89389D02*
X54315Y89312D01*
Y68700D01*
X54279Y68652D01*
X52591Y68519D01*
X50241Y67955D01*
X48008Y67030D01*
X45947Y65767D01*
X44109Y64198D01*
X42540Y62360D01*
X41277Y60299D01*
X40352Y58066D01*
X39788Y55717D01*
X39741Y55118D01*
X21654D01*
Y76378D01*
X29921D01*
X29921Y83071D01*
X1003Y83071D01*
Y92913D01*
X54331Y92913D01*
Y89389D01*
D02*
G37*
G36*
X74913Y122510D02*
X75374Y122418D01*
X75374Y122418D01*
X103763D01*
X144587Y81595D01*
Y42913D01*
X143316D01*
Y43504D01*
X140157D01*
X136998D01*
Y42913D01*
X134449D01*
X134350Y43012D01*
Y60236D01*
X125764D01*
X125742Y60347D01*
X125568Y60607D01*
X125568Y60607D01*
X99410Y86765D01*
Y102461D01*
X98425Y103445D01*
X86417Y115453D01*
Y117323D01*
X73622D01*
X73425Y117741D01*
Y122736D01*
X74574D01*
X74913Y122510D01*
D02*
G37*
G36*
X155489Y61417D02*
X155489Y61417D01*
X155580Y60957D01*
X155841Y60566D01*
X155905Y60502D01*
Y48425D01*
X161417D01*
Y42422D01*
X161129Y42289D01*
X160639Y42570D01*
Y43504D01*
X157480D01*
X154321D01*
Y42313D01*
X153899Y42126D01*
X152400D01*
X151978Y42313D01*
X151978Y42626D01*
Y43504D01*
X148819D01*
Y44685D01*
X147638D01*
Y47057D01*
X145889D01*
X145660Y47057D01*
X145389Y47445D01*
Y81496D01*
X155489D01*
Y61417D01*
D02*
G37*
G36*
X191339Y44094D02*
X238189D01*
Y1003D01*
X56708D01*
Y21260D01*
X56708Y21260D01*
X56647Y21567D01*
X56473Y21827D01*
X56473Y21827D01*
X56080Y22221D01*
X56080Y22221D01*
X37969Y40332D01*
X37709Y40505D01*
X37402Y40567D01*
X30915D01*
Y45866D01*
X27165D01*
X23416D01*
Y40567D01*
X21654D01*
Y54315D01*
X39741D01*
X39864Y54340D01*
X39989Y54355D01*
X40017Y54370D01*
X40048Y54376D01*
X40152Y54446D01*
X40262Y54508D01*
X40282Y54533D01*
X40308Y54550D01*
X40378Y54655D01*
X40433Y54724D01*
X40433Y54724D01*
X69485D01*
X69490Y54661D01*
X69524Y54540D01*
X69549Y54417D01*
X69566Y54391D01*
X69575Y54360D01*
X69653Y54261D01*
X69723Y54157D01*
X69749Y54139D01*
X69769Y54114D01*
X69879Y54053D01*
X69983Y53983D01*
X70014Y53977D01*
X70042Y53961D01*
X70167Y53946D01*
X70290Y53922D01*
X79715D01*
Y49016D01*
X83465D01*
X87214D01*
Y53922D01*
X98705D01*
X98705Y49311D01*
Y40650D01*
X98766Y40342D01*
X98940Y40082D01*
X99201Y39908D01*
X99508Y39847D01*
X100311D01*
X101575Y38583D01*
X108465D01*
Y36523D01*
X107012Y35070D01*
X101969D01*
Y35827D01*
X97244D01*
Y31102D01*
X101969D01*
Y31859D01*
X107677D01*
X107677Y31859D01*
X108190Y31961D01*
X108292Y31981D01*
X108812Y32329D01*
X111916Y35433D01*
X115157D01*
Y38583D01*
X117313D01*
Y37992D01*
X120473D01*
X123632D01*
Y38583D01*
X136998D01*
Y38386D01*
X140157D01*
X143316D01*
Y38583D01*
X145660D01*
Y38386D01*
X148819D01*
X151978D01*
Y38583D01*
X154321D01*
Y38386D01*
X157480D01*
X160639D01*
Y38583D01*
X167323D01*
Y59842D01*
X191339D01*
Y44094D01*
D02*
G37*
G36*
X392304Y1003D02*
X238992D01*
Y44094D01*
X362205D01*
X366142Y48031D01*
Y248031D01*
X392304D01*
Y1003D01*
D02*
G37*
G36*
X28740Y79528D02*
Y77181D01*
X21654D01*
X21576Y77165D01*
X20472D01*
Y39764D01*
X37402D01*
X55512Y21654D01*
X55905Y21260D01*
Y1003D01*
X1003D01*
Y82268D01*
X28740Y82268D01*
Y79528D01*
D02*
G37*
%LPC*%
G36*
X370679Y287214D02*
X367323D01*
Y284646D01*
X370679D01*
Y287214D01*
D02*
G37*
G36*
X364961D02*
X361605D01*
Y284646D01*
X364961D01*
Y287214D01*
D02*
G37*
G36*
X350994D02*
X347638D01*
Y284646D01*
X350994D01*
Y287214D01*
D02*
G37*
G36*
X345276D02*
X341920D01*
Y284646D01*
X345276D01*
Y287214D01*
D02*
G37*
G36*
X331309D02*
X327953D01*
Y284646D01*
X331309D01*
Y287214D01*
D02*
G37*
G36*
X325590D02*
X322235D01*
Y284646D01*
X325590D01*
Y287214D01*
D02*
G37*
G36*
X311624D02*
X308268D01*
Y284646D01*
X311624D01*
Y287214D01*
D02*
G37*
G36*
X305906D02*
X302550D01*
Y284646D01*
X305906D01*
Y287214D01*
D02*
G37*
G36*
X291939D02*
X288583D01*
Y284646D01*
X291939D01*
Y287214D01*
D02*
G37*
G36*
X286221D02*
X282865D01*
Y284646D01*
X286221D01*
Y287214D01*
D02*
G37*
G36*
X272253D02*
X268898D01*
Y284646D01*
X272253D01*
Y287214D01*
D02*
G37*
G36*
X266535D02*
X263179D01*
Y284646D01*
X266535D01*
Y287214D01*
D02*
G37*
G36*
X370679Y282283D02*
X367323D01*
Y279715D01*
X370679D01*
Y282283D01*
D02*
G37*
G36*
X364961D02*
X361605D01*
Y279715D01*
X364961D01*
Y282283D01*
D02*
G37*
G36*
X350994D02*
X347638D01*
Y279715D01*
X350994D01*
Y282283D01*
D02*
G37*
G36*
X345276D02*
X341920D01*
Y279715D01*
X345276D01*
Y282283D01*
D02*
G37*
G36*
X331309D02*
X327953D01*
Y279715D01*
X331309D01*
Y282283D01*
D02*
G37*
G36*
X325590D02*
X322235D01*
Y279715D01*
X325590D01*
Y282283D01*
D02*
G37*
G36*
X311624D02*
X308268D01*
Y279715D01*
X311624D01*
Y282283D01*
D02*
G37*
G36*
X305906D02*
X302550D01*
Y279715D01*
X305906D01*
Y282283D01*
D02*
G37*
G36*
X291939D02*
X288583D01*
Y279715D01*
X291939D01*
Y282283D01*
D02*
G37*
G36*
X286221D02*
X282865D01*
Y279715D01*
X286221D01*
Y282283D01*
D02*
G37*
G36*
X272253D02*
X268898D01*
Y279715D01*
X272253D01*
Y282283D01*
D02*
G37*
G36*
X266535D02*
X263179D01*
Y279715D01*
X266535D01*
Y282283D01*
D02*
G37*
G36*
X379921Y282339D02*
X379194Y282243D01*
X378516Y281962D01*
X377933Y281516D01*
X377486Y280933D01*
X377206Y280255D01*
X377110Y279528D01*
X377206Y278800D01*
X377486Y278122D01*
X377933Y277540D01*
X378516Y277093D01*
X379194Y276812D01*
X379921Y276716D01*
X380649Y276812D01*
X381327Y277093D01*
X381909Y277540D01*
X382356Y278122D01*
X382637Y278800D01*
X382733Y279528D01*
X382637Y280255D01*
X382356Y280933D01*
X381909Y281516D01*
X381327Y281962D01*
X380649Y282243D01*
X379921Y282339D01*
D02*
G37*
G36*
X233080Y266742D02*
X231102D01*
Y265551D01*
X233080D01*
Y266742D01*
D02*
G37*
G36*
X228740D02*
X226762D01*
Y265551D01*
X228740D01*
Y266742D01*
D02*
G37*
G36*
X237795D02*
X235817D01*
Y265551D01*
X237795D01*
Y266742D01*
D02*
G37*
G36*
Y263189D02*
X235817D01*
Y261998D01*
X237795D01*
Y263189D01*
D02*
G37*
G36*
X233080Y263189D02*
X231102D01*
Y261998D01*
X233080D01*
Y263189D01*
D02*
G37*
G36*
X228740D02*
X226762D01*
Y261998D01*
X228740D01*
Y263189D01*
D02*
G37*
G36*
X250797Y259261D02*
X248819D01*
Y258071D01*
X250797D01*
Y259261D01*
D02*
G37*
G36*
X246457D02*
X244479D01*
Y258071D01*
X246457D01*
Y259261D01*
D02*
G37*
G36*
X250797Y255709D02*
X248819D01*
Y254518D01*
X250797D01*
Y255709D01*
D02*
G37*
G36*
X246457D02*
X244479D01*
Y254518D01*
X246457D01*
Y255709D01*
D02*
G37*
G36*
X113189Y289961D02*
X104134D01*
Y280906D01*
X113189D01*
Y289961D01*
D02*
G37*
G36*
X48622D02*
X39567D01*
Y280906D01*
X48622D01*
Y289961D01*
D02*
G37*
G36*
X134252Y290000D02*
X133070Y289844D01*
X131969Y289388D01*
X131023Y288662D01*
X130297Y287716D01*
X129841Y286615D01*
X129685Y285433D01*
X129841Y284251D01*
X130297Y283150D01*
X131023Y282204D01*
X131969Y281478D01*
X133070Y281022D01*
X134252Y280867D01*
X135434Y281022D01*
X136535Y281478D01*
X137481Y282204D01*
X138207Y283150D01*
X138663Y284251D01*
X138819Y285433D01*
X138663Y286615D01*
X138207Y287716D01*
X137481Y288662D01*
X136535Y289388D01*
X135434Y289844D01*
X134252Y290000D01*
D02*
G37*
G36*
X69685D02*
X68503Y289844D01*
X67402Y289388D01*
X66456Y288662D01*
X65730Y287716D01*
X65274Y286615D01*
X65118Y285433D01*
X65274Y284251D01*
X65730Y283150D01*
X66456Y282204D01*
X67402Y281478D01*
X68503Y281022D01*
X69685Y280867D01*
X70867Y281022D01*
X71968Y281478D01*
X72914Y282204D01*
X73640Y283150D01*
X74096Y284251D01*
X74252Y285433D01*
X74096Y286615D01*
X73640Y287716D01*
X72914Y288662D01*
X71968Y289388D01*
X70867Y289844D01*
X69685Y290000D01*
D02*
G37*
G36*
X37017Y277372D02*
X35039D01*
Y276575D01*
X37017D01*
Y277372D01*
D02*
G37*
G36*
X32677D02*
X30699D01*
Y276575D01*
X32677D01*
Y277372D01*
D02*
G37*
G36*
X102372D02*
X100394D01*
Y276575D01*
X102372D01*
Y277372D01*
D02*
G37*
G36*
X98032D02*
X96053D01*
Y276575D01*
X98032D01*
Y277372D01*
D02*
G37*
G36*
X102372Y274213D02*
X100394D01*
Y273416D01*
X102372D01*
Y274213D01*
D02*
G37*
G36*
X98032D02*
X96053D01*
Y273416D01*
X98032D01*
Y274213D01*
D02*
G37*
G36*
X37017Y274213D02*
X35039D01*
Y273416D01*
X37017D01*
Y274213D01*
D02*
G37*
G36*
X32677D02*
X30699D01*
Y273416D01*
X32677D01*
Y274213D01*
D02*
G37*
G36*
X89764Y282029D02*
X88957Y281868D01*
X88274Y281411D01*
X87817Y280728D01*
X87656Y279921D01*
X87817Y279115D01*
X88158Y278604D01*
Y277999D01*
X86554D01*
Y272881D01*
X93247D01*
Y277999D01*
X91369D01*
Y278604D01*
X91711Y279115D01*
X91871Y279921D01*
X91711Y280728D01*
X91254Y281411D01*
X90570Y281868D01*
X89764Y282029D01*
D02*
G37*
G36*
X248891Y271850D02*
X246914D01*
Y270660D01*
X248891D01*
Y271850D01*
D02*
G37*
G36*
X108661Y272283D02*
X107480Y272128D01*
X106378Y271671D01*
X105432Y270946D01*
X104707Y270000D01*
X104341Y269118D01*
X102559D01*
Y270079D01*
X95866D01*
Y265748D01*
X102559D01*
Y266709D01*
X104227D01*
X104250Y266535D01*
X104707Y265433D01*
X105432Y264487D01*
X106378Y263762D01*
X107480Y263305D01*
X108661Y263150D01*
X109843Y263305D01*
X110945Y263762D01*
X111890Y264487D01*
X112616Y265433D01*
X113072Y266535D01*
X113228Y267717D01*
X113072Y268899D01*
X112616Y270000D01*
X111890Y270946D01*
X110945Y271671D01*
X109843Y272128D01*
X108661Y272283D01*
D02*
G37*
G36*
X15748Y274465D02*
X15020Y274369D01*
X14342Y274088D01*
X13760Y273641D01*
X13313Y273059D01*
X13032Y272381D01*
X12937Y271654D01*
X13032Y270926D01*
X13313Y270248D01*
X13760Y269666D01*
X14342Y269219D01*
X15020Y268938D01*
X15748Y268842D01*
X16476Y268938D01*
X17154Y269219D01*
X17736Y269666D01*
X18183Y270248D01*
X18464Y270926D01*
X18560Y271654D01*
X18464Y272381D01*
X18183Y273059D01*
X17736Y273641D01*
X17154Y274088D01*
X16476Y274369D01*
X15748Y274465D01*
D02*
G37*
G36*
X62608Y186811D02*
X60630D01*
Y185620D01*
X62608D01*
Y186811D01*
D02*
G37*
G36*
X48435Y179921D02*
X44095D01*
Y178140D01*
X48435D01*
Y179921D01*
D02*
G37*
G36*
X70276Y175994D02*
X69085D01*
Y174016D01*
X70276D01*
Y175994D01*
D02*
G37*
G36*
X34646Y196072D02*
X31487D01*
Y192913D01*
X34646D01*
Y196072D01*
D02*
G37*
G36*
X11417Y195941D02*
Y192913D01*
X14445D01*
X14027Y193921D01*
X13332Y194828D01*
X12425Y195523D01*
X11417Y195941D01*
D02*
G37*
G36*
X9055Y195941D02*
X8047Y195523D01*
X7141Y194828D01*
X6445Y193921D01*
X6028Y192913D01*
X9055D01*
Y195941D01*
D02*
G37*
G36*
Y190551D02*
X6028D01*
X6445Y189543D01*
X7141Y188637D01*
X8047Y187941D01*
X9055Y187524D01*
Y190551D01*
D02*
G37*
G36*
X14445D02*
X11417D01*
Y187524D01*
X12425Y187941D01*
X13332Y188637D01*
X14027Y189543D01*
X14445Y190551D01*
D02*
G37*
G36*
X10442Y182490D02*
X9449D01*
Y181496D01*
X10442D01*
Y182490D01*
D02*
G37*
G36*
X7087D02*
X6093D01*
Y181496D01*
X7087D01*
Y182490D01*
D02*
G37*
G36*
X10442Y179134D02*
X9449D01*
Y178140D01*
X10442D01*
Y179134D01*
D02*
G37*
G36*
X7087D02*
X6093D01*
Y178140D01*
X7087D01*
Y179134D01*
D02*
G37*
G36*
X17323Y179537D02*
X12983D01*
Y173228D01*
X17323D01*
Y179537D01*
D02*
G37*
G36*
Y170866D02*
X12983D01*
Y164558D01*
X17323D01*
Y170866D01*
D02*
G37*
G36*
X10630Y176378D02*
X5906D01*
Y171653D01*
X6662D01*
Y168110D01*
X4921D01*
Y163779D01*
X11614D01*
Y168110D01*
X9873D01*
Y171653D01*
X10630D01*
Y176378D01*
D02*
G37*
G36*
X266151Y157687D02*
X264173D01*
Y156890D01*
X266151D01*
Y157687D01*
D02*
G37*
G36*
X261811D02*
X259833D01*
Y156890D01*
X261811D01*
Y157687D01*
D02*
G37*
G36*
X274813D02*
X272835D01*
Y156890D01*
X274813D01*
Y157687D01*
D02*
G37*
G36*
X270473D02*
X268495D01*
Y156890D01*
X270473D01*
Y157687D01*
D02*
G37*
G36*
X326387Y127765D02*
X324410D01*
Y126575D01*
X326387D01*
Y127765D01*
D02*
G37*
G36*
X322047D02*
X320069D01*
Y126575D01*
X322047D01*
Y127765D01*
D02*
G37*
G36*
X326387Y124213D02*
X324410D01*
Y123022D01*
X326387D01*
Y124213D01*
D02*
G37*
G36*
X322047D02*
X320069D01*
Y123022D01*
X322047D01*
Y124213D01*
D02*
G37*
G36*
X62795Y198031D02*
X56102D01*
Y192913D01*
X62795D01*
Y194261D01*
X64627D01*
X65138Y193919D01*
X65945Y193759D01*
X66751Y193919D01*
X67435Y194376D01*
X67892Y195060D01*
X68052Y195866D01*
X67892Y196673D01*
X67435Y197356D01*
X66751Y197813D01*
X65945Y197974D01*
X65138Y197813D01*
X64627Y197472D01*
X62795D01*
Y198031D01*
D02*
G37*
G36*
X53553Y189576D02*
X51575D01*
Y188780D01*
X53553D01*
Y189576D01*
D02*
G37*
G36*
X49213D02*
X47235D01*
Y188780D01*
X49213D01*
Y189576D01*
D02*
G37*
G36*
X53553Y186417D02*
X51575D01*
Y185620D01*
X53553D01*
Y186417D01*
D02*
G37*
G36*
X49213D02*
X47235D01*
Y185620D01*
X49213D01*
Y186417D01*
D02*
G37*
G36*
X72047Y187215D02*
Y185039D01*
X74222D01*
X73970Y185650D01*
X73400Y186392D01*
X72658Y186962D01*
X72047Y187215D01*
D02*
G37*
G36*
X48435Y165954D02*
X44095D01*
Y164173D01*
X48435D01*
Y165954D01*
D02*
G37*
G36*
X41732D02*
X37392D01*
Y164173D01*
X41732D01*
Y165954D01*
D02*
G37*
G36*
X48435Y161811D02*
X44095D01*
Y160030D01*
X48435D01*
Y161811D01*
D02*
G37*
G36*
X41732D02*
X37392D01*
Y160030D01*
X41732D01*
Y161811D01*
D02*
G37*
G36*
X107884Y159261D02*
X105906D01*
Y158071D01*
X107884D01*
Y159261D01*
D02*
G37*
G36*
X103543D02*
X101565D01*
Y158071D01*
X103543D01*
Y159261D01*
D02*
G37*
G36*
X28159Y156702D02*
X26968D01*
Y154725D01*
X28159D01*
Y156702D01*
D02*
G37*
G36*
X24606D02*
X23416D01*
Y154725D01*
X24606D01*
Y156702D01*
D02*
G37*
G36*
X107884Y155709D02*
X105906D01*
Y154518D01*
X107884D01*
Y155709D01*
D02*
G37*
G36*
X103543D02*
X101565D01*
Y154518D01*
X103543D01*
Y155709D01*
D02*
G37*
G36*
X150108Y122638D02*
X148130D01*
Y121447D01*
X150108D01*
Y122638D01*
D02*
G37*
G36*
X145768D02*
X143790D01*
Y121447D01*
X145768D01*
Y122638D01*
D02*
G37*
G36*
X11427Y160442D02*
X9449D01*
Y159646D01*
X11427D01*
Y160442D01*
D02*
G37*
G36*
X7087D02*
X5109D01*
Y159646D01*
X7087D01*
Y160442D01*
D02*
G37*
G36*
X11427Y157283D02*
X9449D01*
Y156487D01*
X11427D01*
Y157283D01*
D02*
G37*
G36*
X7087D02*
X5109D01*
Y156487D01*
X7087D01*
Y157283D01*
D02*
G37*
G36*
X10689Y152602D02*
X5059D01*
X4199Y152431D01*
X3470Y151944D01*
X2982Y151215D01*
X2811Y150354D01*
Y148465D01*
X2982Y147604D01*
X3470Y146875D01*
X4199Y146388D01*
X5059Y146217D01*
X10689D01*
X11549Y146388D01*
X12279Y146875D01*
X12766Y147604D01*
X12937Y148465D01*
Y150354D01*
X12766Y151215D01*
X12279Y151944D01*
X11549Y152431D01*
X10689Y152602D01*
D02*
G37*
G36*
X16339Y148169D02*
X15571Y148016D01*
X14919Y147581D01*
X14484Y146930D01*
X14332Y146161D01*
X14484Y145393D01*
X14919Y144742D01*
X15571Y144307D01*
X16339Y144154D01*
X17107Y144307D01*
X17758Y144742D01*
X18193Y145393D01*
X18346Y146161D01*
X18193Y146930D01*
X17758Y147581D01*
X17107Y148016D01*
X16339Y148169D01*
D02*
G37*
G36*
X10689Y130358D02*
X5059D01*
X4199Y130187D01*
X3470Y129700D01*
X2982Y128971D01*
X2811Y128110D01*
Y126221D01*
X2982Y125360D01*
X3470Y124631D01*
X4199Y124144D01*
X5059Y123973D01*
X10689D01*
X11549Y124144D01*
X12279Y124631D01*
X12766Y125360D01*
X12937Y126221D01*
Y128110D01*
X12766Y128971D01*
X12279Y129700D01*
X11549Y130187D01*
X10689Y130358D01*
D02*
G37*
G36*
X87214Y70482D02*
X84646D01*
Y65158D01*
X87214D01*
Y70482D01*
D02*
G37*
G36*
X82284D02*
X79715D01*
Y65158D01*
X82284D01*
Y70482D01*
D02*
G37*
G36*
X87214Y62795D02*
X84646D01*
Y57471D01*
X87214D01*
Y62795D01*
D02*
G37*
G36*
X82284D02*
X79715D01*
Y57471D01*
X82284D01*
Y62795D01*
D02*
G37*
G36*
X113937Y58031D02*
X106063D01*
Y48583D01*
X113937D01*
Y58031D01*
D02*
G37*
G36*
X114970Y47057D02*
X112992D01*
Y46260D01*
X114970D01*
Y47057D01*
D02*
G37*
G36*
X110630D02*
X108652D01*
Y46260D01*
X110630D01*
Y47057D01*
D02*
G37*
G36*
X123632Y46663D02*
X121654D01*
Y45472D01*
X123632D01*
Y46663D01*
D02*
G37*
G36*
X119291D02*
X117313D01*
Y45472D01*
X119291D01*
Y46663D01*
D02*
G37*
G36*
X114970Y43898D02*
X112992D01*
Y43101D01*
X114970D01*
Y43898D01*
D02*
G37*
G36*
X110630D02*
X108652D01*
Y43101D01*
X110630D01*
Y43898D01*
D02*
G37*
G36*
X123632Y43110D02*
X121654D01*
Y41920D01*
X123632D01*
Y43110D01*
D02*
G37*
G36*
X119291D02*
X117313D01*
Y41920D01*
X119291D01*
Y43110D01*
D02*
G37*
G36*
X30915Y69695D02*
X28346D01*
Y64370D01*
X30915D01*
Y69695D01*
D02*
G37*
G36*
X25984D02*
X23416D01*
Y64370D01*
X25984D01*
Y69695D01*
D02*
G37*
G36*
X30915Y62008D02*
X28346D01*
Y56683D01*
X30915D01*
Y62008D01*
D02*
G37*
G36*
X25984D02*
X23416D01*
Y56683D01*
X25984D01*
Y62008D01*
D02*
G37*
G36*
X143316Y47057D02*
X141339D01*
Y45866D01*
X143316D01*
Y47057D01*
D02*
G37*
G36*
X138976D02*
X136998D01*
Y45866D01*
X138976D01*
Y47057D01*
D02*
G37*
G36*
X154131Y78720D02*
X153335D01*
Y76743D01*
X154131D01*
Y78720D01*
D02*
G37*
G36*
X150973D02*
X150176D01*
Y76743D01*
X150973D01*
Y78720D01*
D02*
G37*
G36*
X154131Y74380D02*
X153335D01*
Y72402D01*
X154131D01*
Y74380D01*
D02*
G37*
G36*
X150973D02*
X150176D01*
Y72402D01*
X150973D01*
Y74380D01*
D02*
G37*
G36*
X154191Y69904D02*
X153395D01*
Y67926D01*
X154191D01*
Y69904D01*
D02*
G37*
G36*
X151032D02*
X150235D01*
Y67926D01*
X151032D01*
Y69904D01*
D02*
G37*
G36*
X154191Y65564D02*
X153395D01*
Y63586D01*
X154191D01*
Y65564D01*
D02*
G37*
G36*
X151032D02*
X150235D01*
Y63586D01*
X151032D01*
Y65564D01*
D02*
G37*
G36*
X150000Y47057D02*
Y45866D01*
X151978D01*
Y47057D01*
X150000D01*
D02*
G37*
G36*
X160639D02*
X158661D01*
Y45866D01*
X160639D01*
Y47057D01*
D02*
G37*
G36*
X156299D02*
X154321D01*
Y45866D01*
X156299D01*
Y47057D01*
D02*
G37*
G36*
X180000Y58065D02*
X178972Y57930D01*
X178015Y57534D01*
X177192Y56902D01*
X176561Y56080D01*
X176164Y55122D01*
X176029Y54094D01*
Y52520D01*
X176164Y51492D01*
X176561Y50534D01*
X177192Y49712D01*
X178015Y49081D01*
X178972Y48684D01*
X180000Y48549D01*
X181028Y48684D01*
X181985Y49081D01*
X182808Y49712D01*
X183439Y50534D01*
X183836Y51492D01*
X183971Y52520D01*
Y54094D01*
X183836Y55122D01*
X183439Y56080D01*
X182808Y56902D01*
X181985Y57534D01*
X181028Y57930D01*
X180000Y58065D01*
D02*
G37*
G36*
X30915Y53553D02*
X28346D01*
Y48228D01*
X30915D01*
Y53553D01*
D02*
G37*
G36*
X25984D02*
X23416D01*
Y48228D01*
X25984D01*
Y53553D01*
D02*
G37*
G36*
X87214Y46654D02*
X84646D01*
Y41329D01*
X87214D01*
Y46654D01*
D02*
G37*
G36*
X82284D02*
X79715D01*
Y41329D01*
X82284D01*
Y46654D01*
D02*
G37*
G36*
X160639Y36024D02*
X158661D01*
Y34833D01*
X160639D01*
Y36024D01*
D02*
G37*
G36*
X156299D02*
X154321D01*
Y34833D01*
X156299D01*
Y36024D01*
D02*
G37*
G36*
X151978Y36024D02*
X150000D01*
Y34833D01*
X151978D01*
Y36024D01*
D02*
G37*
G36*
X147638D02*
X145660D01*
Y34833D01*
X147638D01*
Y36024D01*
D02*
G37*
G36*
X143316Y36024D02*
X141339D01*
Y34833D01*
X143316D01*
Y36024D01*
D02*
G37*
G36*
X138976D02*
X136998D01*
Y34833D01*
X138976D01*
Y36024D01*
D02*
G37*
G36*
X95482Y35639D02*
X94488D01*
Y34646D01*
X95482D01*
Y35639D01*
D02*
G37*
G36*
X92126D02*
X91132D01*
Y34646D01*
X92126D01*
Y35639D01*
D02*
G37*
G36*
X123632Y35630D02*
X121654D01*
Y34439D01*
X123632D01*
Y35630D01*
D02*
G37*
G36*
X119291D02*
X117313D01*
Y34439D01*
X119291D01*
Y35630D01*
D02*
G37*
G36*
X95482Y32283D02*
X94488D01*
Y31290D01*
X95482D01*
Y32283D01*
D02*
G37*
G36*
X92126D02*
X91132D01*
Y31290D01*
X92126D01*
Y32283D01*
D02*
G37*
G36*
X373386Y245302D02*
Y242126D01*
X375935D01*
X375858Y242711D01*
X375480Y243623D01*
X374879Y244407D01*
X374096Y245008D01*
X373386Y245302D01*
D02*
G37*
G36*
X371024Y245302D02*
X370314Y245008D01*
X369531Y244407D01*
X368929Y243623D01*
X368552Y242711D01*
X368475Y242126D01*
X371024D01*
Y245302D01*
D02*
G37*
G36*
X375935Y239764D02*
X373386D01*
Y236588D01*
X374096Y236882D01*
X374879Y237483D01*
X375480Y238266D01*
X375858Y239179D01*
X375935Y239764D01*
D02*
G37*
G36*
X371024D02*
X368475D01*
X368552Y239179D01*
X368929Y238266D01*
X369531Y237483D01*
X370314Y236882D01*
X371024Y236588D01*
Y239764D01*
D02*
G37*
G36*
X382205Y245703D02*
X381177Y245568D01*
X380219Y245171D01*
X379397Y244540D01*
X378766Y243718D01*
X378369Y242760D01*
X378234Y241732D01*
Y240158D01*
X378369Y239130D01*
X378766Y238172D01*
X379397Y237350D01*
X380219Y236719D01*
X381177Y236322D01*
X382205Y236187D01*
X383232Y236322D01*
X384190Y236719D01*
X385013Y237350D01*
X385644Y238172D01*
X386040Y239130D01*
X386176Y240158D01*
Y241732D01*
X386040Y242760D01*
X385644Y243718D01*
X385013Y244540D01*
X384190Y245171D01*
X383232Y245568D01*
X382205Y245703D01*
D02*
G37*
G36*
X373386Y233490D02*
Y230315D01*
X375935D01*
X375858Y230900D01*
X375480Y231812D01*
X374879Y232595D01*
X374096Y233196D01*
X373386Y233490D01*
D02*
G37*
G36*
X371024Y233491D02*
X370314Y233196D01*
X369531Y232595D01*
X368929Y231812D01*
X368552Y230900D01*
X368475Y230315D01*
X371024D01*
Y233491D01*
D02*
G37*
G36*
X375935Y227953D02*
X373386D01*
Y224777D01*
X374096Y225071D01*
X374879Y225672D01*
X375480Y226455D01*
X375858Y227368D01*
X375935Y227953D01*
D02*
G37*
G36*
X371024D02*
X368475D01*
X368552Y227368D01*
X368929Y226455D01*
X369531Y225672D01*
X370314Y225071D01*
X371024Y224777D01*
Y227953D01*
D02*
G37*
G36*
X382205Y233892D02*
X381177Y233757D01*
X380219Y233360D01*
X379397Y232729D01*
X378766Y231907D01*
X378369Y230949D01*
X378234Y229921D01*
Y228346D01*
X378369Y227319D01*
X378766Y226361D01*
X379397Y225538D01*
X380219Y224907D01*
X381177Y224511D01*
X382205Y224376D01*
X383232Y224511D01*
X384190Y224907D01*
X385013Y225538D01*
X385644Y226361D01*
X386040Y227319D01*
X386176Y228346D01*
Y229921D01*
X386040Y230949D01*
X385644Y231907D01*
X385013Y232729D01*
X384190Y233360D01*
X383232Y233757D01*
X382205Y233892D01*
D02*
G37*
G36*
X373386Y221679D02*
Y218504D01*
X375935D01*
X375858Y219089D01*
X375480Y220001D01*
X374879Y220784D01*
X374096Y221386D01*
X373386Y221679D01*
D02*
G37*
G36*
X371024Y221680D02*
X370314Y221386D01*
X369531Y220784D01*
X368929Y220001D01*
X368552Y219089D01*
X368475Y218504D01*
X371024D01*
Y221680D01*
D02*
G37*
G36*
X375935Y216142D02*
X373386D01*
Y212966D01*
X374096Y213260D01*
X374879Y213861D01*
X375480Y214644D01*
X375858Y215557D01*
X375935Y216142D01*
D02*
G37*
G36*
X371024D02*
X368475D01*
X368552Y215557D01*
X368929Y214644D01*
X369531Y213861D01*
X370314Y213260D01*
X371024Y212966D01*
Y216142D01*
D02*
G37*
G36*
X382205Y222081D02*
X381177Y221946D01*
X380219Y221549D01*
X379397Y220918D01*
X378766Y220096D01*
X378369Y219138D01*
X378234Y218110D01*
Y216535D01*
X378369Y215508D01*
X378766Y214550D01*
X379397Y213727D01*
X380219Y213096D01*
X381177Y212700D01*
X382205Y212564D01*
X383232Y212700D01*
X384190Y213096D01*
X385013Y213727D01*
X385644Y214550D01*
X386040Y215508D01*
X386176Y216535D01*
Y218110D01*
X386040Y219138D01*
X385644Y220096D01*
X385013Y220918D01*
X384190Y221549D01*
X383232Y221946D01*
X382205Y222081D01*
D02*
G37*
G36*
X373386Y209869D02*
Y206693D01*
X375935D01*
X375858Y207278D01*
X375480Y208190D01*
X374879Y208974D01*
X374096Y209575D01*
X373386Y209869D01*
D02*
G37*
G36*
X371024Y209869D02*
X370314Y209575D01*
X369531Y208974D01*
X368929Y208190D01*
X368552Y207278D01*
X368475Y206693D01*
X371024D01*
Y209869D01*
D02*
G37*
G36*
X375935Y204331D02*
X373386D01*
Y201155D01*
X374096Y201449D01*
X374879Y202050D01*
X375480Y202833D01*
X375858Y203746D01*
X375935Y204331D01*
D02*
G37*
G36*
X371024D02*
X368475D01*
X368552Y203746D01*
X368929Y202833D01*
X369531Y202050D01*
X370314Y201449D01*
X371024Y201155D01*
Y204331D01*
D02*
G37*
G36*
X382205Y210270D02*
X381177Y210135D01*
X380219Y209738D01*
X379397Y209107D01*
X378766Y208285D01*
X378369Y207327D01*
X378234Y206299D01*
Y204724D01*
X378369Y203697D01*
X378766Y202739D01*
X379397Y201917D01*
X380219Y201285D01*
X381177Y200889D01*
X382205Y200753D01*
X383232Y200889D01*
X384190Y201285D01*
X385013Y201917D01*
X385644Y202739D01*
X386040Y203697D01*
X386176Y204724D01*
Y206299D01*
X386040Y207327D01*
X385644Y208285D01*
X385013Y209107D01*
X384190Y209738D01*
X383232Y210135D01*
X382205Y210270D01*
D02*
G37*
G36*
X373386Y194908D02*
Y191732D01*
X375935D01*
X375858Y192317D01*
X375480Y193230D01*
X374879Y194013D01*
X374096Y194614D01*
X373386Y194908D01*
D02*
G37*
G36*
X371024Y194908D02*
X370314Y194614D01*
X369531Y194013D01*
X368929Y193230D01*
X368552Y192317D01*
X368475Y191732D01*
X371024D01*
Y194908D01*
D02*
G37*
G36*
X375935Y189370D02*
X373386D01*
Y186195D01*
X374096Y186488D01*
X374879Y187090D01*
X375480Y187873D01*
X375858Y188785D01*
X375935Y189370D01*
D02*
G37*
G36*
X371024D02*
X368475D01*
X368552Y188785D01*
X368929Y187873D01*
X369531Y187090D01*
X370314Y186488D01*
X371024Y186194D01*
Y189370D01*
D02*
G37*
G36*
X382205Y195310D02*
X381177Y195174D01*
X380219Y194778D01*
X379397Y194147D01*
X378766Y193324D01*
X378369Y192366D01*
X378234Y191339D01*
Y189764D01*
X378369Y188736D01*
X378766Y187778D01*
X379397Y186956D01*
X380219Y186325D01*
X381177Y185928D01*
X382205Y185793D01*
X383232Y185928D01*
X384190Y186325D01*
X385013Y186956D01*
X385644Y187778D01*
X386040Y188736D01*
X386176Y189764D01*
Y191339D01*
X386040Y192366D01*
X385644Y193324D01*
X385013Y194147D01*
X384190Y194778D01*
X383232Y195174D01*
X382205Y195310D01*
D02*
G37*
G36*
X373386Y183097D02*
Y179921D01*
X375935D01*
X375858Y180506D01*
X375480Y181419D01*
X374879Y182202D01*
X374096Y182803D01*
X373386Y183097D01*
D02*
G37*
G36*
X371024Y183097D02*
X370314Y182803D01*
X369531Y182202D01*
X368929Y181419D01*
X368552Y180506D01*
X368475Y179921D01*
X371024D01*
Y183097D01*
D02*
G37*
G36*
X375935Y177559D02*
X373386D01*
Y174383D01*
X374096Y174678D01*
X374879Y175278D01*
X375480Y176062D01*
X375858Y176974D01*
X375935Y177559D01*
D02*
G37*
G36*
X371024D02*
X368475D01*
X368552Y176974D01*
X368929Y176062D01*
X369531Y175278D01*
X370314Y174678D01*
X371024Y174383D01*
Y177559D01*
D02*
G37*
G36*
X382205Y183499D02*
X381177Y183363D01*
X380219Y182966D01*
X379397Y182335D01*
X378766Y181513D01*
X378369Y180555D01*
X378234Y179528D01*
Y177953D01*
X378369Y176925D01*
X378766Y175967D01*
X379397Y175145D01*
X380219Y174514D01*
X381177Y174117D01*
X382205Y173982D01*
X383232Y174117D01*
X384190Y174514D01*
X385013Y175145D01*
X385644Y175967D01*
X386040Y176925D01*
X386176Y177953D01*
Y179528D01*
X386040Y180555D01*
X385644Y181513D01*
X385013Y182335D01*
X384190Y182966D01*
X383232Y183363D01*
X382205Y183499D01*
D02*
G37*
G36*
X373386Y171286D02*
Y168110D01*
X375935D01*
X375858Y168695D01*
X375480Y169607D01*
X374879Y170391D01*
X374096Y170992D01*
X373386Y171286D01*
D02*
G37*
G36*
X371024Y171286D02*
X370314Y170992D01*
X369531Y170391D01*
X368929Y169607D01*
X368552Y168695D01*
X368475Y168110D01*
X371024D01*
Y171286D01*
D02*
G37*
G36*
X375935Y165748D02*
X373386D01*
Y162572D01*
X374096Y162866D01*
X374879Y163468D01*
X375480Y164251D01*
X375858Y165163D01*
X375935Y165748D01*
D02*
G37*
G36*
X371024D02*
X368475D01*
X368552Y165163D01*
X368929Y164251D01*
X369531Y163468D01*
X370314Y162866D01*
X371024Y162572D01*
Y165748D01*
D02*
G37*
G36*
X382205Y171687D02*
X381177Y171552D01*
X380219Y171156D01*
X379397Y170524D01*
X378766Y169702D01*
X378369Y168744D01*
X378234Y167717D01*
Y166142D01*
X378369Y165114D01*
X378766Y164156D01*
X379397Y163334D01*
X380219Y162703D01*
X381177Y162306D01*
X382205Y162171D01*
X383232Y162306D01*
X384190Y162703D01*
X385013Y163334D01*
X385644Y164156D01*
X386040Y165114D01*
X386176Y166142D01*
Y167717D01*
X386040Y168744D01*
X385644Y169702D01*
X385013Y170524D01*
X384190Y171156D01*
X383232Y171552D01*
X382205Y171687D01*
D02*
G37*
G36*
X373386Y159475D02*
Y156299D01*
X375935D01*
X375858Y156884D01*
X375480Y157797D01*
X374879Y158580D01*
X374096Y159181D01*
X373386Y159475D01*
D02*
G37*
G36*
X371024Y159475D02*
X370314Y159181D01*
X369531Y158580D01*
X368929Y157797D01*
X368552Y156884D01*
X368475Y156299D01*
X371024D01*
Y159475D01*
D02*
G37*
G36*
X375935Y153937D02*
X373386D01*
Y150761D01*
X374096Y151055D01*
X374879Y151656D01*
X375480Y152440D01*
X375858Y153352D01*
X375935Y153937D01*
D02*
G37*
G36*
X371024D02*
X368475D01*
X368552Y153352D01*
X368929Y152440D01*
X369531Y151656D01*
X370314Y151055D01*
X371024Y150761D01*
Y153937D01*
D02*
G37*
G36*
X382205Y159877D02*
X381177Y159741D01*
X380219Y159344D01*
X379397Y158713D01*
X378766Y157891D01*
X378369Y156933D01*
X378234Y155905D01*
Y154331D01*
X378369Y153303D01*
X378766Y152345D01*
X379397Y151523D01*
X380219Y150892D01*
X381177Y150495D01*
X382205Y150360D01*
X383232Y150495D01*
X384190Y150892D01*
X385013Y151523D01*
X385644Y152345D01*
X386040Y153303D01*
X386176Y154331D01*
Y155905D01*
X386040Y156933D01*
X385644Y157891D01*
X385013Y158713D01*
X384190Y159344D01*
X383232Y159741D01*
X382205Y159877D01*
D02*
G37*
G36*
X373386Y144514D02*
Y141339D01*
X375935D01*
X375858Y141924D01*
X375480Y142836D01*
X374879Y143619D01*
X374096Y144220D01*
X373386Y144514D01*
D02*
G37*
G36*
X371024Y144514D02*
X370314Y144220D01*
X369531Y143619D01*
X368929Y142836D01*
X368552Y141924D01*
X368475Y141339D01*
X371024D01*
Y144514D01*
D02*
G37*
G36*
X375935Y138976D02*
X373386D01*
Y135801D01*
X374096Y136095D01*
X374879Y136696D01*
X375480Y137479D01*
X375858Y138391D01*
X375935Y138976D01*
D02*
G37*
G36*
X371024D02*
X368475D01*
X368552Y138391D01*
X368929Y137479D01*
X369531Y136696D01*
X370314Y136095D01*
X371024Y135801D01*
Y138976D01*
D02*
G37*
G36*
X382205Y144916D02*
X381177Y144781D01*
X380219Y144384D01*
X379397Y143753D01*
X378766Y142930D01*
X378369Y141973D01*
X378234Y140945D01*
Y139370D01*
X378369Y138342D01*
X378766Y137385D01*
X379397Y136562D01*
X380219Y135931D01*
X381177Y135534D01*
X382205Y135399D01*
X383232Y135534D01*
X384190Y135931D01*
X385013Y136562D01*
X385644Y137385D01*
X386040Y138342D01*
X386176Y139370D01*
Y140945D01*
X386040Y141973D01*
X385644Y142930D01*
X385013Y143753D01*
X384190Y144384D01*
X383232Y144781D01*
X382205Y144916D01*
D02*
G37*
G36*
X373386Y132703D02*
Y129527D01*
X375935D01*
X375858Y130113D01*
X375480Y131025D01*
X374879Y131808D01*
X374096Y132409D01*
X373386Y132703D01*
D02*
G37*
G36*
X371024Y132703D02*
X370314Y132409D01*
X369531Y131808D01*
X368929Y131025D01*
X368552Y130113D01*
X368475Y129527D01*
X371024D01*
Y132703D01*
D02*
G37*
G36*
X375935Y127165D02*
X373386D01*
Y123990D01*
X374096Y124284D01*
X374879Y124885D01*
X375480Y125668D01*
X375858Y126580D01*
X375935Y127165D01*
D02*
G37*
G36*
X371024D02*
X368475D01*
X368552Y126580D01*
X368929Y125668D01*
X369531Y124885D01*
X370314Y124284D01*
X371024Y123990D01*
Y127165D01*
D02*
G37*
G36*
X382205Y133105D02*
X381177Y132969D01*
X380219Y132573D01*
X379397Y131942D01*
X378766Y131119D01*
X378369Y130162D01*
X378234Y129134D01*
Y127559D01*
X378369Y126531D01*
X378766Y125574D01*
X379397Y124751D01*
X380219Y124120D01*
X381177Y123723D01*
X382205Y123588D01*
X383232Y123723D01*
X384190Y124120D01*
X385013Y124751D01*
X385644Y125574D01*
X386040Y126531D01*
X386176Y127559D01*
Y129134D01*
X386040Y130162D01*
X385644Y131119D01*
X385013Y131942D01*
X384190Y132573D01*
X383232Y132969D01*
X382205Y133105D01*
D02*
G37*
G36*
X373386Y120892D02*
Y117716D01*
X375935D01*
X375858Y118302D01*
X375480Y119214D01*
X374879Y119997D01*
X374096Y120598D01*
X373386Y120892D01*
D02*
G37*
G36*
X371024Y120892D02*
X370314Y120598D01*
X369531Y119997D01*
X368929Y119214D01*
X368552Y118302D01*
X368475Y117716D01*
X371024D01*
Y120892D01*
D02*
G37*
G36*
X375935Y115354D02*
X373386D01*
Y112179D01*
X374096Y112473D01*
X374879Y113074D01*
X375480Y113857D01*
X375858Y114769D01*
X375935Y115354D01*
D02*
G37*
G36*
X371024D02*
X368475D01*
X368552Y114769D01*
X368929Y113857D01*
X369531Y113074D01*
X370314Y112473D01*
X371024Y112179D01*
Y115354D01*
D02*
G37*
G36*
X382205Y121294D02*
X381177Y121159D01*
X380219Y120762D01*
X379397Y120131D01*
X378766Y119308D01*
X378369Y118351D01*
X378234Y117323D01*
Y115748D01*
X378369Y114720D01*
X378766Y113762D01*
X379397Y112940D01*
X380219Y112309D01*
X381177Y111912D01*
X382205Y111777D01*
X383232Y111912D01*
X384190Y112309D01*
X385013Y112940D01*
X385644Y113762D01*
X386040Y114720D01*
X386176Y115748D01*
Y117323D01*
X386040Y118351D01*
X385644Y119308D01*
X385013Y120131D01*
X384190Y120762D01*
X383232Y121159D01*
X382205Y121294D01*
D02*
G37*
G36*
X373386Y109081D02*
Y105905D01*
X375935D01*
X375858Y106491D01*
X375480Y107403D01*
X374879Y108186D01*
X374096Y108787D01*
X373386Y109081D01*
D02*
G37*
G36*
X371024Y109081D02*
X370314Y108787D01*
X369531Y108186D01*
X368929Y107403D01*
X368552Y106491D01*
X368475Y105905D01*
X371024D01*
Y109081D01*
D02*
G37*
G36*
X375935Y103543D02*
X373386D01*
Y100368D01*
X374096Y100662D01*
X374879Y101263D01*
X375480Y102046D01*
X375858Y102958D01*
X375935Y103543D01*
D02*
G37*
G36*
X371024D02*
X368475D01*
X368552Y102958D01*
X368929Y102046D01*
X369531Y101263D01*
X370314Y100662D01*
X371024Y100368D01*
Y103543D01*
D02*
G37*
G36*
X382205Y109483D02*
X381177Y109347D01*
X380219Y108951D01*
X379397Y108320D01*
X378766Y107497D01*
X378369Y106540D01*
X378234Y105512D01*
Y103937D01*
X378369Y102909D01*
X378766Y101952D01*
X379397Y101129D01*
X380219Y100498D01*
X381177Y100101D01*
X382205Y99966D01*
X383232Y100101D01*
X384190Y100498D01*
X385013Y101129D01*
X385644Y101952D01*
X386040Y102909D01*
X386176Y103937D01*
Y105512D01*
X386040Y106540D01*
X385644Y107497D01*
X385013Y108320D01*
X384190Y108951D01*
X383232Y109347D01*
X382205Y109483D01*
D02*
G37*
G36*
X373386Y94120D02*
Y90945D01*
X375935D01*
X375858Y91530D01*
X375480Y92442D01*
X374879Y93225D01*
X374096Y93827D01*
X373386Y94120D01*
D02*
G37*
G36*
X371024Y94121D02*
X370314Y93827D01*
X369531Y93225D01*
X368929Y92442D01*
X368552Y91530D01*
X368475Y90945D01*
X371024D01*
Y94121D01*
D02*
G37*
G36*
X375935Y88583D02*
X373386D01*
Y85407D01*
X374096Y85701D01*
X374879Y86302D01*
X375480Y87085D01*
X375858Y87998D01*
X375935Y88583D01*
D02*
G37*
G36*
X371024D02*
X368475D01*
X368552Y87998D01*
X368929Y87085D01*
X369531Y86302D01*
X370314Y85701D01*
X371024Y85407D01*
Y88583D01*
D02*
G37*
G36*
X382205Y94522D02*
X381177Y94387D01*
X380219Y93990D01*
X379397Y93359D01*
X378766Y92537D01*
X378369Y91579D01*
X378234Y90551D01*
Y88976D01*
X378369Y87949D01*
X378766Y86991D01*
X379397Y86168D01*
X380219Y85537D01*
X381177Y85141D01*
X382205Y85005D01*
X383232Y85141D01*
X384190Y85537D01*
X385013Y86168D01*
X385644Y86991D01*
X386040Y87949D01*
X386176Y88976D01*
Y90551D01*
X386040Y91579D01*
X385644Y92537D01*
X385013Y93359D01*
X384190Y93990D01*
X383232Y94387D01*
X382205Y94522D01*
D02*
G37*
G36*
X373386Y82309D02*
Y79134D01*
X375935D01*
X375858Y79719D01*
X375480Y80631D01*
X374879Y81414D01*
X374096Y82015D01*
X373386Y82309D01*
D02*
G37*
G36*
X371024Y82310D02*
X370314Y82015D01*
X369531Y81414D01*
X368929Y80631D01*
X368552Y79719D01*
X368475Y79134D01*
X371024D01*
Y82310D01*
D02*
G37*
G36*
X375935Y76772D02*
X373386D01*
Y73596D01*
X374096Y73890D01*
X374879Y74491D01*
X375480Y75274D01*
X375858Y76187D01*
X375935Y76772D01*
D02*
G37*
G36*
X371024D02*
X368475D01*
X368552Y76187D01*
X368929Y75274D01*
X369531Y74491D01*
X370314Y73890D01*
X371024Y73596D01*
Y76772D01*
D02*
G37*
G36*
X382205Y82711D02*
X381177Y82576D01*
X380219Y82179D01*
X379397Y81548D01*
X378766Y80726D01*
X378369Y79768D01*
X378234Y78740D01*
Y77165D01*
X378369Y76138D01*
X378766Y75180D01*
X379397Y74357D01*
X380219Y73726D01*
X381177Y73330D01*
X382205Y73194D01*
X383232Y73330D01*
X384190Y73726D01*
X385013Y74357D01*
X385644Y75180D01*
X386040Y76138D01*
X386176Y77165D01*
Y78740D01*
X386040Y79768D01*
X385644Y80726D01*
X385013Y81548D01*
X384190Y82179D01*
X383232Y82576D01*
X382205Y82711D01*
D02*
G37*
G36*
X373386Y70498D02*
Y67323D01*
X375935D01*
X375858Y67908D01*
X375480Y68820D01*
X374879Y69603D01*
X374096Y70204D01*
X373386Y70498D01*
D02*
G37*
G36*
X371024Y70499D02*
X370314Y70204D01*
X369531Y69603D01*
X368929Y68820D01*
X368552Y67908D01*
X368475Y67323D01*
X371024D01*
Y70499D01*
D02*
G37*
G36*
X375935Y64961D02*
X373386D01*
Y61785D01*
X374096Y62079D01*
X374879Y62680D01*
X375480Y63463D01*
X375858Y64376D01*
X375935Y64961D01*
D02*
G37*
G36*
X371024D02*
X368475D01*
X368552Y64376D01*
X368929Y63463D01*
X369531Y62680D01*
X370314Y62079D01*
X371024Y61785D01*
Y64961D01*
D02*
G37*
G36*
X382205Y70900D02*
X381177Y70765D01*
X380219Y70368D01*
X379397Y69737D01*
X378766Y68915D01*
X378369Y67957D01*
X378234Y66929D01*
Y65354D01*
X378369Y64327D01*
X378766Y63369D01*
X379397Y62546D01*
X380219Y61915D01*
X381177Y61519D01*
X382205Y61383D01*
X383232Y61519D01*
X384190Y61915D01*
X385013Y62546D01*
X385644Y63369D01*
X386040Y64327D01*
X386176Y65354D01*
Y66929D01*
X386040Y67957D01*
X385644Y68915D01*
X385013Y69737D01*
X384190Y70368D01*
X383232Y70765D01*
X382205Y70900D01*
D02*
G37*
G36*
X373386Y58687D02*
Y55512D01*
X375935D01*
X375858Y56097D01*
X375480Y57009D01*
X374879Y57792D01*
X374096Y58393D01*
X373386Y58687D01*
D02*
G37*
G36*
X371024Y58688D02*
X370314Y58393D01*
X369531Y57792D01*
X368929Y57009D01*
X368552Y56097D01*
X368475Y55512D01*
X371024D01*
Y58688D01*
D02*
G37*
G36*
X375935Y53149D02*
X373386D01*
Y49974D01*
X374096Y50268D01*
X374879Y50869D01*
X375480Y51652D01*
X375858Y52565D01*
X375935Y53149D01*
D02*
G37*
G36*
X371024D02*
X368475D01*
X368552Y52565D01*
X368929Y51652D01*
X369531Y50869D01*
X370314Y50268D01*
X371024Y49974D01*
Y53149D01*
D02*
G37*
G36*
X382205Y59089D02*
X381177Y58954D01*
X380219Y58557D01*
X379397Y57926D01*
X378766Y57104D01*
X378369Y56146D01*
X378234Y55118D01*
Y53543D01*
X378369Y52516D01*
X378766Y51558D01*
X379397Y50735D01*
X380219Y50104D01*
X381177Y49708D01*
X382205Y49572D01*
X383232Y49708D01*
X384190Y50104D01*
X385013Y50735D01*
X385644Y51558D01*
X386040Y52516D01*
X386176Y53543D01*
Y55118D01*
X386040Y56146D01*
X385644Y57104D01*
X385013Y57926D01*
X384190Y58557D01*
X383232Y58954D01*
X382205Y59089D01*
D02*
G37*
G36*
X313386Y39407D02*
X312255Y39259D01*
X311202Y38822D01*
X310297Y38128D01*
X309603Y37223D01*
X309167Y36170D01*
X309018Y35039D01*
X309167Y33909D01*
X309603Y32855D01*
X310297Y31951D01*
X311202Y31256D01*
X312255Y30820D01*
X313386Y30671D01*
X314516Y30820D01*
X315570Y31256D01*
X316475Y31951D01*
X317169Y32855D01*
X317605Y33909D01*
X317754Y35039D01*
X317605Y36170D01*
X317169Y37223D01*
X316475Y38128D01*
X315570Y38822D01*
X314516Y39259D01*
X313386Y39407D01*
D02*
G37*
G36*
X314567Y19350D02*
Y16535D01*
X317381D01*
X317005Y17444D01*
X316341Y18309D01*
X315475Y18973D01*
X314567Y19350D01*
D02*
G37*
G36*
X312205Y19350D02*
X311296Y18973D01*
X310431Y18309D01*
X309767Y17444D01*
X309390Y16535D01*
X312205D01*
Y19350D01*
D02*
G37*
G36*
X377953Y18560D02*
X377225Y18464D01*
X376547Y18183D01*
X375965Y17736D01*
X375518Y17154D01*
X375237Y16476D01*
X375141Y15748D01*
X375237Y15020D01*
X375518Y14342D01*
X375965Y13760D01*
X376547Y13313D01*
X377225Y13032D01*
X377953Y12937D01*
X378680Y13032D01*
X379359Y13313D01*
X379941Y13760D01*
X380388Y14342D01*
X380668Y15020D01*
X380764Y15748D01*
X380668Y16476D01*
X380388Y17154D01*
X379941Y17736D01*
X379359Y18183D01*
X378680Y18464D01*
X377953Y18560D01*
D02*
G37*
G36*
X277165Y24262D02*
X275675Y24066D01*
X274286Y23490D01*
X273094Y22575D01*
X272179Y21383D01*
X271604Y19994D01*
X271407Y18504D01*
X271604Y17014D01*
X272179Y15625D01*
X273094Y14433D01*
X274286Y13517D01*
X275675Y12942D01*
X277165Y12746D01*
X278656Y12942D01*
X280044Y13517D01*
X281237Y14433D01*
X282152Y15625D01*
X282727Y17014D01*
X282923Y18504D01*
X282727Y19994D01*
X282152Y21383D01*
X281237Y22575D01*
X280044Y23490D01*
X278656Y24066D01*
X277165Y24262D01*
D02*
G37*
G36*
X312205Y14173D02*
X309390D01*
X309767Y13265D01*
X310431Y12399D01*
X311296Y11735D01*
X312205Y11359D01*
Y14173D01*
D02*
G37*
G36*
X317381D02*
X314567D01*
Y11359D01*
X315475Y11735D01*
X316341Y12399D01*
X317005Y13265D01*
X317381Y14173D01*
D02*
G37*
G36*
X15748Y18560D02*
X15020Y18464D01*
X14342Y18183D01*
X13760Y17736D01*
X13313Y17154D01*
X13032Y16476D01*
X12937Y15748D01*
X13032Y15020D01*
X13313Y14342D01*
X13760Y13760D01*
X14342Y13313D01*
X15020Y13032D01*
X15748Y12937D01*
X16476Y13032D01*
X17154Y13313D01*
X17736Y13760D01*
X18183Y14342D01*
X18464Y15020D01*
X18560Y15748D01*
X18464Y16476D01*
X18183Y17154D01*
X17736Y17736D01*
X17154Y18183D01*
X16476Y18464D01*
X15748Y18560D01*
D02*
G37*
%LPD*%
D10*
X56693Y165541D02*
D03*
Y160541D02*
D03*
Y155541D02*
D03*
Y150541D02*
D03*
X77953Y165541D02*
D03*
Y160541D02*
D03*
Y155541D02*
D03*
Y140581D02*
D03*
Y145581D02*
D03*
Y150581D02*
D03*
X56693Y140581D02*
D03*
Y145581D02*
D03*
X77953Y130522D02*
D03*
Y135522D02*
D03*
X56693Y130522D02*
D03*
Y135522D02*
D03*
D11*
X8268Y174016D02*
D03*
Y180315D02*
D03*
D12*
Y165945D02*
D03*
Y158465D02*
D03*
X111811Y37598D02*
D03*
Y45079D02*
D03*
X26378Y80905D02*
D03*
Y88386D02*
D03*
Y87992D02*
D03*
Y95472D02*
D03*
X80315Y275394D02*
D03*
Y267913D02*
D03*
X147638Y267520D02*
D03*
Y260039D02*
D03*
X33858Y267913D02*
D03*
Y275394D02*
D03*
X99213Y267913D02*
D03*
Y275394D02*
D03*
X50394Y200591D02*
D03*
Y208071D02*
D03*
Y195079D02*
D03*
Y187598D02*
D03*
X216831Y136221D02*
D03*
Y128740D02*
D03*
X164173Y145866D02*
D03*
Y153347D02*
D03*
X267717Y256102D02*
D03*
Y263583D02*
D03*
X287402Y256102D02*
D03*
Y263583D02*
D03*
X307087Y256102D02*
D03*
Y263583D02*
D03*
X326772Y256102D02*
D03*
Y263583D02*
D03*
X346457Y256102D02*
D03*
Y263583D02*
D03*
X366142Y256102D02*
D03*
Y263583D02*
D03*
X271654Y148228D02*
D03*
Y155709D02*
D03*
X262992Y148228D02*
D03*
Y155709D02*
D03*
X298425Y126969D02*
D03*
Y134449D02*
D03*
D13*
X34400Y130447D02*
D03*
Y136353D02*
D03*
D14*
X27461Y144488D02*
D03*
X33366D02*
D03*
D15*
X56102Y113386D02*
D03*
X63583D02*
D03*
X78543D02*
D03*
X71063D02*
D03*
X86811Y172835D02*
D03*
X79331D02*
D03*
X40748Y153543D02*
D03*
X48228D02*
D03*
X63976Y172835D02*
D03*
X71457D02*
D03*
X33268Y153543D02*
D03*
X25787D02*
D03*
X102559Y232677D02*
D03*
X95079D02*
D03*
X18307Y217717D02*
D03*
X25787D02*
D03*
X314370Y125984D02*
D03*
X306890D02*
D03*
X314370Y134252D02*
D03*
X306890D02*
D03*
D16*
X48622Y98425D02*
D03*
X86024D02*
D03*
D17*
X63583Y122047D02*
D03*
X71063D02*
D03*
X42160Y138200D02*
D03*
X49640D02*
D03*
X42060Y145900D02*
D03*
X49540D02*
D03*
X26575Y122441D02*
D03*
X34055D02*
D03*
X185630Y272441D02*
D03*
X193110D02*
D03*
X185630Y263779D02*
D03*
X193110D02*
D03*
X159634Y75561D02*
D03*
X152154D02*
D03*
X159694Y66745D02*
D03*
X152213D02*
D03*
X159634Y88189D02*
D03*
X152154D02*
D03*
X159634Y96850D02*
D03*
X152154D02*
D03*
X340748Y128347D02*
D03*
X348228D02*
D03*
X340748Y140157D02*
D03*
X348229D02*
D03*
X340748Y77953D02*
D03*
X348228D02*
D03*
X340748Y89764D02*
D03*
X348229D02*
D03*
X340748Y104724D02*
D03*
X348229D02*
D03*
X340748Y116535D02*
D03*
X348228D02*
D03*
X340748Y54331D02*
D03*
X348228D02*
D03*
X340748Y66142D02*
D03*
X348228D02*
D03*
X340748Y229134D02*
D03*
X348228D02*
D03*
X340748Y240945D02*
D03*
X348228D02*
D03*
X340748Y205512D02*
D03*
X348228D02*
D03*
X340748Y217323D02*
D03*
X348229D02*
D03*
X340748Y178740D02*
D03*
X348229D02*
D03*
X340748Y190551D02*
D03*
X348228D02*
D03*
X340748Y155118D02*
D03*
X348229D02*
D03*
X340748Y166929D02*
D03*
X348228D02*
D03*
D18*
X87402Y156890D02*
D03*
Y164370D02*
D03*
X96063Y156890D02*
D03*
Y164370D02*
D03*
X104724Y156890D02*
D03*
Y164370D02*
D03*
X87402Y149016D02*
D03*
Y141535D02*
D03*
X59449Y195472D02*
D03*
Y187992D02*
D03*
X237858Y273031D02*
D03*
Y280512D02*
D03*
X229984Y273031D02*
D03*
Y280512D02*
D03*
X245732Y273031D02*
D03*
Y280512D02*
D03*
X89900Y275440D02*
D03*
Y267960D02*
D03*
X156299Y267520D02*
D03*
Y260039D02*
D03*
X50394Y222244D02*
D03*
Y214764D02*
D03*
X120472Y36811D02*
D03*
Y44291D02*
D03*
X148819Y37205D02*
D03*
Y44685D02*
D03*
X140157Y37205D02*
D03*
Y44685D02*
D03*
X157480Y37205D02*
D03*
Y44685D02*
D03*
X225590Y143110D02*
D03*
Y135630D02*
D03*
Y121457D02*
D03*
Y128937D02*
D03*
X164173Y123425D02*
D03*
Y115945D02*
D03*
X155512Y131299D02*
D03*
Y123819D02*
D03*
X164173Y130905D02*
D03*
Y138386D02*
D03*
X146949Y123819D02*
D03*
Y131299D02*
D03*
X225590Y106890D02*
D03*
Y114370D02*
D03*
X216929Y114764D02*
D03*
Y122244D02*
D03*
Y100197D02*
D03*
Y107677D02*
D03*
X229921Y264370D02*
D03*
Y256890D02*
D03*
X238976Y264370D02*
D03*
Y256890D02*
D03*
X247638Y264370D02*
D03*
Y256890D02*
D03*
X290158Y134055D02*
D03*
Y126575D02*
D03*
X323228Y125394D02*
D03*
Y132874D02*
D03*
D19*
X99606Y33465D02*
D03*
X93307D02*
D03*
X178740Y271260D02*
D03*
X172441D02*
D03*
X178740Y264961D02*
D03*
X172441D02*
D03*
X167044Y75561D02*
D03*
X173343D02*
D03*
X167044Y66745D02*
D03*
X173343D02*
D03*
D20*
X27165Y63189D02*
D03*
Y47047D02*
D03*
X83465Y63976D02*
D03*
Y47835D02*
D03*
D21*
X240158Y151378D02*
D03*
Y113976D02*
D03*
D22*
X201024Y105591D02*
D03*
X197874D02*
D03*
X194724D02*
D03*
X191575D02*
D03*
X188425D02*
D03*
X185276D02*
D03*
X182126D02*
D03*
X178976D02*
D03*
X178976Y141024D02*
D03*
X182126D02*
D03*
X185276D02*
D03*
X188425D02*
D03*
X191575D02*
D03*
X194724D02*
D03*
X197874D02*
D03*
X201024D02*
D03*
D23*
X172480Y112283D02*
D03*
Y115433D02*
D03*
Y118583D02*
D03*
Y121732D02*
D03*
Y124882D02*
D03*
Y128032D02*
D03*
Y131181D02*
D03*
Y134331D02*
D03*
X207716D02*
D03*
Y131181D02*
D03*
Y128032D02*
D03*
Y124882D02*
D03*
Y121732D02*
D03*
Y118583D02*
D03*
Y115433D02*
D03*
Y112283D02*
D03*
D24*
X379921Y279528D02*
D03*
X377953Y15748D02*
D03*
X15748D02*
D03*
Y271654D02*
D03*
D25*
X282185Y142323D02*
D03*
X284744D02*
D03*
X287303D02*
D03*
X289862D02*
D03*
X292421D02*
D03*
X294980D02*
D03*
X297539D02*
D03*
X300098D02*
D03*
X302658D02*
D03*
X305217D02*
D03*
X307776D02*
D03*
X310335D02*
D03*
X312894D02*
D03*
X315453D02*
D03*
X282185Y166339D02*
D03*
X284744D02*
D03*
X287303D02*
D03*
X289862D02*
D03*
X292421D02*
D03*
X294980D02*
D03*
X297539D02*
D03*
X300098D02*
D03*
X302658D02*
D03*
X305217D02*
D03*
X307776D02*
D03*
X310335D02*
D03*
X312894D02*
D03*
X315453D02*
D03*
D26*
X48425Y76378D02*
D03*
X61024D02*
D03*
D27*
X42913Y162992D02*
D03*
Y172047D02*
D03*
Y181102D02*
D03*
D28*
X18504Y172047D02*
D03*
D29*
X219311Y276378D02*
D03*
X214311D02*
D03*
X209311D02*
D03*
X204311D02*
D03*
X219311Y255118D02*
D03*
X214311D02*
D03*
X209311D02*
D03*
X204311D02*
D03*
D30*
X19587Y133169D02*
D03*
Y135728D02*
D03*
Y138287D02*
D03*
Y140847D02*
D03*
Y143405D02*
D03*
D31*
X305217Y143307D02*
Y151883D01*
X298327Y158773D02*
X305217Y151883D01*
X298327Y158773D02*
Y161713D01*
X307882Y155118D02*
X340748D01*
X302658Y160343D02*
X307882Y155118D01*
X302658Y160343D02*
Y166339D01*
X315453Y169390D02*
X318898Y172835D01*
X315453Y166339D02*
Y169390D01*
X314961Y172361D02*
Y173228D01*
X312992Y170392D02*
X314961Y172361D01*
X312992Y168259D02*
Y170392D01*
X311024Y171424D02*
Y173228D01*
X310335Y170735D02*
X311024Y171424D01*
X310335Y166339D02*
Y170735D01*
X305217Y166339D02*
Y170283D01*
X303150Y172350D02*
X305217Y170283D01*
X303150Y172350D02*
Y173228D01*
X307776Y166339D02*
Y170824D01*
X307087Y171513D02*
X307776Y170824D01*
X307087Y171513D02*
Y173228D01*
X273717Y263583D02*
X277000Y260300D01*
Y255900D02*
Y260300D01*
Y255900D02*
X299213Y233687D01*
Y191437D02*
Y233687D01*
X303150Y191437D02*
Y251969D01*
X291535Y263583D02*
X303150Y251969D01*
X267717Y263583D02*
X273717D01*
X333651Y190551D02*
X340748D01*
X323120Y180020D02*
X333651Y190551D01*
X299944Y180020D02*
X323120D01*
X307087Y237992D02*
X314173Y245079D01*
X307087Y191437D02*
Y237992D01*
X329300Y212961D02*
X333661Y217323D01*
X329300Y192039D02*
Y212961D01*
X321217Y183957D02*
X329300Y192039D01*
X325900Y223341D02*
X331693Y229134D01*
X325900Y191423D02*
Y223341D01*
X320402Y185925D02*
X325900Y191423D01*
X226378Y74803D02*
X240000Y61181D01*
Y53307D02*
Y61181D01*
X264361Y49400D02*
X279528Y64567D01*
X253907Y49400D02*
X264361D01*
X250000Y53307D02*
X253907Y49400D01*
X28917Y135728D02*
X30413Y134232D01*
X19587Y135728D02*
X28917D01*
X30413Y127067D02*
Y134232D01*
X45340Y228740D02*
X72835D01*
X29986Y213386D02*
X45340Y228740D01*
X14173Y213386D02*
X29986D01*
X51154Y259646D02*
X85264D01*
X91957Y252953D01*
X104354D01*
X31693Y262795D02*
X86753D01*
X38583Y232677D02*
X41003Y235097D01*
Y249494D01*
X51154Y259646D01*
X51807Y261221D02*
X86101D01*
X46260D02*
X51807D01*
X86101D02*
X92400Y254921D01*
X31890Y246850D02*
X46260Y261221D01*
X86753Y262795D02*
X92659Y256890D01*
X16929Y248031D02*
X31693Y262795D01*
X31890Y237795D02*
Y246850D01*
X16929Y232756D02*
Y248031D01*
X92400Y254921D02*
X112386D01*
X92659Y256890D02*
X120417D01*
X274016Y89764D02*
X283465Y80315D01*
Y62992D02*
Y80315D01*
X266535Y46063D02*
X283465Y62992D01*
X247244Y46063D02*
X266535D01*
X230000Y53307D02*
Y61339D01*
X220472Y70866D02*
X230000Y61339D01*
X209449Y70866D02*
X220472D01*
X249055Y53307D02*
Y58031D01*
X228346Y78740D02*
X249055Y58031D01*
X208268Y78740D02*
X228346D01*
X216535Y66929D02*
X220000Y63465D01*
X209055Y66929D02*
X216535D01*
X178976Y97008D02*
X209055Y66929D01*
X220000Y53307D02*
Y63465D01*
X182126Y98189D02*
X209449Y70866D01*
X209083Y74803D02*
X226378D01*
X185276Y98611D02*
X209083Y74803D01*
X188425Y98583D02*
X208268Y78740D01*
X220866Y232677D02*
X230709D01*
X204724Y216535D02*
X220866Y232677D01*
X204724Y139469D02*
Y216535D01*
X208661Y212205D02*
X224410Y227953D01*
X208661Y140551D02*
Y212205D01*
X197874Y129764D02*
X208661Y140551D01*
X194724Y129469D02*
X204724Y139469D01*
X197874Y141024D02*
Y211575D01*
X190000Y219449D02*
X197874Y211575D01*
X190000Y219449D02*
Y243307D01*
X188425Y141024D02*
Y181654D01*
X154000Y216079D02*
X188425Y181654D01*
X154000Y216079D02*
Y243307D01*
X194724Y141024D02*
Y202913D01*
X180000Y217638D02*
X194724Y202913D01*
X180000Y217638D02*
Y243307D01*
X191575Y141024D02*
Y190315D01*
X164000Y217890D02*
X191575Y190315D01*
X164000Y217890D02*
Y243307D01*
X185276Y141024D02*
Y172992D01*
X144000Y214268D02*
X185276Y172992D01*
X144000Y214268D02*
Y243307D01*
X182126Y141024D02*
Y164331D01*
X134000Y212457D02*
X182126Y164331D01*
X134000Y212457D02*
Y243307D01*
X178976Y141024D02*
Y157638D01*
X124000Y212614D02*
X178976Y157638D01*
X124000Y212614D02*
Y243307D01*
X274016Y89764D02*
Y107406D01*
X170158Y115433D02*
X172480D01*
X167323Y112598D02*
X170158Y115433D01*
X133802Y94882D02*
X135827D01*
X134618Y96850D02*
X152154D01*
X105484Y125984D02*
X134618Y96850D01*
X105062Y123622D02*
X133802Y94882D01*
X75374Y123622D02*
X105062D01*
X75796Y125984D02*
X105484D01*
X130315Y103937D02*
X155905D01*
X100787Y133465D02*
X130315Y103937D01*
X91043Y133465D02*
X100787D01*
X135827Y94882D02*
X142520Y88189D01*
X152154D01*
X168110Y96850D02*
X178347Y86614D01*
Y71748D02*
Y86614D01*
X173343Y66745D02*
X178347Y71748D01*
X210000Y53307D02*
Y62047D01*
X176378Y95669D02*
X210000Y62047D01*
X178976Y97008D02*
Y105591D01*
X182126Y98189D02*
Y105591D01*
X176378Y95669D02*
Y111024D01*
X185276Y98611D02*
Y105591D01*
X188425Y98583D02*
Y105591D01*
X254331Y251575D02*
X257480Y248425D01*
Y234646D02*
Y248425D01*
X240945Y218110D02*
X257480Y234646D01*
X237767Y251575D02*
X254331D01*
X230000Y243808D02*
X237767Y251575D01*
X230000Y243307D02*
Y243808D01*
X238189Y249213D02*
X245669D01*
X235039Y246063D02*
X238189Y249213D01*
X235039Y237008D02*
Y246063D01*
X76881Y210520D02*
X110236Y177165D01*
X76881Y210520D02*
Y224694D01*
X72638Y214764D02*
X76881Y210520D01*
X87402Y141535D02*
X96063D01*
X101378Y146850D01*
X110236D01*
X155905Y103937D02*
X156693Y103150D01*
Y61417D02*
Y103150D01*
Y61417D02*
X159488Y58622D01*
X165354Y43307D02*
Y55143D01*
X162598Y40551D02*
X165354Y43307D01*
X135039Y40551D02*
X162598D01*
X26575Y123228D02*
X30413Y127067D01*
X333612Y193568D02*
Y203297D01*
X299129Y181988D02*
X322033D01*
X298313Y183957D02*
X321217D01*
X297498Y185925D02*
X320402D01*
X322033Y181988D02*
X333612Y193568D01*
X322301Y190608D02*
Y226533D01*
X319587Y187894D02*
X322301Y190608D01*
X296683Y187894D02*
X319587D01*
X285531Y111417D02*
X285728D01*
X282874Y108760D02*
X285531Y111417D01*
X282874Y100787D02*
Y108760D01*
Y100787D02*
X305709Y77953D01*
X63259Y160541D02*
X71653Y152147D01*
X56693Y160541D02*
X63259D01*
X71063Y122047D02*
Y123641D01*
X63297Y135522D02*
X66240Y132579D01*
Y128463D02*
Y132579D01*
Y128463D02*
X71063Y123641D01*
X61998Y130522D02*
X63779Y128740D01*
X65325Y155541D02*
X68799Y152067D01*
Y130197D02*
Y152067D01*
Y130197D02*
X75374Y123622D01*
X194724Y105591D02*
Y129469D01*
X284744Y137795D02*
Y142323D01*
X213799Y97047D02*
X242464D01*
X210039Y95079D02*
X243279D01*
X208071Y93110D02*
X244094D01*
X212205Y98642D02*
X213799Y97047D01*
X242464D02*
X248031Y102615D01*
X203543Y101575D02*
X210039Y95079D01*
X243279D02*
X250197Y101997D01*
X201024Y100157D02*
X208071Y93110D01*
X244094D02*
X252264Y101279D01*
X248031Y102615D02*
Y160236D01*
X340354Y128347D02*
X340748D01*
X326476Y114173D02*
X335925Y104724D01*
X280118Y93996D02*
Y111614D01*
Y93996D02*
X307972Y66142D01*
X305709Y77953D02*
X340748D01*
X301181Y89764D02*
X340748D01*
X285728Y105217D02*
X301181Y89764D01*
X307972Y66142D02*
X340748D01*
X314173Y54331D02*
X340748D01*
X340354Y116142D02*
X340748Y116535D01*
X279528Y64567D02*
Y79893D01*
X335925Y104724D02*
X340748D01*
X286221Y148819D02*
X289862Y145177D01*
Y142323D02*
Y145177D01*
X284426Y146184D02*
X285489D01*
X282480Y148130D02*
X284426Y146184D01*
X287303Y142323D02*
Y144370D01*
X285489Y146184D02*
X287303Y144370D01*
X290354Y148130D02*
X292421Y146063D01*
Y142323D02*
Y146063D01*
X294291Y148130D02*
X294980Y147441D01*
Y142323D02*
Y147441D01*
X297539Y147441D02*
X298228Y148130D01*
X297539Y142323D02*
Y147441D01*
X301378Y146161D02*
Y148130D01*
X300098Y144882D02*
X301378Y146161D01*
X300098Y142323D02*
Y144882D01*
X298031Y134055D02*
X298425Y134449D01*
X290158Y134055D02*
X298031D01*
X298425Y134449D02*
X302658Y138681D01*
Y142323D01*
X271654Y148228D02*
Y151969D01*
X312894Y148228D02*
X312894Y148228D01*
Y142323D02*
Y148228D01*
X308957Y148031D02*
X310335Y146653D01*
Y142323D02*
Y146653D01*
X340059Y178051D02*
X340748Y178740D01*
X300759Y178051D02*
X340059D01*
X318701Y191043D02*
Y229823D01*
X314961Y191437D02*
Y232480D01*
X311024Y191437D02*
Y235039D01*
X322301Y226533D02*
X336713Y240945D01*
X318701Y229823D02*
X337697Y248819D01*
X314961Y232480D02*
X338779Y256299D01*
X311024Y235039D02*
X318504Y242520D01*
X333612Y203297D02*
X335827Y205512D01*
X340748D01*
X333661Y217323D02*
X340748D01*
X331693Y229134D02*
X340748D01*
X336713Y240945D02*
X340748D01*
X314173Y245079D02*
Y261614D01*
X297539Y166339D02*
Y174831D01*
X294980Y166339D02*
Y175056D01*
X292421Y166339D02*
Y175281D01*
X289862Y166339D02*
Y175505D01*
X287303Y166339D02*
Y175730D01*
X284744Y166339D02*
Y175955D01*
X337697Y248819D02*
X347736D01*
X338779Y256299D02*
Y259154D01*
X318504Y242520D02*
Y258760D01*
X287402Y263583D02*
X291535D01*
X307087D02*
X312205D01*
X314173Y261614D01*
X323327Y263583D02*
X326772D01*
X318504Y258760D02*
X323327Y263583D01*
X343209D02*
X346457D01*
X338779Y259154D02*
X343209Y263583D01*
X347736Y248819D02*
X362500Y263583D01*
X366142D01*
X289862Y175505D02*
X298313Y183957D01*
X292421Y175281D02*
X299129Y181988D01*
X294980Y175056D02*
X299944Y180020D01*
X297539Y174831D02*
X300759Y178051D01*
X301575Y176083D02*
X323524D01*
X300098Y174606D02*
X301575Y176083D01*
X312894Y168161D02*
X312992Y168259D01*
X312894Y166339D02*
Y168161D01*
X284744Y175955D02*
X296683Y187894D01*
X287303Y175730D02*
X297498Y185925D01*
X300098Y166339D02*
Y174606D01*
X323524Y176083D02*
X332677Y166929D01*
X191575Y112835D02*
X191732Y112992D01*
X191575Y105591D02*
Y112835D01*
X194724Y100630D02*
Y105591D01*
X194488Y100394D02*
X194724Y100630D01*
X197874Y97795D02*
Y105591D01*
Y97795D02*
X198031Y97638D01*
X159634Y88189D02*
X164949D01*
X172480Y112283D02*
X175118D01*
X240000Y53307D02*
X247244Y46063D01*
X201024Y100157D02*
Y105591D01*
X203543Y101575D02*
Y111417D01*
X204409Y112283D01*
X207716D01*
Y115433D02*
X210945D01*
X212205Y114173D01*
X16929Y232756D02*
X21890Y227795D01*
Y237795D02*
X27008Y232677D01*
X38583D01*
X63583Y123228D02*
X63779Y123425D01*
X71063Y113386D02*
X86024Y98425D01*
X48622D02*
X63583Y113386D01*
Y114567D02*
Y122835D01*
X71063Y114567D02*
Y122835D01*
X56693Y135522D02*
X63297D01*
X56693Y130522D02*
X61998D01*
X63779Y123425D02*
Y128740D01*
X56693Y155541D02*
X65325D01*
X212205Y98642D02*
Y114173D01*
X250000Y243307D02*
Y244882D01*
X245669Y249213D02*
X250000Y244882D01*
X71653Y130126D02*
Y152147D01*
Y130126D02*
X75796Y125984D01*
X26575Y122441D02*
Y123228D01*
X130000Y45591D02*
Y53307D01*
Y45591D02*
X135039Y40551D01*
X161875Y58622D02*
X165354Y55143D01*
X159488Y58622D02*
X161875D01*
X159634Y96850D02*
X165343D01*
X164949Y88189D02*
X170079Y83059D01*
Y78826D02*
Y83059D01*
Y78826D02*
X173343Y75561D01*
X175118Y112283D02*
X176378Y111024D01*
X84000Y220590D02*
X144595Y159996D01*
Y159964D02*
Y159996D01*
X114000Y212772D02*
Y243307D01*
X197874Y105591D02*
Y129764D01*
X185276Y105591D02*
Y126732D01*
X188425Y105591D02*
Y126366D01*
X176713Y138079D02*
X188425Y126366D01*
X174744Y137264D02*
X185276Y126732D01*
X172480Y134331D02*
X172776Y134626D01*
X84000Y220590D02*
Y243307D01*
X88976Y220866D02*
X159252Y150591D01*
X88976Y220866D02*
Y246457D01*
X87402Y137106D02*
X91043Y133465D01*
X87402Y137106D02*
Y141535D01*
X50394Y208071D02*
Y214764D01*
X5906Y221654D02*
Y231811D01*
Y221654D02*
X14173Y213386D01*
X72835Y228740D02*
X76881Y224694D01*
X5906Y231811D02*
X11890Y237795D01*
X50394Y214764D02*
X72638D01*
X65720Y218082D02*
X70866Y223228D01*
X35827Y209449D02*
Y213386D01*
X40523Y218082D01*
X65720D01*
X50394Y195079D02*
Y200591D01*
X44685D02*
X50394D01*
X35827Y209449D02*
X44685Y200591D01*
X10236Y209449D02*
X35827D01*
X144595Y159964D02*
X155937Y148622D01*
X168701D01*
X159252Y150591D02*
X169823D01*
X164000Y145866D02*
X167913D01*
X172776Y134626D02*
Y141004D01*
X167913Y145866D02*
X172776Y141004D01*
X174744Y137264D02*
Y142579D01*
X168701Y148622D02*
X174744Y142579D01*
X176713Y138079D02*
Y143701D01*
X169823Y150591D02*
X176713Y143701D01*
X164173Y153347D02*
Y162598D01*
X200000Y243307D02*
X201024Y242284D01*
Y141024D02*
Y242284D01*
X114000Y212772D02*
X164173Y162598D01*
X244862Y163583D02*
X245669Y162776D01*
Y162598D02*
Y162776D01*
Y162598D02*
X248031Y160236D01*
X230709Y232677D02*
X235039Y237008D01*
X240000Y233307D02*
Y243307D01*
X224410Y227953D02*
X234646D01*
X240000Y233307D01*
X165343Y96850D02*
X168110D01*
X167323Y100787D02*
Y112598D01*
Y100787D02*
X200000Y68110D01*
Y53307D02*
Y68110D01*
X184449Y271260D02*
X185630Y272441D01*
X178740Y271260D02*
X184449D01*
X178740Y264961D02*
X184449D01*
X185630Y263779D01*
X134709Y262598D02*
X154000Y243307D01*
X131890Y250394D02*
X137402D01*
X89900Y264824D02*
Y267960D01*
X89854Y267913D02*
X89900Y267960D01*
X80315Y267913D02*
X89854D01*
X77362Y275394D02*
X80315D01*
X69685Y267717D02*
X77362Y275394D01*
X44094Y267717D02*
X69685D01*
X34055D02*
X44094D01*
X33858Y267913D02*
X34055Y267717D01*
X147638Y260039D02*
X156299D01*
X267717Y263583D02*
Y273465D01*
X287402Y263583D02*
Y273465D01*
X307087Y263583D02*
Y273465D01*
X346457Y263583D02*
Y273465D01*
X326772Y263583D02*
Y273465D01*
X366142Y263583D02*
Y273465D01*
X332677Y166929D02*
X340748D01*
X74000Y243307D02*
X79315Y248622D01*
X86811D01*
X88976Y246457D01*
X134252Y267717D02*
X147441D01*
X145079Y267520D02*
X147638D01*
X203150Y250394D02*
X204311Y251555D01*
Y255118D01*
X209311D02*
Y259193D01*
X204724Y263779D02*
X209311Y259193D01*
X193110Y263779D02*
X204724D01*
X209311Y255118D02*
X214311D01*
Y272185D02*
Y276378D01*
X212992Y270866D02*
X214311Y272185D01*
X194685Y270866D02*
X212992D01*
X193110Y272441D02*
X194685Y270866D01*
X214311Y276378D02*
X219311D01*
X209311D02*
Y279665D01*
X208661Y280315D02*
X209311Y279665D01*
X200787Y280315D02*
X208661D01*
X196850Y276378D02*
X200787Y280315D01*
X162795Y273031D02*
X166142Y276378D01*
X131299Y273031D02*
X162795D01*
X166142Y276378D02*
X196850D01*
X129134Y270866D02*
X131299Y273031D01*
X129134Y264567D02*
Y270866D01*
Y264567D02*
X131102Y262598D01*
X134709D01*
X104354Y252953D02*
X114000Y243307D01*
X112386Y254921D02*
X124000Y243307D01*
X120417Y256890D02*
X134000Y243307D01*
X89900Y264824D02*
X95669Y259055D01*
X123228D01*
X131890Y250394D01*
X99213Y267913D02*
X108465D01*
X108661Y267717D01*
X262992Y146457D02*
Y148228D01*
X263386Y148819D02*
Y152264D01*
X269193Y122244D02*
X284744Y137795D01*
X278919Y114173D02*
X279017Y114272D01*
X281219D01*
X281317Y114173D01*
X282034Y116240D02*
X282133Y116142D01*
X278202Y116240D02*
X282034D01*
X278104Y116142D02*
X278202Y116240D01*
X270033Y114173D02*
X278919D01*
X267224Y116981D02*
X270033Y114173D01*
X269193Y117797D02*
X270848Y116142D01*
X278104D01*
X265256Y116166D02*
X274016Y107406D01*
X276279Y92224D02*
X314173Y54331D01*
X276279Y92224D02*
Y111516D01*
X271654Y87767D02*
X279528Y79893D01*
X271654Y87767D02*
Y106985D01*
X263287Y115351D02*
X271654Y106985D01*
X262992Y146457D02*
X265354Y144095D01*
X269291Y145866D02*
X271654Y148228D01*
X265256Y123875D02*
X269291Y127910D01*
Y145866D01*
X263287Y124690D02*
X265354Y126757D01*
Y144095D01*
X263287Y115351D02*
Y124690D01*
X265256Y116166D02*
Y123875D01*
X269193Y117797D02*
Y122244D01*
X267224Y116981D02*
Y123059D01*
X282185Y138020D01*
Y142323D01*
X249055Y53307D02*
X250000D01*
X252264Y101279D02*
Y163681D01*
X244685Y163583D02*
X244862D01*
X250197Y101997D02*
Y162964D01*
X240945Y175000D02*
Y218110D01*
Y175000D02*
X252264Y163681D01*
X233858Y179303D02*
X250197Y162964D01*
X233858Y179303D02*
Y217323D01*
X226772Y224410D02*
X233858Y217323D01*
X226378Y181890D02*
X244685Y163583D01*
X226378Y181890D02*
Y214961D01*
X221654Y219685D02*
X226378Y214961D01*
X334252Y133661D02*
X340748Y140157D01*
X334252Y123228D02*
Y133661D01*
X336221Y122413D02*
Y124213D01*
X340354Y128347D01*
X281317Y114173D02*
X326476D01*
X282133Y116142D02*
X340354D01*
X332311Y118504D02*
X336221Y122413D01*
X271850Y118898D02*
X272244Y118504D01*
X331496Y120472D02*
X334252Y123228D01*
X274803Y121653D02*
X275984Y120472D01*
X272244Y118504D02*
X332311D01*
X275984Y120472D02*
X331496D01*
X156299Y260039D02*
X173031D01*
X180000Y253071D01*
Y243307D02*
Y253071D01*
X190000Y243307D02*
Y249055D01*
X191339Y250394D01*
X203150D01*
D32*
X34400Y127100D02*
Y130447D01*
X90226Y251900D02*
X94000Y248126D01*
X73554Y251900D02*
X90226D01*
X68900Y247247D02*
X73554Y251900D01*
X68900Y237793D02*
Y247247D01*
Y237793D02*
X79921Y226772D01*
X155512Y118504D02*
Y123819D01*
X164173Y110236D02*
Y115945D01*
X178661Y121732D02*
X178740Y121653D01*
X172480Y121732D02*
X178661D01*
X200394Y274410D02*
X202362Y276378D01*
X204311D01*
X27559Y147047D02*
X29134Y148622D01*
X27559Y145079D02*
Y147047D01*
X59055Y195866D02*
X65945D01*
X37008Y153543D02*
X40748D01*
X33268D02*
X37008D01*
X78543Y113386D02*
X85138D01*
X49508D02*
X56102D01*
X234449Y256890D02*
X238976D01*
X229921D02*
X234449D01*
Y252461D02*
Y256890D01*
X267717Y251673D02*
Y256102D01*
X287402Y251673D02*
Y256102D01*
X307087Y251673D02*
Y256102D01*
X326772Y251673D02*
Y256102D01*
X346457Y251673D02*
Y256102D01*
X366142Y251673D02*
Y256102D01*
X233957Y280512D02*
X237858D01*
X229984D02*
X233957D01*
Y277067D02*
Y280512D01*
X172441Y268012D02*
Y271260D01*
Y264961D02*
Y268012D01*
X166437D02*
X172441D01*
X158268Y267520D02*
X161614Y264173D01*
X156299Y267520D02*
X158268D01*
X88728Y275440D02*
X89900D01*
X50394Y222244D02*
X57185D01*
X86811Y172835D02*
X93504D01*
X96260Y151279D02*
Y156693D01*
X96063Y156890D02*
X96260Y156693D01*
X87402Y156890D02*
X96063D01*
X157874Y138484D02*
X157972Y138386D01*
X164173D01*
X225590Y143110D02*
Y148425D01*
X230906Y114370D02*
X231004Y114272D01*
X225590Y114370D02*
X230906D01*
X146949Y119587D02*
Y123819D01*
X294193Y130610D02*
X294587D01*
X290551Y126969D02*
X294193Y130610D01*
X290551Y126969D02*
X298425D01*
X306890Y125984D02*
Y130118D01*
X303248D02*
X306890D01*
Y134252D01*
X307776Y138583D02*
Y142323D01*
X306890Y137697D02*
X307776Y138583D01*
X306890Y134252D02*
Y137697D01*
X348228Y54331D02*
X362205D01*
X362205Y54331D01*
X348228Y66142D02*
X362205D01*
X362205Y66142D01*
X348228Y77953D02*
X350394D01*
X350394Y77953D01*
X362205D01*
X348229Y89764D02*
X362205D01*
X348229Y104724D02*
X362205D01*
X348228Y116535D02*
X362205D01*
X348228Y128347D02*
X362205D01*
X362205Y128347D01*
X348229Y140157D02*
X362205D01*
X348229Y155118D02*
X350394D01*
X350394Y155118D01*
X362205D01*
X348228Y166929D02*
X362205D01*
X362205Y166929D01*
X348229Y178740D02*
X362205D01*
X348228Y190551D02*
X350394D01*
X350394Y190551D01*
X362205D01*
X348228Y205512D02*
X350394D01*
X350394Y205512D01*
X362205D01*
X348229Y217323D02*
X362205D01*
X348228Y229134D02*
X350394D01*
X350394Y229134D01*
X362205D01*
X348228Y240945D02*
X362205D01*
X281496Y171260D02*
X282185Y170571D01*
Y166339D02*
Y170571D01*
X165630Y124882D02*
X172480D01*
X164173Y123425D02*
X165630Y124882D01*
X95079Y232677D02*
Y237992D01*
X94000Y239071D02*
X95079Y237992D01*
X94000Y239071D02*
Y243307D01*
X102559Y232677D02*
Y241866D01*
X104000Y243307D01*
X34055Y117520D02*
Y122441D01*
X51575Y168110D02*
X56299Y172835D01*
X63976D01*
X77953Y150581D02*
X85837D01*
X87402Y149016D01*
X78740Y172835D02*
X79331D01*
X74016Y168110D02*
X78740Y172835D01*
X65748Y168110D02*
X74016D01*
X63976Y169882D02*
X65748Y168110D01*
X63976Y169882D02*
Y172835D01*
X51230Y150541D02*
X56693D01*
X48228Y153543D02*
Y156496D01*
X51575Y159843D01*
X48228Y153543D02*
X49606Y152165D01*
X50984Y150787D01*
X51230Y150541D01*
X51575Y159843D02*
Y168110D01*
X94000Y243307D02*
Y248126D01*
X79921Y215748D02*
Y226772D01*
Y215748D02*
X129528Y166142D01*
Y138976D02*
Y166142D01*
X160039Y127559D02*
X164173Y123425D01*
X129528Y138976D02*
X140945Y127559D01*
X160039D01*
X8268Y165945D02*
Y174016D01*
X42913Y172047D02*
X48819D01*
X51181Y174409D01*
X56693Y165541D02*
X61230D01*
X63386Y163386D01*
X25787Y217717D02*
X31890Y223819D01*
Y227795D01*
X11890Y224134D02*
Y227795D01*
Y224134D02*
X18307Y217717D01*
X77953Y165541D02*
X86230D01*
X87402Y164370D01*
X96063D01*
X104724D01*
X119685Y45079D02*
X120472Y44291D01*
X120000Y53307D02*
X120472Y52835D01*
X164449Y131181D02*
X172480D01*
X164173Y130905D02*
X164449Y131181D01*
X155905Y130905D02*
X164173D01*
X155512Y131299D02*
X155905Y130905D01*
X146949Y131299D02*
X155512D01*
X146949Y131299D02*
X146949Y131299D01*
X207716Y134331D02*
X214941D01*
X216831Y136221D01*
X225259D01*
X240158Y151119D01*
Y151378D01*
Y113976D02*
Y114370D01*
X225590Y128937D02*
X240158Y114370D01*
X217028Y128937D02*
X225590D01*
X216831Y128740D02*
X217028Y128937D01*
X207716Y131181D02*
X214390D01*
X216831Y128740D01*
X203622Y128032D02*
X207716D01*
X201969Y126378D02*
X203622Y128032D01*
X201969Y123228D02*
Y126378D01*
Y123228D02*
X203465Y121732D01*
X207716D01*
X210686D02*
X216929Y115489D01*
Y114764D02*
Y115489D01*
Y107677D02*
Y114764D01*
Y107677D02*
X224803D01*
X225590Y106890D01*
X207716Y121732D02*
X210686D01*
X225590Y114370D02*
Y121457D01*
X207716Y124882D02*
X214291D01*
X216929Y122244D01*
X224803D01*
X225590Y121457D01*
X200866Y118583D02*
X207716D01*
X200787Y118504D02*
X200866Y118583D01*
X159634Y75561D02*
X167044D01*
X159694Y66745D02*
X167044D01*
X140000Y53307D02*
X140157Y53150D01*
X107677Y33465D02*
X111811Y37598D01*
X99606Y33465D02*
X107677D01*
X223425Y273031D02*
X229984D01*
X237858D01*
X238976Y264370D02*
X240158D01*
X219311Y255118D02*
Y268917D01*
X223425Y273031D01*
X245339Y280512D02*
X245732D01*
X237858Y273031D02*
Y275654D01*
X239110Y276905D01*
X241732D01*
X245339Y280512D01*
X89764Y275576D02*
Y279921D01*
Y275576D02*
X89900Y275440D01*
X247638Y264370D02*
X253346D01*
X253543Y264567D01*
X243504Y264370D02*
X247638D01*
X243307Y264567D02*
X243504Y264370D01*
D33*
X49859Y145581D02*
X56693D01*
X49540Y145900D02*
X49859Y145581D01*
X52021Y140581D02*
X56693D01*
X49640Y138200D02*
X52021Y140581D01*
X39654Y138200D02*
X42160D01*
X33366Y144488D02*
X39654Y138200D01*
X29724Y140847D02*
X33366Y144488D01*
X19587Y140847D02*
X29724D01*
X19587Y138287D02*
X32465D01*
X34400Y136353D01*
X37453Y133300D01*
X43200D01*
X44003Y134104D01*
X44175D01*
X46200Y136129D01*
Y141760D01*
X42060Y145900D02*
X46200Y141760D01*
D34*
X216929Y100197D02*
X224409D01*
D35*
X314370Y127362D02*
Y133071D01*
X323031D01*
X314370D02*
Y134252D01*
X323031Y133071D02*
X323228Y132874D01*
X314370Y127362D02*
X315059Y126673D01*
X314370Y125984D02*
X315059Y126673D01*
X314370Y134252D02*
Y137992D01*
X315453Y139075D01*
Y142323D01*
D36*
X60000Y243307D02*
D03*
D37*
X45276Y18504D02*
D03*
X64961D02*
D03*
X257480D02*
D03*
X277165D02*
D03*
D38*
X44094Y267717D02*
D03*
X69685D02*
D03*
Y285433D02*
D03*
X108661Y267717D02*
D03*
X134252D02*
D03*
Y285433D02*
D03*
X35827Y209449D02*
D03*
X10236D02*
D03*
Y191732D02*
D03*
D39*
X44094Y285433D02*
D03*
X108661D02*
D03*
X35827Y191732D02*
D03*
D40*
X110000Y53307D02*
D03*
X250000Y243307D02*
D03*
X200000Y53307D02*
D03*
X164000Y243307D02*
D03*
X362205Y155118D02*
D03*
Y166929D02*
D03*
Y178740D02*
D03*
Y190551D02*
D03*
Y205512D02*
D03*
Y217323D02*
D03*
Y229134D02*
D03*
Y240945D02*
D03*
Y54331D02*
D03*
Y66142D02*
D03*
Y104724D02*
D03*
Y116535D02*
D03*
Y77953D02*
D03*
Y89764D02*
D03*
Y128347D02*
D03*
Y140157D02*
D03*
D41*
X120000Y53307D02*
D03*
X130000D02*
D03*
X140000D02*
D03*
X150000D02*
D03*
X160000D02*
D03*
X170000D02*
D03*
X180000D02*
D03*
X240000Y243307D02*
D03*
X230000D02*
D03*
X220000D02*
D03*
X210000D02*
D03*
X200000D02*
D03*
X190000D02*
D03*
X180000D02*
D03*
X250000Y53307D02*
D03*
X240000D02*
D03*
X230000D02*
D03*
X220000D02*
D03*
X210000D02*
D03*
X74000Y243307D02*
D03*
X84000D02*
D03*
X94000D02*
D03*
X104000D02*
D03*
X114000D02*
D03*
X124000D02*
D03*
X134000D02*
D03*
X144000D02*
D03*
X154000D02*
D03*
X382205Y155118D02*
D03*
X372205D02*
D03*
Y166929D02*
D03*
X382205D02*
D03*
Y178740D02*
D03*
X372205D02*
D03*
Y190551D02*
D03*
X382205D02*
D03*
Y205512D02*
D03*
X372205D02*
D03*
Y217323D02*
D03*
X382205D02*
D03*
Y229134D02*
D03*
X372205D02*
D03*
Y240945D02*
D03*
X382205D02*
D03*
Y54331D02*
D03*
X372205D02*
D03*
Y66142D02*
D03*
X382205D02*
D03*
Y104724D02*
D03*
X372205D02*
D03*
Y116535D02*
D03*
X382205D02*
D03*
Y77953D02*
D03*
X372205D02*
D03*
Y89764D02*
D03*
X382205D02*
D03*
Y128347D02*
D03*
X372205D02*
D03*
Y140157D02*
D03*
X382205D02*
D03*
D42*
X70866Y183858D02*
D03*
Y223228D02*
D03*
D43*
X31890Y237795D02*
D03*
D44*
X21890D02*
D03*
X11890D02*
D03*
X31890Y227795D02*
D03*
X21890D02*
D03*
X11890D02*
D03*
D45*
X267717Y283465D02*
D03*
X287402D02*
D03*
X307087D02*
D03*
X326772D02*
D03*
X346457D02*
D03*
X366142D02*
D03*
X12205Y98032D02*
D03*
D46*
X267717Y273465D02*
D03*
X287402D02*
D03*
X307087D02*
D03*
X326772D02*
D03*
X346457D02*
D03*
X366142D02*
D03*
X12205Y88032D02*
D03*
Y78031D02*
D03*
D47*
X313386Y35039D02*
D03*
Y15354D02*
D03*
D48*
X260000Y73307D02*
D03*
Y183307D02*
D03*
X55000Y53307D02*
D03*
D49*
X7874Y149409D02*
D03*
Y127165D02*
D03*
D50*
X34400Y127100D02*
D03*
X26500Y128500D02*
D03*
Y131700D02*
D03*
X164173Y110236D02*
D03*
X178740Y121653D02*
D03*
X23228Y126772D02*
D03*
X20079D02*
D03*
X23228Y129921D02*
D03*
X20079D02*
D03*
X200394Y274410D02*
D03*
X155512Y118504D02*
D03*
X224409Y100197D02*
D03*
X220472Y100394D02*
D03*
X219685Y88878D02*
D03*
Y85433D02*
D03*
X229528D02*
D03*
X225984D02*
D03*
X222835D02*
D03*
Y88878D02*
D03*
X225984Y88976D02*
D03*
X137402Y123228D02*
D03*
X140551D02*
D03*
X146850Y116535D02*
D03*
X143701D02*
D03*
X140551D02*
D03*
X137402D02*
D03*
Y119685D02*
D03*
X140551D02*
D03*
X143701D02*
D03*
X82677Y120866D02*
D03*
X75590D02*
D03*
X57480Y175984D02*
D03*
X54724Y178347D02*
D03*
X110236Y146850D02*
D03*
Y177165D02*
D03*
X22441Y268110D02*
D03*
X26378D02*
D03*
Y271260D02*
D03*
X22441D02*
D03*
Y274410D02*
D03*
X77165Y190157D02*
D03*
X80315Y180709D02*
D03*
Y183858D02*
D03*
Y187008D02*
D03*
Y190157D02*
D03*
X285728Y111417D02*
D03*
X29134Y148622D02*
D03*
X49508Y113386D02*
D03*
X85138D02*
D03*
X234449Y252461D02*
D03*
X366142Y251673D02*
D03*
X346457D02*
D03*
X326772D02*
D03*
X307087D02*
D03*
X287402D02*
D03*
X267717D02*
D03*
X233957Y277067D02*
D03*
X166437Y268012D02*
D03*
X162008Y263779D02*
D03*
X57185Y222244D02*
D03*
X93504Y172835D02*
D03*
X96260Y151279D02*
D03*
X157874Y138484D02*
D03*
X225590Y148425D02*
D03*
X231004Y114272D02*
D03*
X26378Y274410D02*
D03*
X146949Y119587D02*
D03*
X229331Y89173D02*
D03*
X263779Y161417D02*
D03*
X267717D02*
D03*
X271654D02*
D03*
X327559Y128740D02*
D03*
X298327Y161713D02*
D03*
X303248Y130118D02*
D03*
X294587Y130610D02*
D03*
X271850Y118898D02*
D03*
X274803Y121653D02*
D03*
X276279Y111516D02*
D03*
X280118Y111614D02*
D03*
X285728Y105217D02*
D03*
X286221Y148819D02*
D03*
X301969D02*
D03*
X298031D02*
D03*
X282283D02*
D03*
X294094D02*
D03*
X290158D02*
D03*
X271654Y151969D02*
D03*
X262992D02*
D03*
X312894Y148228D02*
D03*
X308957Y148031D02*
D03*
X299213Y191437D02*
D03*
X281496Y171260D02*
D03*
X318898Y191437D02*
D03*
X303150D02*
D03*
X314961D02*
D03*
X307087D02*
D03*
X311024D02*
D03*
Y173228D02*
D03*
X307087D02*
D03*
X314961D02*
D03*
X303150D02*
D03*
X318898D02*
D03*
X191732Y112992D02*
D03*
X194488Y100394D02*
D03*
X197874Y97795D02*
D03*
X165343Y96850D02*
D03*
X164949Y88189D02*
D03*
X33858Y116142D02*
D03*
X65945Y195866D02*
D03*
X37008Y153543D02*
D03*
X155905Y103937D02*
D03*
X79134Y120866D02*
D03*
X51968Y181102D02*
D03*
X51181Y174409D02*
D03*
X63386Y163386D02*
D03*
X200787Y118504D02*
D03*
X221654Y219685D02*
D03*
X226772Y224410D02*
D03*
X137402Y250394D02*
D03*
X89764Y279921D02*
D03*
X323622Y128740D02*
D03*
X319685D02*
D03*
M02*
