G04 Layer_Physical_Order=2*
G04 Layer_Color=16711680*
%FSLAX25Y25*%
%MOIN*%
G70*
G01*
G75*
%ADD31C,0.00787*%
%ADD36C,0.12598*%
%ADD37C,0.09843*%
%ADD38C,0.07480*%
%ADD39R,0.07480X0.07480*%
%ADD40R,0.06299X0.07874*%
%ADD41O,0.06299X0.07874*%
%ADD42C,0.05906*%
%ADD43R,0.06693X0.06693*%
%ADD44C,0.06693*%
%ADD45R,0.07874X0.06299*%
%ADD46O,0.07874X0.06299*%
%ADD47C,0.07087*%
%ADD48C,0.29134*%
G04:AMPARAMS|DCode=49|XSize=84.65mil|YSize=47.24mil|CornerRadius=14.17mil|HoleSize=0mil|Usage=FLASHONLY|Rotation=0.000|XOffset=0mil|YOffset=0mil|HoleType=Round|Shape=RoundedRectangle|*
%AMROUNDEDRECTD49*
21,1,0.08465,0.01890,0,0,0.0*
21,1,0.05630,0.04724,0,0,0.0*
1,1,0.02835,0.02815,-0.00945*
1,1,0.02835,-0.02815,-0.00945*
1,1,0.02835,-0.02815,0.00945*
1,1,0.02835,0.02815,0.00945*
%
%ADD49ROUNDEDRECTD49*%
%ADD50C,0.02559*%
%ADD51C,0.01000*%
G36*
X392304Y1003D02*
X1003D01*
Y293878D01*
X392304D01*
Y1003D01*
D02*
G37*
%LPC*%
G36*
X48435Y289773D02*
X45276D01*
Y286614D01*
X48435D01*
Y289773D01*
D02*
G37*
G36*
X42913D02*
X39754D01*
Y286614D01*
X42913D01*
Y289773D01*
D02*
G37*
G36*
X70866Y289642D02*
Y286614D01*
X73893D01*
X73476Y287622D01*
X72781Y288528D01*
X71874Y289224D01*
X70866Y289642D01*
D02*
G37*
G36*
X68504Y289642D02*
X67496Y289224D01*
X66590Y288528D01*
X65894Y287622D01*
X65477Y286614D01*
X68504D01*
Y289642D01*
D02*
G37*
G36*
X113002Y289773D02*
X109843D01*
Y286614D01*
X113002D01*
Y289773D01*
D02*
G37*
G36*
X107480D02*
X104321D01*
Y286614D01*
X107480D01*
Y289773D01*
D02*
G37*
G36*
X135433Y289642D02*
Y286614D01*
X138461D01*
X138043Y287622D01*
X137347Y288528D01*
X136441Y289224D01*
X135433Y289642D01*
D02*
G37*
G36*
X133071Y289642D02*
X132063Y289224D01*
X131157Y288528D01*
X130461Y287622D01*
X130043Y286614D01*
X133071D01*
Y289642D01*
D02*
G37*
G36*
X138461Y284252D02*
X135433D01*
Y281225D01*
X136441Y281642D01*
X137347Y282338D01*
X138043Y283244D01*
X138461Y284252D01*
D02*
G37*
G36*
X68504Y284252D02*
X65477D01*
X65894Y283244D01*
X66590Y282338D01*
X67496Y281642D01*
X68504Y281225D01*
Y284252D01*
D02*
G37*
G36*
X73894D02*
X70866D01*
Y281224D01*
X71874Y281642D01*
X72781Y282338D01*
X73476Y283244D01*
X73894Y284252D01*
D02*
G37*
G36*
X133071Y284252D02*
X130043D01*
X130461Y283244D01*
X131157Y282338D01*
X132063Y281642D01*
X133071Y281224D01*
Y284252D01*
D02*
G37*
G36*
X113002Y284252D02*
X109843D01*
Y281093D01*
X113002D01*
Y284252D01*
D02*
G37*
G36*
X107480D02*
X104321D01*
Y281093D01*
X107480D01*
Y284252D01*
D02*
G37*
G36*
X48435Y284252D02*
X45276D01*
Y281093D01*
X48435D01*
Y284252D01*
D02*
G37*
G36*
X42913D02*
X39754D01*
Y281093D01*
X42913D01*
Y284252D01*
D02*
G37*
G36*
X370866Y287402D02*
X361417D01*
Y279528D01*
X370866D01*
Y287402D01*
D02*
G37*
G36*
X351181D02*
X341732D01*
Y279528D01*
X351181D01*
Y287402D01*
D02*
G37*
G36*
X331496D02*
X322047D01*
Y279528D01*
X331496D01*
Y287402D01*
D02*
G37*
G36*
X311811D02*
X302362D01*
Y279528D01*
X311811D01*
Y287402D01*
D02*
G37*
G36*
X292126D02*
X282677D01*
Y279528D01*
X292126D01*
Y287402D01*
D02*
G37*
G36*
X272441D02*
X262992D01*
Y279528D01*
X272441D01*
Y287402D01*
D02*
G37*
G36*
X366929Y277435D02*
X365354D01*
X364327Y277300D01*
X363369Y276904D01*
X362546Y276273D01*
X361915Y275450D01*
X361519Y274492D01*
X361383Y273465D01*
X361519Y272437D01*
X361915Y271479D01*
X362546Y270657D01*
X363369Y270026D01*
X364327Y269629D01*
X365354Y269494D01*
X366929D01*
X367957Y269629D01*
X368915Y270026D01*
X369737Y270657D01*
X370368Y271479D01*
X370765Y272437D01*
X370900Y273465D01*
X370765Y274492D01*
X370368Y275450D01*
X369737Y276273D01*
X368915Y276904D01*
X367957Y277300D01*
X366929Y277435D01*
D02*
G37*
G36*
X347244D02*
X345669D01*
X344641Y277300D01*
X343684Y276904D01*
X342861Y276273D01*
X342230Y275450D01*
X341834Y274492D01*
X341698Y273465D01*
X341834Y272437D01*
X342230Y271479D01*
X342861Y270657D01*
X343684Y270026D01*
X344641Y269629D01*
X345669Y269494D01*
X347244D01*
X348272Y269629D01*
X349230Y270026D01*
X350052Y270657D01*
X350683Y271479D01*
X351080Y272437D01*
X351215Y273465D01*
X351080Y274492D01*
X350683Y275450D01*
X350052Y276273D01*
X349230Y276904D01*
X348272Y277300D01*
X347244Y277435D01*
D02*
G37*
G36*
X327559D02*
X325984D01*
X324956Y277300D01*
X323999Y276904D01*
X323176Y276273D01*
X322545Y275450D01*
X322149Y274492D01*
X322013Y273465D01*
X322149Y272437D01*
X322545Y271479D01*
X323176Y270657D01*
X323999Y270026D01*
X324956Y269629D01*
X325984Y269494D01*
X327559D01*
X328587Y269629D01*
X329544Y270026D01*
X330367Y270657D01*
X330998Y271479D01*
X331395Y272437D01*
X331530Y273465D01*
X331395Y274492D01*
X330998Y275450D01*
X330367Y276273D01*
X329544Y276904D01*
X328587Y277300D01*
X327559Y277435D01*
D02*
G37*
G36*
X307874D02*
X306299D01*
X305271Y277300D01*
X304314Y276904D01*
X303491Y276273D01*
X302860Y275450D01*
X302464Y274492D01*
X302328Y273465D01*
X302464Y272437D01*
X302860Y271479D01*
X303491Y270657D01*
X304314Y270026D01*
X305271Y269629D01*
X306299Y269494D01*
X307874D01*
X308902Y269629D01*
X309859Y270026D01*
X310682Y270657D01*
X311313Y271479D01*
X311710Y272437D01*
X311845Y273465D01*
X311710Y274492D01*
X311313Y275450D01*
X310682Y276273D01*
X309859Y276904D01*
X308902Y277300D01*
X307874Y277435D01*
D02*
G37*
G36*
X288189D02*
X286614D01*
X285586Y277300D01*
X284629Y276904D01*
X283806Y276273D01*
X283175Y275450D01*
X282779Y274492D01*
X282643Y273465D01*
X282779Y272437D01*
X283175Y271479D01*
X283806Y270657D01*
X284629Y270026D01*
X285586Y269629D01*
X286614Y269494D01*
X288189D01*
X289217Y269629D01*
X290175Y270026D01*
X290997Y270657D01*
X291628Y271479D01*
X292025Y272437D01*
X292160Y273465D01*
X292025Y274492D01*
X291628Y275450D01*
X290997Y276273D01*
X290175Y276904D01*
X289217Y277300D01*
X288189Y277435D01*
D02*
G37*
G36*
X268504D02*
X266929D01*
X265901Y277300D01*
X264944Y276904D01*
X264121Y276273D01*
X263490Y275450D01*
X263093Y274492D01*
X262958Y273465D01*
X263093Y272437D01*
X263490Y271479D01*
X264121Y270657D01*
X264944Y270026D01*
X265901Y269629D01*
X266929Y269494D01*
X268504D01*
X269532Y269629D01*
X270489Y270026D01*
X271312Y270657D01*
X271943Y271479D01*
X272340Y272437D01*
X272475Y273465D01*
X272340Y274492D01*
X271943Y275450D01*
X271312Y276273D01*
X270489Y276904D01*
X269532Y277300D01*
X268504Y277435D01*
D02*
G37*
G36*
X134252Y272283D02*
X133070Y272128D01*
X131969Y271671D01*
X131023Y270946D01*
X130297Y270000D01*
X129850Y268921D01*
X113063D01*
X112616Y270000D01*
X111890Y270946D01*
X110945Y271671D01*
X109843Y272128D01*
X108661Y272283D01*
X107480Y272128D01*
X106378Y271671D01*
X105432Y270946D01*
X104707Y270000D01*
X104250Y268899D01*
X104095Y267717D01*
X104250Y266535D01*
X104707Y265433D01*
X105432Y264487D01*
X106378Y263762D01*
X107480Y263305D01*
X108661Y263150D01*
X109843Y263305D01*
X110945Y263762D01*
X111890Y264487D01*
X112616Y265433D01*
X113063Y266512D01*
X129850D01*
X130297Y265433D01*
X131023Y264487D01*
X131969Y263762D01*
X133070Y263305D01*
X134252Y263150D01*
X135434Y263305D01*
X136535Y263762D01*
X137481Y264487D01*
X138207Y265433D01*
X138663Y266535D01*
X138819Y267717D01*
X138663Y268899D01*
X138207Y270000D01*
X137481Y270946D01*
X136535Y271671D01*
X135434Y272128D01*
X134252Y272283D01*
D02*
G37*
G36*
X69685D02*
X68503Y272128D01*
X67402Y271671D01*
X66456Y270946D01*
X65730Y270000D01*
X65274Y268899D01*
X65118Y267717D01*
X65274Y266535D01*
X65730Y265433D01*
X66456Y264487D01*
X67402Y263762D01*
X68503Y263305D01*
X69685Y263150D01*
X70867Y263305D01*
X71968Y263762D01*
X72914Y264487D01*
X73640Y265433D01*
X74096Y266535D01*
X74252Y267717D01*
X74096Y268899D01*
X73640Y270000D01*
X72914Y270946D01*
X71968Y271671D01*
X70867Y272128D01*
X69685Y272283D01*
D02*
G37*
G36*
X44094D02*
X42913Y272128D01*
X41811Y271671D01*
X40865Y270946D01*
X40140Y270000D01*
X39683Y268899D01*
X39528Y267717D01*
X39683Y266535D01*
X40140Y265433D01*
X40865Y264487D01*
X41811Y263762D01*
X42913Y263305D01*
X44094Y263150D01*
X45276Y263305D01*
X46378Y263762D01*
X47324Y264487D01*
X48049Y265433D01*
X48505Y266535D01*
X48661Y267717D01*
X48505Y268899D01*
X48049Y270000D01*
X47324Y270946D01*
X46378Y271671D01*
X45276Y272128D01*
X44094Y272283D01*
D02*
G37*
G36*
X105181Y247664D02*
Y244488D01*
X107730D01*
X107653Y245073D01*
X107275Y245986D01*
X106674Y246769D01*
X105891Y247370D01*
X105181Y247664D01*
D02*
G37*
G36*
X102819Y247664D02*
X102109Y247370D01*
X101326Y246769D01*
X100725Y245986D01*
X100347Y245073D01*
X100270Y244488D01*
X102819D01*
Y247664D01*
D02*
G37*
G36*
X383386Y245302D02*
Y242126D01*
X385935D01*
X385858Y242711D01*
X385480Y243623D01*
X384879Y244407D01*
X384096Y245008D01*
X383386Y245302D01*
D02*
G37*
G36*
X381024Y245302D02*
X380314Y245008D01*
X379531Y244407D01*
X378929Y243623D01*
X378552Y242711D01*
X378475Y242126D01*
X381024D01*
Y245302D01*
D02*
G37*
G36*
X32283Y277181D02*
X20472D01*
X20165Y277120D01*
X19905Y276946D01*
X19731Y276685D01*
X19670Y276378D01*
X19669Y255117D01*
X19731Y254810D01*
X19905Y254549D01*
X19905Y254549D01*
X24788Y249667D01*
X24788Y241348D01*
X24339Y241126D01*
X23975Y241406D01*
X22969Y241823D01*
X21890Y241965D01*
X20811Y241823D01*
X19805Y241406D01*
X18941Y240744D01*
X18279Y239880D01*
X17862Y238874D01*
X17720Y237795D01*
X17862Y236716D01*
X18279Y235711D01*
X18941Y234847D01*
X19805Y234184D01*
X20811Y233768D01*
X21890Y233626D01*
X22969Y233768D01*
X23975Y234184D01*
X24339Y234464D01*
X24788Y234243D01*
Y231347D01*
X24339Y231126D01*
X23975Y231406D01*
X22969Y231823D01*
X21890Y231965D01*
X20811Y231823D01*
X19805Y231406D01*
X18941Y230744D01*
X18279Y229880D01*
X17862Y228874D01*
X17720Y227795D01*
X17862Y226716D01*
X18279Y225711D01*
X18941Y224847D01*
X19805Y224184D01*
X20811Y223768D01*
X21890Y223626D01*
X22969Y223768D01*
X23975Y224184D01*
X24339Y224464D01*
X24788Y224243D01*
X24788Y217323D01*
X24788Y211811D01*
X24849Y211504D01*
X25023Y211243D01*
X25023Y211243D01*
X39694Y196572D01*
X39487Y196072D01*
X37008D01*
Y192913D01*
X40167D01*
Y195392D01*
X40667Y195599D01*
X51537Y184729D01*
X51345Y184267D01*
X50000Y184267D01*
X49693Y184206D01*
X49432Y184032D01*
X49258Y183772D01*
X49197Y183465D01*
X49197Y178740D01*
X49258Y178433D01*
X49432Y178172D01*
X62702Y164902D01*
X62768Y164858D01*
X62824Y164803D01*
X62897Y164772D01*
X62963Y164728D01*
X63040Y164713D01*
X63113Y164683D01*
X63192D01*
X63270Y164667D01*
X63346Y164683D01*
X63879Y164577D01*
X64297Y164297D01*
X64577Y163879D01*
X64683Y163346D01*
X64667Y163270D01*
X64683Y163192D01*
Y163113D01*
X64713Y163040D01*
X64728Y162963D01*
X64772Y162897D01*
X64803Y162824D01*
X64859Y162768D01*
X64903Y162702D01*
X72819Y154786D01*
X72819Y117323D01*
X72880Y117016D01*
X73054Y116755D01*
X73315Y116581D01*
X73622Y116520D01*
X85039D01*
X85347Y116581D01*
X85607Y116755D01*
X85781Y117016D01*
X85842Y117323D01*
Y124016D01*
X85781Y124323D01*
X85607Y124583D01*
X85347Y124758D01*
X85039Y124819D01*
X83480D01*
X83480Y153543D01*
X83480Y153543D01*
X83419Y153850D01*
X83245Y154111D01*
X83245Y154111D01*
X61849Y175507D01*
X62040Y175969D01*
X82420Y175969D01*
X82543Y175993D01*
X82666Y176007D01*
X82695Y176023D01*
X82728Y176030D01*
X82831Y176099D01*
X82940Y176160D01*
X82961Y176186D01*
X82988Y176204D01*
X83057Y176307D01*
X83135Y176405D01*
X83391Y176905D01*
X83400Y176937D01*
X83419Y176964D01*
X83443Y177086D01*
X83477Y177206D01*
X83473Y177239D01*
X83480Y177272D01*
Y192913D01*
X83419Y193221D01*
X83245Y193481D01*
X82984Y193655D01*
X82677Y193716D01*
X65293Y193716D01*
X45291Y213718D01*
X45291Y248819D01*
X45291Y248819D01*
X45230Y249126D01*
X45056Y249386D01*
X33086Y261356D01*
X33086Y276378D01*
X33025Y276685D01*
X32851Y276946D01*
X32591Y277120D01*
X32283Y277181D01*
D02*
G37*
G36*
X107730Y242126D02*
X105181D01*
Y238950D01*
X105891Y239244D01*
X106674Y239845D01*
X107275Y240629D01*
X107653Y241541D01*
X107730Y242126D01*
D02*
G37*
G36*
X102819D02*
X100270D01*
X100347Y241541D01*
X100725Y240629D01*
X101326Y239845D01*
X102109Y239244D01*
X102819Y238950D01*
Y242126D01*
D02*
G37*
G36*
X253937Y248031D02*
X246063D01*
Y238583D01*
X253937D01*
Y248031D01*
D02*
G37*
G36*
X137402Y252501D02*
X136595Y252341D01*
X135911Y251884D01*
X135455Y251200D01*
X135294Y250394D01*
X135455Y249587D01*
X135911Y248903D01*
X136595Y248447D01*
X137402Y248286D01*
X137742Y248354D01*
X138122Y248100D01*
X138583Y248008D01*
X138583Y248008D01*
X141711D01*
X141984Y247562D01*
X141982Y247508D01*
X141192Y246902D01*
X140561Y246080D01*
X140164Y245122D01*
X140029Y244094D01*
Y242520D01*
X140164Y241492D01*
X140561Y240534D01*
X141192Y239712D01*
X142015Y239081D01*
X142972Y238684D01*
X144000Y238549D01*
X145028Y238684D01*
X145985Y239081D01*
X146808Y239712D01*
X147439Y240534D01*
X147836Y241492D01*
X147971Y242520D01*
Y244094D01*
X147836Y245122D01*
X147439Y246080D01*
X146808Y246902D01*
X146018Y247508D01*
X146016Y247562D01*
X146289Y248008D01*
X151711D01*
X151984Y247562D01*
X151982Y247508D01*
X151192Y246902D01*
X150561Y246080D01*
X150164Y245122D01*
X150029Y244094D01*
Y242520D01*
X150164Y241492D01*
X150561Y240534D01*
X151192Y239712D01*
X152015Y239081D01*
X152972Y238684D01*
X154000Y238549D01*
X155028Y238684D01*
X155985Y239081D01*
X156808Y239712D01*
X157439Y240534D01*
X157836Y241492D01*
X157971Y242520D01*
Y244094D01*
X157836Y245122D01*
X157439Y246080D01*
X156808Y246902D01*
X156018Y247508D01*
X156016Y247562D01*
X156289Y248008D01*
X160063D01*
Y238583D01*
X167937D01*
Y248031D01*
X164695D01*
X162663Y250064D01*
X162272Y250325D01*
X161811Y250417D01*
X161811Y250417D01*
X139504D01*
X139349Y251200D01*
X138892Y251884D01*
X138208Y252341D01*
X137402Y252501D01*
D02*
G37*
G36*
X240000Y248065D02*
X238972Y247930D01*
X238015Y247533D01*
X237192Y246902D01*
X236561Y246080D01*
X236164Y245122D01*
X236029Y244094D01*
Y242520D01*
X236164Y241492D01*
X236561Y240534D01*
X237192Y239712D01*
X238015Y239081D01*
X238972Y238684D01*
X240000Y238549D01*
X241028Y238684D01*
X241986Y239081D01*
X242808Y239712D01*
X243439Y240534D01*
X243836Y241492D01*
X243971Y242520D01*
Y244094D01*
X243836Y245122D01*
X243439Y246080D01*
X242808Y246902D01*
X241986Y247533D01*
X241028Y247930D01*
X240000Y248065D01*
D02*
G37*
G36*
X230000D02*
X228972Y247930D01*
X228014Y247533D01*
X227192Y246902D01*
X226561Y246080D01*
X226164Y245122D01*
X226029Y244094D01*
Y242520D01*
X226164Y241492D01*
X226561Y240534D01*
X227192Y239712D01*
X228014Y239081D01*
X228972Y238684D01*
X230000Y238549D01*
X231028Y238684D01*
X231985Y239081D01*
X232808Y239712D01*
X233439Y240534D01*
X233836Y241492D01*
X233971Y242520D01*
Y244094D01*
X233836Y245122D01*
X233439Y246080D01*
X232808Y246902D01*
X231985Y247533D01*
X231028Y247930D01*
X230000Y248065D01*
D02*
G37*
G36*
X200000D02*
X198972Y247930D01*
X198014Y247533D01*
X197192Y246902D01*
X196561Y246080D01*
X196164Y245122D01*
X196029Y244094D01*
Y242520D01*
X196164Y241492D01*
X196561Y240534D01*
X197192Y239712D01*
X198014Y239081D01*
X198972Y238684D01*
X200000Y238549D01*
X201028Y238684D01*
X201986Y239081D01*
X202808Y239712D01*
X203439Y240534D01*
X203836Y241492D01*
X203971Y242520D01*
Y244094D01*
X203836Y245122D01*
X203439Y246080D01*
X202808Y246902D01*
X201986Y247533D01*
X201028Y247930D01*
X200000Y248065D01*
D02*
G37*
G36*
X190000D02*
X188972Y247930D01*
X188014Y247533D01*
X187192Y246902D01*
X186561Y246080D01*
X186164Y245122D01*
X186029Y244094D01*
Y242520D01*
X186164Y241492D01*
X186561Y240534D01*
X187192Y239712D01*
X188014Y239081D01*
X188972Y238684D01*
X190000Y238549D01*
X191028Y238684D01*
X191985Y239081D01*
X192808Y239712D01*
X193439Y240534D01*
X193836Y241492D01*
X193971Y242520D01*
Y244094D01*
X193836Y245122D01*
X193439Y246080D01*
X192808Y246902D01*
X191985Y247533D01*
X191028Y247930D01*
X190000Y248065D01*
D02*
G37*
G36*
X180000D02*
X178972Y247930D01*
X178015Y247533D01*
X177192Y246902D01*
X176561Y246080D01*
X176164Y245122D01*
X176029Y244094D01*
Y242520D01*
X176164Y241492D01*
X176561Y240534D01*
X177192Y239712D01*
X178015Y239081D01*
X178972Y238684D01*
X180000Y238549D01*
X181028Y238684D01*
X181985Y239081D01*
X182808Y239712D01*
X183439Y240534D01*
X183836Y241492D01*
X183971Y242520D01*
Y244094D01*
X183836Y245122D01*
X183439Y246080D01*
X182808Y246902D01*
X181985Y247533D01*
X181028Y247930D01*
X180000Y248065D01*
D02*
G37*
G36*
X134000D02*
X132972Y247930D01*
X132015Y247533D01*
X131192Y246902D01*
X130561Y246080D01*
X130164Y245122D01*
X130029Y244094D01*
Y242520D01*
X130164Y241492D01*
X130561Y240534D01*
X131192Y239712D01*
X132015Y239081D01*
X132972Y238684D01*
X134000Y238549D01*
X135028Y238684D01*
X135986Y239081D01*
X136808Y239712D01*
X137439Y240534D01*
X137836Y241492D01*
X137971Y242520D01*
Y244094D01*
X137836Y245122D01*
X137439Y246080D01*
X136808Y246902D01*
X135986Y247533D01*
X135028Y247930D01*
X134000Y248065D01*
D02*
G37*
G36*
X124000D02*
X122972Y247930D01*
X122014Y247533D01*
X121192Y246902D01*
X120561Y246080D01*
X120164Y245122D01*
X120029Y244094D01*
Y242520D01*
X120164Y241492D01*
X120561Y240534D01*
X121192Y239712D01*
X122014Y239081D01*
X122972Y238684D01*
X124000Y238549D01*
X125028Y238684D01*
X125986Y239081D01*
X126808Y239712D01*
X127439Y240534D01*
X127836Y241492D01*
X127971Y242520D01*
Y244094D01*
X127836Y245122D01*
X127439Y246080D01*
X126808Y246902D01*
X125986Y247533D01*
X125028Y247930D01*
X124000Y248065D01*
D02*
G37*
G36*
X114000D02*
X112972Y247930D01*
X112014Y247533D01*
X111192Y246902D01*
X110561Y246080D01*
X110164Y245122D01*
X110029Y244094D01*
Y242520D01*
X110164Y241492D01*
X110561Y240534D01*
X111192Y239712D01*
X112014Y239081D01*
X112972Y238684D01*
X114000Y238549D01*
X115028Y238684D01*
X115986Y239081D01*
X116808Y239712D01*
X117439Y240534D01*
X117836Y241492D01*
X117971Y242520D01*
Y244094D01*
X117836Y245122D01*
X117439Y246080D01*
X116808Y246902D01*
X115986Y247533D01*
X115028Y247930D01*
X114000Y248065D01*
D02*
G37*
G36*
X94000D02*
X92972Y247930D01*
X92014Y247533D01*
X91192Y246902D01*
X90561Y246080D01*
X90164Y245122D01*
X90029Y244094D01*
Y242520D01*
X90164Y241492D01*
X90561Y240534D01*
X91192Y239712D01*
X92014Y239081D01*
X92972Y238684D01*
X94000Y238549D01*
X95028Y238684D01*
X95986Y239081D01*
X96808Y239712D01*
X97439Y240534D01*
X97836Y241492D01*
X97971Y242520D01*
Y244094D01*
X97836Y245122D01*
X97439Y246080D01*
X96808Y246902D01*
X95986Y247533D01*
X95028Y247930D01*
X94000Y248065D01*
D02*
G37*
G36*
X84000D02*
X82972Y247930D01*
X82015Y247533D01*
X81192Y246902D01*
X80561Y246080D01*
X80164Y245122D01*
X80029Y244094D01*
Y242520D01*
X80164Y241492D01*
X80561Y240534D01*
X81192Y239712D01*
X82015Y239081D01*
X82972Y238684D01*
X84000Y238549D01*
X85028Y238684D01*
X85985Y239081D01*
X86808Y239712D01*
X87439Y240534D01*
X87836Y241492D01*
X87971Y242520D01*
Y244094D01*
X87836Y245122D01*
X87439Y246080D01*
X86808Y246902D01*
X85985Y247533D01*
X85028Y247930D01*
X84000Y248065D01*
D02*
G37*
G36*
X74000D02*
X72972Y247930D01*
X72014Y247533D01*
X71192Y246902D01*
X70561Y246080D01*
X70164Y245122D01*
X70029Y244094D01*
Y242520D01*
X70164Y241492D01*
X70561Y240534D01*
X71192Y239712D01*
X72014Y239081D01*
X72972Y238684D01*
X74000Y238549D01*
X75028Y238684D01*
X75985Y239081D01*
X76808Y239712D01*
X77439Y240534D01*
X77836Y241492D01*
X77971Y242520D01*
Y244094D01*
X77836Y245122D01*
X77439Y246080D01*
X76808Y246902D01*
X75985Y247533D01*
X75028Y247930D01*
X74000Y248065D01*
D02*
G37*
G36*
X385935Y239764D02*
X383386D01*
Y236588D01*
X384096Y236882D01*
X384879Y237483D01*
X385480Y238266D01*
X385858Y239179D01*
X385935Y239764D01*
D02*
G37*
G36*
X381024D02*
X378475D01*
X378552Y239179D01*
X378929Y238266D01*
X379531Y237483D01*
X380314Y236882D01*
X381024Y236588D01*
Y239764D01*
D02*
G37*
G36*
X366142Y245669D02*
X358268D01*
Y236221D01*
X366142D01*
Y245669D01*
D02*
G37*
G36*
X372205Y245703D02*
X371177Y245568D01*
X370219Y245171D01*
X369397Y244540D01*
X368766Y243718D01*
X368369Y242760D01*
X368234Y241732D01*
Y240158D01*
X368369Y239130D01*
X368766Y238172D01*
X369397Y237350D01*
X370219Y236719D01*
X371177Y236322D01*
X372205Y236187D01*
X373233Y236322D01*
X374190Y236719D01*
X375013Y237350D01*
X375644Y238172D01*
X376040Y239130D01*
X376176Y240158D01*
Y241732D01*
X376040Y242760D01*
X375644Y243718D01*
X375013Y244540D01*
X374190Y245171D01*
X373233Y245568D01*
X372205Y245703D01*
D02*
G37*
G36*
X60000Y250428D02*
X58611Y250291D01*
X57275Y249886D01*
X56044Y249228D01*
X54965Y248342D01*
X54079Y247263D01*
X53421Y246032D01*
X53016Y244696D01*
X52879Y243307D01*
X53016Y241918D01*
X53421Y240582D01*
X54079Y239351D01*
X54965Y238272D01*
X56044Y237386D01*
X57275Y236728D01*
X58611Y236323D01*
X60000Y236186D01*
X61389Y236323D01*
X62725Y236728D01*
X63956Y237386D01*
X65035Y238272D01*
X65921Y239351D01*
X66579Y240582D01*
X66984Y241918D01*
X67121Y243307D01*
X66984Y244696D01*
X66579Y246032D01*
X65921Y247263D01*
X65035Y248342D01*
X63956Y249228D01*
X62725Y249886D01*
X61389Y250291D01*
X60000Y250428D01*
D02*
G37*
G36*
X11890Y241965D02*
X10811Y241823D01*
X9805Y241406D01*
X8941Y240744D01*
X8279Y239880D01*
X7862Y238874D01*
X7720Y237795D01*
X7862Y236716D01*
X8279Y235711D01*
X8941Y234847D01*
X9805Y234184D01*
X10811Y233768D01*
X11890Y233626D01*
X12969Y233768D01*
X13974Y234184D01*
X14838Y234847D01*
X15501Y235711D01*
X15917Y236716D01*
X16059Y237795D01*
X15917Y238874D01*
X15501Y239880D01*
X14838Y240744D01*
X13974Y241406D01*
X12969Y241823D01*
X11890Y241965D01*
D02*
G37*
G36*
X383386Y233490D02*
Y230315D01*
X385935D01*
X385858Y230900D01*
X385480Y231812D01*
X384879Y232595D01*
X384096Y233196D01*
X383386Y233490D01*
D02*
G37*
G36*
X381024Y233491D02*
X380314Y233196D01*
X379531Y232595D01*
X378929Y231812D01*
X378552Y230900D01*
X378475Y230315D01*
X381024D01*
Y233491D01*
D02*
G37*
G36*
X13071Y231578D02*
Y228976D01*
X15672D01*
X15337Y229785D01*
X14704Y230610D01*
X13880Y231242D01*
X13071Y231578D01*
D02*
G37*
G36*
X10709Y231578D02*
X9900Y231242D01*
X9075Y230610D01*
X8443Y229785D01*
X8107Y228976D01*
X10709D01*
Y231578D01*
D02*
G37*
G36*
X385935Y227953D02*
X383386D01*
Y224777D01*
X384096Y225071D01*
X384879Y225672D01*
X385480Y226455D01*
X385858Y227368D01*
X385935Y227953D01*
D02*
G37*
G36*
X381024D02*
X378475D01*
X378552Y227368D01*
X378929Y226455D01*
X379531Y225672D01*
X380314Y225071D01*
X381024Y224777D01*
Y227953D01*
D02*
G37*
G36*
X366142Y233858D02*
X358268D01*
Y224410D01*
X366142D01*
Y233858D01*
D02*
G37*
G36*
X372205Y233892D02*
X371177Y233757D01*
X370219Y233360D01*
X369397Y232729D01*
X368766Y231907D01*
X368369Y230949D01*
X368234Y229921D01*
Y228346D01*
X368369Y227319D01*
X368766Y226361D01*
X369397Y225538D01*
X370219Y224907D01*
X371177Y224511D01*
X372205Y224376D01*
X373233Y224511D01*
X374190Y224907D01*
X375013Y225538D01*
X375644Y226361D01*
X376040Y227319D01*
X376176Y228346D01*
Y229921D01*
X376040Y230949D01*
X375644Y231907D01*
X375013Y232729D01*
X374190Y233360D01*
X373233Y233757D01*
X372205Y233892D01*
D02*
G37*
G36*
X15672Y226614D02*
X13071D01*
Y224013D01*
X13880Y224348D01*
X14704Y224981D01*
X15337Y225805D01*
X15672Y226614D01*
D02*
G37*
G36*
X10709D02*
X8107D01*
X8443Y225805D01*
X9075Y224981D01*
X9900Y224348D01*
X10709Y224013D01*
Y226614D01*
D02*
G37*
G36*
X220000Y248065D02*
X218972Y247930D01*
X218015Y247533D01*
X217192Y246902D01*
X216561Y246080D01*
X216164Y245122D01*
X216029Y244094D01*
Y242520D01*
X216164Y241492D01*
X216561Y240534D01*
X217192Y239712D01*
X218015Y239081D01*
X218796Y238757D01*
Y231181D01*
X218796Y231181D01*
X218887Y230720D01*
X219148Y230330D01*
X224731Y224747D01*
X224664Y224410D01*
X224825Y223603D01*
X225282Y222919D01*
X225965Y222462D01*
X226772Y222302D01*
X227578Y222462D01*
X228262Y222919D01*
X228719Y223603D01*
X228879Y224410D01*
X228719Y225216D01*
X228262Y225900D01*
X227578Y226356D01*
X226772Y226517D01*
X226434Y226450D01*
X221204Y231680D01*
Y238757D01*
X221986Y239081D01*
X222808Y239712D01*
X223439Y240534D01*
X223836Y241492D01*
X223971Y242520D01*
Y244094D01*
X223836Y245122D01*
X223439Y246080D01*
X222808Y246902D01*
X221986Y247533D01*
X221028Y247930D01*
X220000Y248065D01*
D02*
G37*
G36*
X70866Y227001D02*
X69890Y226872D01*
X68980Y226495D01*
X68199Y225896D01*
X67599Y225115D01*
X67222Y224205D01*
X67094Y223228D01*
X67222Y222252D01*
X67599Y221342D01*
X68199Y220561D01*
X68980Y219961D01*
X69890Y219584D01*
X70866Y219456D01*
X71842Y219584D01*
X72752Y219961D01*
X73534Y220561D01*
X74133Y221342D01*
X74510Y222252D01*
X74639Y223228D01*
X74510Y224205D01*
X74133Y225115D01*
X73534Y225896D01*
X72752Y226495D01*
X71842Y226872D01*
X70866Y227001D01*
D02*
G37*
G36*
X383386Y221679D02*
Y218504D01*
X385935D01*
X385858Y219089D01*
X385480Y220001D01*
X384879Y220784D01*
X384096Y221386D01*
X383386Y221679D01*
D02*
G37*
G36*
X381024Y221680D02*
X380314Y221386D01*
X379531Y220784D01*
X378929Y220001D01*
X378552Y219089D01*
X378475Y218504D01*
X381024D01*
Y221680D01*
D02*
G37*
G36*
X210000Y248065D02*
X208972Y247930D01*
X208014Y247533D01*
X207192Y246902D01*
X206561Y246080D01*
X206164Y245122D01*
X206029Y244094D01*
Y242520D01*
X206164Y241492D01*
X206561Y240534D01*
X207192Y239712D01*
X208014Y239081D01*
X208687Y238802D01*
Y236063D01*
X208787Y235561D01*
X208796Y235548D01*
Y231339D01*
X208796Y231339D01*
X208887Y230878D01*
X209149Y230487D01*
X219613Y220022D01*
X219546Y219685D01*
X219707Y218879D01*
X220163Y218195D01*
X220847Y217738D01*
X221654Y217578D01*
X222460Y217738D01*
X223144Y218195D01*
X223601Y218879D01*
X223761Y219685D01*
X223601Y220492D01*
X223144Y221175D01*
X222460Y221632D01*
X221654Y221793D01*
X221316Y221725D01*
X211204Y231837D01*
Y235548D01*
X211213Y235561D01*
X211313Y236063D01*
Y238802D01*
X211985Y239081D01*
X212808Y239712D01*
X213439Y240534D01*
X213836Y241492D01*
X213971Y242520D01*
Y244094D01*
X213836Y245122D01*
X213439Y246080D01*
X212808Y246902D01*
X211985Y247533D01*
X211028Y247930D01*
X210000Y248065D01*
D02*
G37*
G36*
X385935Y216142D02*
X383386D01*
Y212966D01*
X384096Y213260D01*
X384879Y213861D01*
X385480Y214644D01*
X385858Y215557D01*
X385935Y216142D01*
D02*
G37*
G36*
X381024D02*
X378475D01*
X378552Y215557D01*
X378929Y214644D01*
X379531Y213861D01*
X380314Y213260D01*
X381024Y212966D01*
Y216142D01*
D02*
G37*
G36*
X366142Y222047D02*
X358268D01*
Y212598D01*
X366142D01*
Y222047D01*
D02*
G37*
G36*
X372205Y222081D02*
X371177Y221946D01*
X370219Y221549D01*
X369397Y220918D01*
X368766Y220096D01*
X368369Y219138D01*
X368234Y218110D01*
Y216535D01*
X368369Y215508D01*
X368766Y214550D01*
X369397Y213727D01*
X370219Y213096D01*
X371177Y212700D01*
X372205Y212564D01*
X373233Y212700D01*
X374190Y213096D01*
X375013Y213727D01*
X375644Y214550D01*
X376040Y215508D01*
X376176Y216535D01*
Y218110D01*
X376040Y219138D01*
X375644Y220096D01*
X375013Y220918D01*
X374190Y221549D01*
X373233Y221946D01*
X372205Y222081D01*
D02*
G37*
G36*
X383386Y209869D02*
Y206693D01*
X385935D01*
X385858Y207278D01*
X385480Y208190D01*
X384879Y208974D01*
X384096Y209575D01*
X383386Y209869D01*
D02*
G37*
G36*
X381024Y209869D02*
X380314Y209575D01*
X379531Y208974D01*
X378929Y208190D01*
X378552Y207278D01*
X378475Y206693D01*
X381024D01*
Y209869D01*
D02*
G37*
G36*
X10236Y214015D02*
X9054Y213860D01*
X7953Y213404D01*
X7007Y212678D01*
X6281Y211732D01*
X5825Y210631D01*
X5670Y209449D01*
X5825Y208267D01*
X6281Y207166D01*
X7007Y206220D01*
X7953Y205494D01*
X9054Y205038D01*
X10236Y204882D01*
X11418Y205038D01*
X12519Y205494D01*
X13465Y206220D01*
X14191Y207166D01*
X14647Y208267D01*
X14803Y209449D01*
X14647Y210631D01*
X14191Y211732D01*
X13465Y212678D01*
X12519Y213404D01*
X11418Y213860D01*
X10236Y214015D01*
D02*
G37*
G36*
X385935Y204331D02*
X383386D01*
Y201155D01*
X384096Y201449D01*
X384879Y202050D01*
X385480Y202833D01*
X385858Y203746D01*
X385935Y204331D01*
D02*
G37*
G36*
X381024D02*
X378475D01*
X378552Y203746D01*
X378929Y202833D01*
X379531Y202050D01*
X380314Y201449D01*
X381024Y201155D01*
Y204331D01*
D02*
G37*
G36*
X366142Y210236D02*
X358268D01*
Y200787D01*
X366142D01*
Y210236D01*
D02*
G37*
G36*
X372205Y210270D02*
X371177Y210135D01*
X370219Y209738D01*
X369397Y209107D01*
X368766Y208285D01*
X368369Y207327D01*
X368234Y206299D01*
Y204724D01*
X368369Y203697D01*
X368766Y202739D01*
X369397Y201917D01*
X370219Y201285D01*
X371177Y200889D01*
X372205Y200753D01*
X373233Y200889D01*
X374190Y201285D01*
X375013Y201917D01*
X375644Y202739D01*
X376040Y203697D01*
X376176Y204724D01*
Y206299D01*
X376040Y207327D01*
X375644Y208285D01*
X375013Y209107D01*
X374190Y209738D01*
X373233Y210135D01*
X372205Y210270D01*
D02*
G37*
G36*
X34646Y196072D02*
X31487D01*
Y192913D01*
X34646D01*
Y196072D01*
D02*
G37*
G36*
X11417Y195941D02*
Y192913D01*
X14445D01*
X14027Y193921D01*
X13332Y194828D01*
X12425Y195523D01*
X11417Y195941D01*
D02*
G37*
G36*
X9055Y195941D02*
X8047Y195523D01*
X7141Y194828D01*
X6445Y193921D01*
X6028Y192913D01*
X9055D01*
Y195941D01*
D02*
G37*
G36*
X318898Y193544D02*
X318091Y193384D01*
X317407Y192927D01*
X317230Y192661D01*
X316629D01*
X316451Y192927D01*
X315767Y193384D01*
X314961Y193544D01*
X314154Y193384D01*
X313471Y192927D01*
X313293Y192661D01*
X312691D01*
X312514Y192927D01*
X311830Y193384D01*
X311024Y193544D01*
X310217Y193384D01*
X309533Y192927D01*
X309356Y192661D01*
X308754D01*
X308577Y192927D01*
X307893Y193384D01*
X307087Y193544D01*
X306280Y193384D01*
X305596Y192927D01*
X305419Y192661D01*
X304817D01*
X304640Y192927D01*
X303956Y193384D01*
X303150Y193544D01*
X302343Y193384D01*
X301659Y192927D01*
X301482Y192661D01*
X300880D01*
X300703Y192927D01*
X300019Y193384D01*
X299213Y193544D01*
X298406Y193384D01*
X297722Y192927D01*
X297266Y192244D01*
X297105Y191437D01*
X297266Y190630D01*
X297722Y189947D01*
X298406Y189490D01*
X299189Y189334D01*
Y167428D01*
X297475Y165714D01*
X297214Y165323D01*
X297123Y164862D01*
X297123Y164862D01*
Y163764D01*
X296658Y163609D01*
X296622Y163608D01*
X296277Y163953D01*
X296017Y164128D01*
X295709Y164189D01*
X253543D01*
X253236Y164128D01*
X252976Y163953D01*
X252802Y163693D01*
X252741Y163386D01*
Y156693D01*
Y154887D01*
X252802Y154580D01*
X252976Y154320D01*
X253236Y154146D01*
X253630Y153983D01*
X253937Y153922D01*
X261295D01*
X261434Y153610D01*
X261477Y153422D01*
X261045Y152775D01*
X260885Y151969D01*
X261045Y151162D01*
X261502Y150478D01*
X262186Y150022D01*
X262760Y149907D01*
X264601Y148066D01*
X264992Y147805D01*
X265453Y147713D01*
X272736D01*
X272736Y147713D01*
X273197Y147805D01*
X273588Y148066D01*
X276089Y150567D01*
X280365D01*
X280632Y150067D01*
X280336Y149625D01*
X280176Y148819D01*
X280336Y148012D01*
X280793Y147329D01*
X281079Y147138D01*
Y141050D01*
X270999Y130970D01*
X270738Y130579D01*
X270646Y130118D01*
X270646Y130118D01*
Y120579D01*
X270360Y120388D01*
X269903Y119704D01*
X269743Y118898D01*
X269903Y118091D01*
X270360Y117408D01*
X271044Y116951D01*
X271850Y116790D01*
X272657Y116951D01*
X273341Y117408D01*
X273797Y118091D01*
X273958Y118898D01*
X273894Y119220D01*
X274320Y119642D01*
X274803Y119546D01*
X275610Y119706D01*
X275953Y119936D01*
X276453Y119669D01*
Y113766D01*
X276279Y113623D01*
X275473Y113463D01*
X274789Y113006D01*
X274332Y112322D01*
X274172Y111516D01*
X274332Y110709D01*
X274789Y110026D01*
X275473Y109569D01*
X276279Y109408D01*
X277086Y109569D01*
X277770Y110026D01*
X277931Y110267D01*
X278532D01*
X278628Y110124D01*
X279312Y109667D01*
X280118Y109507D01*
X280925Y109667D01*
X281268Y109897D01*
X281768Y109629D01*
Y107973D01*
X281768Y107973D01*
X281860Y107512D01*
X282121Y107121D01*
X283688Y105554D01*
X283621Y105217D01*
X283781Y104410D01*
X284238Y103726D01*
X284922Y103270D01*
X285728Y103109D01*
X286535Y103270D01*
X287218Y103726D01*
X287675Y104410D01*
X287836Y105217D01*
X287675Y106023D01*
X287218Y106707D01*
X286535Y107164D01*
X285728Y107324D01*
X285391Y107257D01*
X284177Y108471D01*
Y109367D01*
X284677Y109634D01*
X284922Y109470D01*
X285728Y109310D01*
X286535Y109470D01*
X287218Y109927D01*
X287675Y110611D01*
X287836Y111417D01*
X287675Y112224D01*
X287218Y112908D01*
X286933Y113099D01*
Y125689D01*
X286933Y125689D01*
X286885Y125930D01*
X302820Y141865D01*
X303081Y142256D01*
X303173Y142717D01*
Y147138D01*
X303459Y147329D01*
X303916Y148012D01*
X304076Y148819D01*
X303916Y149625D01*
X303620Y150067D01*
X303887Y150567D01*
X305800D01*
X307218Y149150D01*
X307010Y148838D01*
X306849Y148031D01*
X307010Y147225D01*
X307467Y146541D01*
X308150Y146084D01*
X308957Y145924D01*
X309763Y146084D01*
X310447Y146541D01*
X310690Y146906D01*
X311292D01*
X311403Y146738D01*
X312087Y146281D01*
X312894Y146121D01*
X313658Y146273D01*
X313780Y146258D01*
X314158Y146057D01*
Y142126D01*
Y124016D01*
X314219Y123708D01*
X314393Y123448D01*
X314653Y123274D01*
X314961Y123213D01*
X330315D01*
X330622Y123274D01*
X330883Y123448D01*
X331057Y123708D01*
X331118Y124016D01*
Y150787D01*
X331118Y150787D01*
X331057Y151095D01*
X330883Y151355D01*
X330883Y151355D01*
X318284Y163953D01*
X318024Y164128D01*
X317717Y164189D01*
X300394D01*
X299915Y164568D01*
X299890Y164722D01*
X301245Y166078D01*
X301506Y166468D01*
X301598Y166929D01*
Y171178D01*
X302098Y171445D01*
X302343Y171281D01*
X303150Y171121D01*
X303956Y171281D01*
X304640Y171738D01*
X304817Y172004D01*
X305419D01*
X305596Y171738D01*
X306280Y171281D01*
X307087Y171121D01*
X307893Y171281D01*
X308577Y171738D01*
X308754Y172004D01*
X309356D01*
X309533Y171738D01*
X310217Y171281D01*
X311024Y171121D01*
X311830Y171281D01*
X312514Y171738D01*
X312691Y172004D01*
X313293D01*
X313471Y171738D01*
X314154Y171281D01*
X314961Y171121D01*
X315767Y171281D01*
X316451Y171738D01*
X316629Y172004D01*
X317230D01*
X317407Y171738D01*
X318091Y171281D01*
X318898Y171121D01*
X319704Y171281D01*
X320388Y171738D01*
X320845Y172422D01*
X321005Y173228D01*
X320845Y174035D01*
X320388Y174718D01*
X320102Y174910D01*
Y189756D01*
X320388Y189947D01*
X320845Y190630D01*
X321005Y191437D01*
X320845Y192244D01*
X320388Y192927D01*
X319704Y193384D01*
X318898Y193544D01*
D02*
G37*
G36*
X383386Y194908D02*
Y191732D01*
X385935D01*
X385858Y192317D01*
X385480Y193230D01*
X384879Y194013D01*
X384096Y194614D01*
X383386Y194908D01*
D02*
G37*
G36*
X381024Y194908D02*
X380314Y194614D01*
X379531Y194013D01*
X378929Y193230D01*
X378552Y192317D01*
X378475Y191732D01*
X381024D01*
Y194908D01*
D02*
G37*
G36*
X9055Y190551D02*
X6028D01*
X6445Y189543D01*
X7141Y188637D01*
X8047Y187941D01*
X9055Y187524D01*
Y190551D01*
D02*
G37*
G36*
X14445D02*
X11417D01*
Y187524D01*
X12425Y187941D01*
X13332Y188637D01*
X14027Y189543D01*
X14445Y190551D01*
D02*
G37*
G36*
X40167Y190551D02*
X37008D01*
Y187392D01*
X40167D01*
Y190551D01*
D02*
G37*
G36*
X34646D02*
X31487D01*
Y187392D01*
X34646D01*
Y190551D01*
D02*
G37*
G36*
X385935Y189370D02*
X383386D01*
Y186195D01*
X384096Y186488D01*
X384879Y187090D01*
X385480Y187873D01*
X385858Y188785D01*
X385935Y189370D01*
D02*
G37*
G36*
X381024D02*
X378475D01*
X378552Y188785D01*
X378929Y187873D01*
X379531Y187090D01*
X380314Y186488D01*
X381024Y186194D01*
Y189370D01*
D02*
G37*
G36*
X366142Y195276D02*
X358268D01*
Y185827D01*
X366142D01*
Y195276D01*
D02*
G37*
G36*
X372205Y195310D02*
X371177Y195174D01*
X370219Y194778D01*
X369397Y194147D01*
X368766Y193324D01*
X368369Y192366D01*
X368234Y191339D01*
Y189764D01*
X368369Y188736D01*
X368766Y187778D01*
X369397Y186956D01*
X370219Y186325D01*
X371177Y185928D01*
X372205Y185793D01*
X373233Y185928D01*
X374190Y186325D01*
X375013Y186956D01*
X375644Y187778D01*
X376040Y188736D01*
X376176Y189764D01*
Y191339D01*
X376040Y192366D01*
X375644Y193324D01*
X375013Y194147D01*
X374190Y194778D01*
X373233Y195174D01*
X372205Y195310D01*
D02*
G37*
G36*
X383386Y183097D02*
Y179921D01*
X385935D01*
X385858Y180506D01*
X385480Y181419D01*
X384879Y182202D01*
X384096Y182803D01*
X383386Y183097D01*
D02*
G37*
G36*
X381024Y183097D02*
X380314Y182803D01*
X379531Y182202D01*
X378929Y181419D01*
X378552Y180506D01*
X378475Y179921D01*
X381024D01*
Y183097D01*
D02*
G37*
G36*
X385935Y177559D02*
X383386D01*
Y174383D01*
X384096Y174678D01*
X384879Y175278D01*
X385480Y176062D01*
X385858Y176974D01*
X385935Y177559D01*
D02*
G37*
G36*
X381024D02*
X378475D01*
X378552Y176974D01*
X378929Y176062D01*
X379531Y175278D01*
X380314Y174678D01*
X381024Y174383D01*
Y177559D01*
D02*
G37*
G36*
X366142Y183465D02*
X358268D01*
Y174016D01*
X366142D01*
Y183465D01*
D02*
G37*
G36*
X372205Y183499D02*
X371177Y183363D01*
X370219Y182966D01*
X369397Y182335D01*
X368766Y181513D01*
X368369Y180555D01*
X368234Y179528D01*
Y177953D01*
X368369Y176925D01*
X368766Y175967D01*
X369397Y175145D01*
X370219Y174514D01*
X371177Y174117D01*
X372205Y173982D01*
X373233Y174117D01*
X374190Y174514D01*
X375013Y175145D01*
X375644Y175967D01*
X376040Y176925D01*
X376176Y177953D01*
Y179528D01*
X376040Y180555D01*
X375644Y181513D01*
X375013Y182335D01*
X374190Y182966D01*
X373233Y183363D01*
X372205Y183499D01*
D02*
G37*
G36*
X383386Y171286D02*
Y168110D01*
X385935D01*
X385858Y168695D01*
X385480Y169607D01*
X384879Y170391D01*
X384096Y170992D01*
X383386Y171286D01*
D02*
G37*
G36*
X381024Y171286D02*
X380314Y170992D01*
X379531Y170391D01*
X378929Y169607D01*
X378552Y168695D01*
X378475Y168110D01*
X381024D01*
Y171286D01*
D02*
G37*
G36*
X385935Y165748D02*
X383386D01*
Y162572D01*
X384096Y162866D01*
X384879Y163468D01*
X385480Y164251D01*
X385858Y165163D01*
X385935Y165748D01*
D02*
G37*
G36*
X381024D02*
X378475D01*
X378552Y165163D01*
X378929Y164251D01*
X379531Y163468D01*
X380314Y162866D01*
X381024Y162572D01*
Y165748D01*
D02*
G37*
G36*
X366142Y171653D02*
X358268D01*
Y162205D01*
X366142D01*
Y171653D01*
D02*
G37*
G36*
X372205Y171687D02*
X371177Y171552D01*
X370219Y171156D01*
X369397Y170524D01*
X368766Y169702D01*
X368369Y168744D01*
X368234Y167717D01*
Y166142D01*
X368369Y165114D01*
X368766Y164156D01*
X369397Y163334D01*
X370219Y162703D01*
X371177Y162306D01*
X372205Y162171D01*
X373233Y162306D01*
X374190Y162703D01*
X375013Y163334D01*
X375644Y164156D01*
X376040Y165114D01*
X376176Y166142D01*
Y167717D01*
X376040Y168744D01*
X375644Y169702D01*
X375013Y170524D01*
X374190Y171156D01*
X373233Y171552D01*
X372205Y171687D01*
D02*
G37*
G36*
X383386Y159475D02*
Y156299D01*
X385935D01*
X385858Y156884D01*
X385480Y157797D01*
X384879Y158580D01*
X384096Y159181D01*
X383386Y159475D01*
D02*
G37*
G36*
X381024Y159475D02*
X380314Y159181D01*
X379531Y158580D01*
X378929Y157797D01*
X378552Y156884D01*
X378475Y156299D01*
X381024D01*
Y159475D01*
D02*
G37*
G36*
X385935Y153937D02*
X383386D01*
Y150761D01*
X384096Y151055D01*
X384879Y151656D01*
X385480Y152440D01*
X385858Y153352D01*
X385935Y153937D01*
D02*
G37*
G36*
X381024D02*
X378475D01*
X378552Y153352D01*
X378929Y152440D01*
X379531Y151656D01*
X380314Y151055D01*
X381024Y150761D01*
Y153937D01*
D02*
G37*
G36*
X366142Y159843D02*
X358268D01*
Y150394D01*
X366142D01*
Y159843D01*
D02*
G37*
G36*
X372205Y159877D02*
X371177Y159741D01*
X370219Y159344D01*
X369397Y158713D01*
X368766Y157891D01*
X368369Y156933D01*
X368234Y155905D01*
Y154331D01*
X368369Y153303D01*
X368766Y152345D01*
X369397Y151523D01*
X370219Y150892D01*
X371177Y150495D01*
X372205Y150360D01*
X373233Y150495D01*
X374190Y150892D01*
X375013Y151523D01*
X375644Y152345D01*
X376040Y153303D01*
X376176Y154331D01*
Y155905D01*
X376040Y156933D01*
X375644Y157891D01*
X375013Y158713D01*
X374190Y159344D01*
X373233Y159741D01*
X372205Y159877D01*
D02*
G37*
G36*
X110236Y179273D02*
X109430Y179112D01*
X108746Y178656D01*
X108289Y177972D01*
X108129Y177165D01*
X108289Y176359D01*
X108746Y175675D01*
X109032Y175484D01*
Y148532D01*
X108746Y148341D01*
X108289Y147657D01*
X108129Y146850D01*
X108289Y146044D01*
X108746Y145360D01*
X109430Y144903D01*
X110236Y144743D01*
X111043Y144903D01*
X111726Y145360D01*
X112183Y146044D01*
X112344Y146850D01*
X112183Y147657D01*
X111726Y148341D01*
X111441Y148532D01*
Y175484D01*
X111726Y175675D01*
X112183Y176359D01*
X112344Y177165D01*
X112183Y177972D01*
X111726Y178656D01*
X111043Y179112D01*
X110236Y179273D01*
D02*
G37*
G36*
X16339Y148169D02*
X15571Y148016D01*
X14919Y147581D01*
X14484Y146930D01*
X14332Y146161D01*
X14484Y145393D01*
X14919Y144742D01*
X15571Y144307D01*
X16339Y144154D01*
X17107Y144307D01*
X17758Y144742D01*
X18193Y145393D01*
X18346Y146161D01*
X18193Y146930D01*
X17758Y147581D01*
X17107Y148016D01*
X16339Y148169D01*
D02*
G37*
G36*
X383386Y144514D02*
Y141339D01*
X385935D01*
X385858Y141924D01*
X385480Y142836D01*
X384879Y143619D01*
X384096Y144220D01*
X383386Y144514D01*
D02*
G37*
G36*
X381024Y144514D02*
X380314Y144220D01*
X379531Y143619D01*
X378929Y142836D01*
X378552Y141924D01*
X378475Y141339D01*
X381024D01*
Y144514D01*
D02*
G37*
G36*
X385935Y138976D02*
X383386D01*
Y135801D01*
X384096Y136095D01*
X384879Y136696D01*
X385480Y137479D01*
X385858Y138391D01*
X385935Y138976D01*
D02*
G37*
G36*
X381024D02*
X378475D01*
X378552Y138391D01*
X378929Y137479D01*
X379531Y136696D01*
X380314Y136095D01*
X381024Y135801D01*
Y138976D01*
D02*
G37*
G36*
X366142Y144882D02*
X358268D01*
Y135433D01*
X366142D01*
Y144882D01*
D02*
G37*
G36*
X372205Y144916D02*
X371177Y144781D01*
X370219Y144384D01*
X369397Y143753D01*
X368766Y142930D01*
X368369Y141973D01*
X368234Y140945D01*
Y139370D01*
X368369Y138342D01*
X368766Y137385D01*
X369397Y136562D01*
X370219Y135931D01*
X371177Y135534D01*
X372205Y135399D01*
X373233Y135534D01*
X374190Y135931D01*
X375013Y136562D01*
X375644Y137385D01*
X376040Y138342D01*
X376176Y139370D01*
Y140945D01*
X376040Y141973D01*
X375644Y142930D01*
X375013Y143753D01*
X374190Y144384D01*
X373233Y144781D01*
X372205Y144916D01*
D02*
G37*
G36*
X383386Y132703D02*
Y129527D01*
X385935D01*
X385858Y130113D01*
X385480Y131025D01*
X384879Y131808D01*
X384096Y132409D01*
X383386Y132703D01*
D02*
G37*
G36*
X381024Y132703D02*
X380314Y132409D01*
X379531Y131808D01*
X378929Y131025D01*
X378552Y130113D01*
X378475Y129527D01*
X381024D01*
Y132703D01*
D02*
G37*
G36*
X16339Y132421D02*
X15571Y132268D01*
X14919Y131833D01*
X14484Y131182D01*
X14332Y130413D01*
X14484Y129645D01*
X14919Y128994D01*
X15571Y128559D01*
X16339Y128406D01*
X17107Y128559D01*
X17758Y128994D01*
X18193Y129645D01*
X18346Y130413D01*
X18193Y131182D01*
X17758Y131833D01*
X17107Y132268D01*
X16339Y132421D01*
D02*
G37*
G36*
X385935Y127165D02*
X383386D01*
Y123990D01*
X384096Y124284D01*
X384879Y124885D01*
X385480Y125668D01*
X385858Y126580D01*
X385935Y127165D01*
D02*
G37*
G36*
X381024D02*
X378475D01*
X378552Y126580D01*
X378929Y125668D01*
X379531Y124885D01*
X380314Y124284D01*
X381024Y123990D01*
Y127165D01*
D02*
G37*
G36*
X366142Y133071D02*
X358268D01*
Y123622D01*
X366142D01*
Y133071D01*
D02*
G37*
G36*
X372205Y133105D02*
X371177Y132969D01*
X370219Y132573D01*
X369397Y131942D01*
X368766Y131119D01*
X368369Y130162D01*
X368234Y129134D01*
Y127559D01*
X368369Y126531D01*
X368766Y125574D01*
X369397Y124751D01*
X370219Y124120D01*
X371177Y123723D01*
X372205Y123588D01*
X373233Y123723D01*
X374190Y124120D01*
X375013Y124751D01*
X375644Y125574D01*
X376040Y126531D01*
X376176Y127559D01*
Y129134D01*
X376040Y130162D01*
X375644Y131119D01*
X375013Y131942D01*
X374190Y132573D01*
X373233Y132969D01*
X372205Y133105D01*
D02*
G37*
G36*
X383386Y120892D02*
Y117716D01*
X385935D01*
X385858Y118302D01*
X385480Y119214D01*
X384879Y119997D01*
X384096Y120598D01*
X383386Y120892D01*
D02*
G37*
G36*
X381024Y120892D02*
X380314Y120598D01*
X379531Y119997D01*
X378929Y119214D01*
X378552Y118302D01*
X378475Y117716D01*
X381024D01*
Y120892D01*
D02*
G37*
G36*
X385935Y115354D02*
X383386D01*
Y112179D01*
X384096Y112473D01*
X384879Y113074D01*
X385480Y113857D01*
X385858Y114769D01*
X385935Y115354D01*
D02*
G37*
G36*
X381024D02*
X378475D01*
X378552Y114769D01*
X378929Y113857D01*
X379531Y113074D01*
X380314Y112473D01*
X381024Y112179D01*
Y115354D01*
D02*
G37*
G36*
X366142Y121260D02*
X358268D01*
Y111811D01*
X366142D01*
Y121260D01*
D02*
G37*
G36*
X372205Y121294D02*
X371177Y121159D01*
X370219Y120762D01*
X369397Y120131D01*
X368766Y119308D01*
X368369Y118351D01*
X368234Y117323D01*
Y115748D01*
X368369Y114720D01*
X368766Y113762D01*
X369397Y112940D01*
X370219Y112309D01*
X371177Y111912D01*
X372205Y111777D01*
X373233Y111912D01*
X374190Y112309D01*
X375013Y112940D01*
X375644Y113762D01*
X376040Y114720D01*
X376176Y115748D01*
Y117323D01*
X376040Y118351D01*
X375644Y119308D01*
X375013Y120131D01*
X374190Y120762D01*
X373233Y121159D01*
X372205Y121294D01*
D02*
G37*
G36*
X191732Y115100D02*
X190926Y114939D01*
X190242Y114482D01*
X189785Y113799D01*
X189660Y113170D01*
X182003Y105513D01*
X157268D01*
X156712Y105884D01*
X155905Y106044D01*
X155099Y105884D01*
X154415Y105427D01*
X153958Y104744D01*
X153798Y103937D01*
X153958Y103130D01*
X154415Y102447D01*
X155099Y101990D01*
X155905Y101830D01*
X156712Y101990D01*
X157396Y102447D01*
X157690Y102887D01*
X182546D01*
X183049Y102987D01*
X183475Y103272D01*
X191194Y110992D01*
X191732Y110885D01*
X192539Y111045D01*
X193222Y111502D01*
X193679Y112186D01*
X193840Y112992D01*
X193679Y113799D01*
X193222Y114482D01*
X192539Y114939D01*
X191732Y115100D01*
D02*
G37*
G36*
X383386Y109081D02*
Y105905D01*
X385935D01*
X385858Y106491D01*
X385480Y107403D01*
X384879Y108186D01*
X384096Y108787D01*
X383386Y109081D01*
D02*
G37*
G36*
X381024Y109081D02*
X380314Y108787D01*
X379531Y108186D01*
X378929Y107403D01*
X378552Y106491D01*
X378475Y105905D01*
X381024D01*
Y109081D01*
D02*
G37*
G36*
X385935Y103543D02*
X383386D01*
Y100368D01*
X384096Y100662D01*
X384879Y101263D01*
X385480Y102046D01*
X385858Y102958D01*
X385935Y103543D01*
D02*
G37*
G36*
X381024D02*
X378475D01*
X378552Y102958D01*
X378929Y102046D01*
X379531Y101263D01*
X380314Y100662D01*
X381024Y100368D01*
Y103543D01*
D02*
G37*
G36*
X366142Y109449D02*
X358268D01*
Y100000D01*
X366142D01*
Y109449D01*
D02*
G37*
G36*
X372205Y109483D02*
X371177Y109347D01*
X370219Y108951D01*
X369397Y108320D01*
X368766Y107497D01*
X368369Y106540D01*
X368234Y105512D01*
Y103937D01*
X368369Y102909D01*
X368766Y101952D01*
X369397Y101129D01*
X370219Y100498D01*
X371177Y100101D01*
X372205Y99966D01*
X373233Y100101D01*
X374190Y100498D01*
X375013Y101129D01*
X375644Y101952D01*
X376040Y102909D01*
X376176Y103937D01*
Y105512D01*
X376040Y106540D01*
X375644Y107497D01*
X375013Y108320D01*
X374190Y108951D01*
X373233Y109347D01*
X372205Y109483D01*
D02*
G37*
G36*
X16929Y101969D02*
X7480D01*
Y94095D01*
X16929D01*
Y101969D01*
D02*
G37*
G36*
X383386Y94120D02*
Y90945D01*
X385935D01*
X385858Y91530D01*
X385480Y92442D01*
X384879Y93225D01*
X384096Y93827D01*
X383386Y94120D01*
D02*
G37*
G36*
X381024Y94121D02*
X380314Y93827D01*
X379531Y93225D01*
X378929Y92442D01*
X378552Y91530D01*
X378475Y90945D01*
X381024D01*
Y94121D01*
D02*
G37*
G36*
X385935Y88583D02*
X383386D01*
Y85407D01*
X384096Y85701D01*
X384879Y86302D01*
X385480Y87085D01*
X385858Y87998D01*
X385935Y88583D01*
D02*
G37*
G36*
X381024D02*
X378475D01*
X378552Y87998D01*
X378929Y87085D01*
X379531Y86302D01*
X380314Y85701D01*
X381024Y85407D01*
Y88583D01*
D02*
G37*
G36*
X366142Y94488D02*
X358268D01*
Y85039D01*
X366142D01*
Y94488D01*
D02*
G37*
G36*
X372205Y94522D02*
X371177Y94387D01*
X370219Y93990D01*
X369397Y93359D01*
X368766Y92537D01*
X368369Y91579D01*
X368234Y90551D01*
Y88976D01*
X368369Y87949D01*
X368766Y86991D01*
X369397Y86168D01*
X370219Y85537D01*
X371177Y85141D01*
X372205Y85005D01*
X373233Y85141D01*
X374190Y85537D01*
X375013Y86168D01*
X375644Y86991D01*
X376040Y87949D01*
X376176Y88976D01*
Y90551D01*
X376040Y91579D01*
X375644Y92537D01*
X375013Y93359D01*
X374190Y93990D01*
X373233Y94387D01*
X372205Y94522D01*
D02*
G37*
G36*
X12992Y92002D02*
X11417D01*
X10390Y91867D01*
X9432Y91470D01*
X8609Y90839D01*
X7978Y90017D01*
X7582Y89059D01*
X7446Y88032D01*
X7582Y87004D01*
X7978Y86046D01*
X8609Y85224D01*
X9432Y84592D01*
X10390Y84196D01*
X11417Y84061D01*
X12992D01*
X14020Y84196D01*
X14978Y84592D01*
X15800Y85224D01*
X16431Y86046D01*
X16828Y87004D01*
X16963Y88032D01*
X16828Y89059D01*
X16431Y90017D01*
X15800Y90839D01*
X14978Y91470D01*
X14020Y91867D01*
X12992Y92002D01*
D02*
G37*
G36*
X383386Y82309D02*
Y79134D01*
X385935D01*
X385858Y79719D01*
X385480Y80631D01*
X384879Y81414D01*
X384096Y82015D01*
X383386Y82309D01*
D02*
G37*
G36*
X381024Y82310D02*
X380314Y82015D01*
X379531Y81414D01*
X378929Y80631D01*
X378552Y79719D01*
X378475Y79134D01*
X381024D01*
Y82310D01*
D02*
G37*
G36*
X150787Y127181D02*
X135433D01*
X135126Y127120D01*
X134865Y126946D01*
X134691Y126685D01*
X134630Y126378D01*
Y64189D01*
X114173Y64189D01*
X113866Y64127D01*
X113605Y63954D01*
X113432Y63693D01*
X113370Y63386D01*
Y58031D01*
X106063D01*
Y48583D01*
X113370D01*
Y45669D01*
X113432Y45362D01*
X113605Y45102D01*
X113866Y44928D01*
X114173Y44866D01*
X155118Y44866D01*
X155425Y44928D01*
X155686Y45102D01*
X155860Y45362D01*
X155921Y45669D01*
Y59433D01*
X173622Y59433D01*
X173622Y59433D01*
X173929Y59494D01*
X174190Y59668D01*
X174190Y59668D01*
X190490Y75969D01*
X233465Y75969D01*
X233772Y76030D01*
X234032Y76204D01*
X234206Y76464D01*
X234267Y76772D01*
X234267Y103150D01*
X234206Y103457D01*
X234032Y103717D01*
X233772Y103891D01*
X233465Y103952D01*
X208268D01*
X207961Y103891D01*
X207700Y103717D01*
X207526Y103457D01*
X207465Y103150D01*
Y92535D01*
X172441D01*
X172134Y92474D01*
X171873Y92300D01*
X167819Y88245D01*
X167285Y88419D01*
X167251Y88635D01*
X171792Y93176D01*
X194567D01*
X195069Y93275D01*
X195495Y93560D01*
X197665Y95730D01*
X197874Y95688D01*
X198680Y95848D01*
X199364Y96305D01*
X199821Y96989D01*
X199981Y97795D01*
X199821Y98602D01*
X199364Y99285D01*
X198680Y99742D01*
X197874Y99903D01*
X197068Y99742D01*
X196962Y99672D01*
X196512Y99972D01*
X196596Y100394D01*
X196435Y101200D01*
X195978Y101884D01*
X195295Y102341D01*
X194488Y102501D01*
X193682Y102341D01*
X192998Y101884D01*
X192541Y101200D01*
X192381Y100394D01*
X192422Y100184D01*
X190401Y98163D01*
X166951D01*
X166833Y98341D01*
X166149Y98797D01*
X165343Y98958D01*
X164536Y98797D01*
X163853Y98341D01*
X163396Y97657D01*
X163235Y96850D01*
X163396Y96044D01*
X163853Y95360D01*
X164536Y94903D01*
X165343Y94743D01*
X166149Y94903D01*
X166833Y95360D01*
X166951Y95538D01*
X169734D01*
X169941Y95038D01*
X165158Y90255D01*
X164949Y90296D01*
X164143Y90136D01*
X163459Y89679D01*
X163002Y88995D01*
X162841Y88189D01*
X163002Y87383D01*
X163459Y86699D01*
X164143Y86242D01*
X164562Y86159D01*
X164810Y85599D01*
X164719Y85448D01*
X151590D01*
Y88976D01*
Y126378D01*
X151529Y126685D01*
X151355Y126946D01*
X151095Y127120D01*
X150787Y127181D01*
D02*
G37*
G36*
X12992Y82003D02*
X11417D01*
X10390Y81867D01*
X9432Y81471D01*
X8609Y80839D01*
X7978Y80017D01*
X7582Y79059D01*
X7446Y78031D01*
X7582Y77004D01*
X7978Y76046D01*
X8609Y75224D01*
X9432Y74593D01*
X10390Y74196D01*
X11417Y74060D01*
X12992D01*
X14020Y74196D01*
X14978Y74593D01*
X15800Y75224D01*
X16431Y76046D01*
X16828Y77004D01*
X16963Y78031D01*
X16828Y79059D01*
X16431Y80017D01*
X15800Y80839D01*
X14978Y81471D01*
X14020Y81867D01*
X12992Y82003D01*
D02*
G37*
G36*
X385935Y76772D02*
X383386D01*
Y73596D01*
X384096Y73890D01*
X384879Y74491D01*
X385480Y75274D01*
X385858Y76187D01*
X385935Y76772D01*
D02*
G37*
G36*
X381024D02*
X378475D01*
X378552Y76187D01*
X378929Y75274D01*
X379531Y74491D01*
X380314Y73890D01*
X381024Y73596D01*
Y76772D01*
D02*
G37*
G36*
X366142Y82677D02*
X358268D01*
Y73228D01*
X366142D01*
Y82677D01*
D02*
G37*
G36*
X372205Y82711D02*
X371177Y82576D01*
X370219Y82179D01*
X369397Y81548D01*
X368766Y80726D01*
X368369Y79768D01*
X368234Y78740D01*
Y77165D01*
X368369Y76138D01*
X368766Y75180D01*
X369397Y74357D01*
X370219Y73726D01*
X371177Y73330D01*
X372205Y73194D01*
X373233Y73330D01*
X374190Y73726D01*
X375013Y74357D01*
X375644Y75180D01*
X376040Y76138D01*
X376176Y77165D01*
Y78740D01*
X376040Y79768D01*
X375644Y80726D01*
X375013Y81548D01*
X374190Y82179D01*
X373233Y82576D01*
X372205Y82711D01*
D02*
G37*
G36*
X383386Y70498D02*
Y67323D01*
X385935D01*
X385858Y67908D01*
X385480Y68820D01*
X384879Y69603D01*
X384096Y70204D01*
X383386Y70498D01*
D02*
G37*
G36*
X381024Y70499D02*
X380314Y70204D01*
X379531Y69603D01*
X378929Y68820D01*
X378552Y67908D01*
X378475Y67323D01*
X381024D01*
Y70499D01*
D02*
G37*
G36*
X385935Y64961D02*
X383386D01*
Y61785D01*
X384096Y62079D01*
X384879Y62680D01*
X385480Y63463D01*
X385858Y64376D01*
X385935Y64961D01*
D02*
G37*
G36*
X381024D02*
X378475D01*
X378552Y64376D01*
X378929Y63463D01*
X379531Y62680D01*
X380314Y62079D01*
X381024Y61785D01*
Y64961D01*
D02*
G37*
G36*
X366142Y70866D02*
X358268D01*
Y61417D01*
X366142D01*
Y70866D01*
D02*
G37*
G36*
X372205Y70900D02*
X371177Y70765D01*
X370219Y70368D01*
X369397Y69737D01*
X368766Y68915D01*
X368369Y67957D01*
X368234Y66929D01*
Y65354D01*
X368369Y64327D01*
X368766Y63369D01*
X369397Y62546D01*
X370219Y61915D01*
X371177Y61519D01*
X372205Y61383D01*
X373233Y61519D01*
X374190Y61915D01*
X375013Y62546D01*
X375644Y63369D01*
X376040Y64327D01*
X376176Y65354D01*
Y66929D01*
X376040Y67957D01*
X375644Y68915D01*
X375013Y69737D01*
X374190Y70368D01*
X373233Y70765D01*
X372205Y70900D01*
D02*
G37*
G36*
X383386Y58687D02*
Y55512D01*
X385935D01*
X385858Y56097D01*
X385480Y57009D01*
X384879Y57792D01*
X384096Y58393D01*
X383386Y58687D01*
D02*
G37*
G36*
X381024Y58688D02*
X380314Y58393D01*
X379531Y57792D01*
X378929Y57009D01*
X378552Y56097D01*
X378475Y55512D01*
X381024D01*
Y58688D01*
D02*
G37*
G36*
X385935Y53149D02*
X383386D01*
Y49974D01*
X384096Y50268D01*
X384879Y50869D01*
X385480Y51652D01*
X385858Y52565D01*
X385935Y53149D01*
D02*
G37*
G36*
X381024D02*
X378475D01*
X378552Y52565D01*
X378929Y51652D01*
X379531Y50869D01*
X380314Y50268D01*
X381024Y49974D01*
Y53149D01*
D02*
G37*
G36*
X366142Y59055D02*
X358268D01*
Y49606D01*
X366142D01*
Y59055D01*
D02*
G37*
G36*
X372205Y59089D02*
X371177Y58954D01*
X370219Y58557D01*
X369397Y57926D01*
X368766Y57104D01*
X368369Y56146D01*
X368234Y55118D01*
Y53543D01*
X368369Y52516D01*
X368766Y51558D01*
X369397Y50735D01*
X370219Y50104D01*
X371177Y49708D01*
X372205Y49572D01*
X373233Y49708D01*
X374190Y50104D01*
X375013Y50735D01*
X375644Y51558D01*
X376040Y52516D01*
X376176Y53543D01*
Y55118D01*
X376040Y56146D01*
X375644Y57104D01*
X375013Y57926D01*
X374190Y58557D01*
X373233Y58954D01*
X372205Y59089D01*
D02*
G37*
G36*
X203937Y58031D02*
X196063D01*
Y48583D01*
X203937D01*
Y58031D01*
D02*
G37*
G36*
X250000Y58065D02*
X248972Y57930D01*
X248014Y57534D01*
X247192Y56902D01*
X246561Y56080D01*
X246164Y55122D01*
X246029Y54094D01*
Y52520D01*
X246164Y51492D01*
X246561Y50534D01*
X247192Y49712D01*
X248014Y49081D01*
X248972Y48684D01*
X250000Y48549D01*
X251028Y48684D01*
X251986Y49081D01*
X252808Y49712D01*
X253439Y50534D01*
X253836Y51492D01*
X253971Y52520D01*
Y54094D01*
X253836Y55122D01*
X253439Y56080D01*
X252808Y56902D01*
X251986Y57534D01*
X251028Y57930D01*
X250000Y58065D01*
D02*
G37*
G36*
X240000D02*
X238972Y57930D01*
X238015Y57534D01*
X237192Y56902D01*
X236561Y56080D01*
X236164Y55122D01*
X236029Y54094D01*
Y52520D01*
X236164Y51492D01*
X236561Y50534D01*
X237192Y49712D01*
X238015Y49081D01*
X238972Y48684D01*
X240000Y48549D01*
X241028Y48684D01*
X241986Y49081D01*
X242808Y49712D01*
X243439Y50534D01*
X243836Y51492D01*
X243971Y52520D01*
Y54094D01*
X243836Y55122D01*
X243439Y56080D01*
X242808Y56902D01*
X241986Y57534D01*
X241028Y57930D01*
X240000Y58065D01*
D02*
G37*
G36*
X230000D02*
X228972Y57930D01*
X228014Y57534D01*
X227192Y56902D01*
X226561Y56080D01*
X226164Y55122D01*
X226029Y54094D01*
Y52520D01*
X226164Y51492D01*
X226561Y50534D01*
X227192Y49712D01*
X228014Y49081D01*
X228972Y48684D01*
X230000Y48549D01*
X231028Y48684D01*
X231985Y49081D01*
X232808Y49712D01*
X233439Y50534D01*
X233836Y51492D01*
X233971Y52520D01*
Y54094D01*
X233836Y55122D01*
X233439Y56080D01*
X232808Y56902D01*
X231985Y57534D01*
X231028Y57930D01*
X230000Y58065D01*
D02*
G37*
G36*
X220000D02*
X218972Y57930D01*
X218015Y57534D01*
X217192Y56902D01*
X216561Y56080D01*
X216164Y55122D01*
X216029Y54094D01*
Y52520D01*
X216164Y51492D01*
X216561Y50534D01*
X217192Y49712D01*
X218015Y49081D01*
X218972Y48684D01*
X220000Y48549D01*
X221028Y48684D01*
X221986Y49081D01*
X222808Y49712D01*
X223439Y50534D01*
X223836Y51492D01*
X223971Y52520D01*
Y54094D01*
X223836Y55122D01*
X223439Y56080D01*
X222808Y56902D01*
X221986Y57534D01*
X221028Y57930D01*
X220000Y58065D01*
D02*
G37*
G36*
X210000D02*
X208972Y57930D01*
X208014Y57534D01*
X207192Y56902D01*
X206561Y56080D01*
X206164Y55122D01*
X206029Y54094D01*
Y52520D01*
X206164Y51492D01*
X206561Y50534D01*
X207192Y49712D01*
X208014Y49081D01*
X208972Y48684D01*
X210000Y48549D01*
X211028Y48684D01*
X211985Y49081D01*
X212808Y49712D01*
X213439Y50534D01*
X213836Y51492D01*
X213971Y52520D01*
Y54094D01*
X213836Y55122D01*
X213439Y56080D01*
X212808Y56902D01*
X211985Y57534D01*
X211028Y57930D01*
X210000Y58065D01*
D02*
G37*
G36*
X180000D02*
X178972Y57930D01*
X178015Y57534D01*
X177192Y56902D01*
X176561Y56080D01*
X176164Y55122D01*
X176029Y54094D01*
Y52520D01*
X176164Y51492D01*
X176561Y50534D01*
X177192Y49712D01*
X178015Y49081D01*
X178972Y48684D01*
X180000Y48549D01*
X181028Y48684D01*
X181985Y49081D01*
X182808Y49712D01*
X183439Y50534D01*
X183836Y51492D01*
X183971Y52520D01*
Y54094D01*
X183836Y55122D01*
X183439Y56080D01*
X182808Y56902D01*
X181985Y57534D01*
X181028Y57930D01*
X180000Y58065D01*
D02*
G37*
G36*
X314567Y39035D02*
Y36220D01*
X317381D01*
X317005Y37129D01*
X316341Y37994D01*
X315475Y38658D01*
X314567Y39035D01*
D02*
G37*
G36*
X312205Y39035D02*
X311296Y38658D01*
X310431Y37994D01*
X309767Y37129D01*
X309390Y36220D01*
X312205D01*
Y39035D01*
D02*
G37*
G36*
Y33858D02*
X309390D01*
X309767Y32950D01*
X310431Y32084D01*
X311296Y31420D01*
X312205Y31044D01*
Y33858D01*
D02*
G37*
G36*
X317381D02*
X314567D01*
Y31044D01*
X315475Y31420D01*
X316341Y32084D01*
X317005Y32950D01*
X317381Y33858D01*
D02*
G37*
G36*
X257480Y24262D02*
X255990Y24066D01*
X254601Y23490D01*
X253409Y22575D01*
X252494Y21383D01*
X251919Y19994D01*
X251722Y18504D01*
X251919Y17014D01*
X252494Y15625D01*
X253409Y14433D01*
X254601Y13517D01*
X255990Y12942D01*
X257480Y12746D01*
X258971Y12942D01*
X260359Y13517D01*
X261552Y14433D01*
X262467Y15625D01*
X263042Y17014D01*
X263238Y18504D01*
X263042Y19994D01*
X262467Y21383D01*
X261552Y22575D01*
X260359Y23490D01*
X258971Y24066D01*
X257480Y24262D01*
D02*
G37*
G36*
X45276D02*
X43785Y24066D01*
X42397Y23490D01*
X41204Y22575D01*
X40289Y21383D01*
X39714Y19994D01*
X39518Y18504D01*
X39714Y17014D01*
X40289Y15625D01*
X41204Y14433D01*
X42397Y13517D01*
X43785Y12942D01*
X45276Y12746D01*
X46766Y12942D01*
X48155Y13517D01*
X49347Y14433D01*
X50262Y15625D01*
X50837Y17014D01*
X51034Y18504D01*
X50837Y19994D01*
X50262Y21383D01*
X49347Y22575D01*
X48155Y23490D01*
X46766Y24066D01*
X45276Y24262D01*
D02*
G37*
G36*
X313386Y19722D02*
X312255Y19574D01*
X311202Y19137D01*
X310297Y18443D01*
X309603Y17538D01*
X309167Y16485D01*
X309018Y15354D01*
X309167Y14224D01*
X309603Y13170D01*
X310297Y12266D01*
X311202Y11571D01*
X312255Y11135D01*
X313386Y10986D01*
X314516Y11135D01*
X315570Y11571D01*
X316475Y12266D01*
X317169Y13170D01*
X317605Y14224D01*
X317754Y15354D01*
X317605Y16485D01*
X317169Y17538D01*
X316475Y18443D01*
X315570Y19137D01*
X314516Y19574D01*
X313386Y19722D01*
D02*
G37*
%LPD*%
G36*
X32283Y261024D02*
X44488Y248819D01*
X44488Y213386D01*
X64961Y192913D01*
X82677Y192913D01*
Y177272D01*
X82420Y176772D01*
X60630Y176772D01*
X25591Y211811D01*
X25591Y217323D01*
X25591Y225927D01*
X25917Y226716D01*
X26059Y227795D01*
X25917Y228874D01*
X25591Y229663D01*
Y235928D01*
X25917Y236716D01*
X26059Y237795D01*
X25917Y238874D01*
X25591Y239663D01*
X25591Y249999D01*
X20472Y255117D01*
X20472Y276378D01*
X32283D01*
X32283Y261024D01*
D02*
G37*
G36*
X82677Y153543D02*
X82677Y124016D01*
X85039D01*
Y117323D01*
X73622D01*
X73622Y155118D01*
X65470Y163270D01*
X65493Y163386D01*
X65333Y164192D01*
X64876Y164876D01*
X64192Y165333D01*
X63386Y165493D01*
X63270Y165470D01*
X50000Y178740D01*
X50000Y183465D01*
X52756Y183465D01*
X82677Y153543D01*
D02*
G37*
%LPC*%
G36*
X36024Y241929D02*
X27756D01*
Y233661D01*
X36024D01*
Y241929D01*
D02*
G37*
G36*
X33071Y231578D02*
Y228976D01*
X35672D01*
X35337Y229785D01*
X34704Y230610D01*
X33880Y231242D01*
X33071Y231578D01*
D02*
G37*
G36*
X30709Y231578D02*
X29899Y231242D01*
X29075Y230610D01*
X28442Y229785D01*
X28107Y228976D01*
X30709D01*
Y231578D01*
D02*
G37*
G36*
X35672Y226614D02*
X33071D01*
Y224013D01*
X33880Y224348D01*
X34704Y224981D01*
X35337Y225805D01*
X35672Y226614D01*
D02*
G37*
G36*
X30709D02*
X28107D01*
X28442Y225805D01*
X29075Y224981D01*
X29899Y224348D01*
X30709Y224013D01*
Y226614D01*
D02*
G37*
G36*
X35827Y214015D02*
X34645Y213860D01*
X33544Y213404D01*
X32598Y212678D01*
X31872Y211732D01*
X31416Y210631D01*
X31260Y209449D01*
X31416Y208267D01*
X31872Y207166D01*
X32598Y206220D01*
X33544Y205494D01*
X34645Y205038D01*
X35827Y204882D01*
X37009Y205038D01*
X38110Y205494D01*
X39056Y206220D01*
X39782Y207166D01*
X40238Y208267D01*
X40393Y209449D01*
X40238Y210631D01*
X39782Y211732D01*
X39056Y212678D01*
X38110Y213404D01*
X37009Y213860D01*
X35827Y214015D01*
D02*
G37*
G36*
X72047Y187215D02*
Y185039D01*
X74222D01*
X73970Y185650D01*
X73400Y186392D01*
X72658Y186962D01*
X72047Y187215D01*
D02*
G37*
G36*
X69685Y187215D02*
X69074Y186962D01*
X68332Y186392D01*
X67763Y185650D01*
X67510Y185039D01*
X69685D01*
Y187215D01*
D02*
G37*
G36*
Y182677D02*
X67510D01*
X67763Y182067D01*
X68332Y181324D01*
X69074Y180755D01*
X69685Y180502D01*
Y182677D01*
D02*
G37*
G36*
X74222D02*
X72047D01*
Y180502D01*
X72658Y180755D01*
X73400Y181324D01*
X73970Y182067D01*
X74222Y182677D01*
D02*
G37*
%LPD*%
G36*
X330315Y150787D02*
Y124016D01*
X314961D01*
Y142126D01*
Y148025D01*
X315001Y148228D01*
X314961Y148432D01*
Y150787D01*
X311024Y154724D01*
X310495D01*
X310303Y154853D01*
X309842Y154944D01*
X309842Y154944D01*
X273425D01*
X272964Y154853D01*
X272772Y154724D01*
X253937D01*
X253543Y154887D01*
Y156693D01*
Y163386D01*
X295709D01*
X296063Y163032D01*
X296063Y159449D01*
X300394D01*
X300394Y161509D01*
X300434Y161713D01*
X300394Y161916D01*
X300394Y163386D01*
X317717D01*
X330315Y150787D01*
D02*
G37*
G36*
X150787Y88976D02*
Y84646D01*
X165354D01*
X172441Y91732D01*
X208268D01*
Y103150D01*
X233465D01*
X233465Y76772D01*
X190158Y76772D01*
X173622Y60236D01*
X155118Y60236D01*
Y45669D01*
X114173Y45669D01*
Y63386D01*
X135433Y63386D01*
Y126378D01*
X150787D01*
Y88976D01*
D02*
G37*
%LPC*%
G36*
X140000Y58065D02*
X138972Y57930D01*
X138014Y57534D01*
X137192Y56902D01*
X136561Y56080D01*
X136164Y55122D01*
X136029Y54094D01*
Y52520D01*
X136164Y51492D01*
X136561Y50534D01*
X137192Y49712D01*
X138014Y49081D01*
X138972Y48684D01*
X140000Y48549D01*
X141028Y48684D01*
X141985Y49081D01*
X142808Y49712D01*
X143439Y50534D01*
X143836Y51492D01*
X143971Y52520D01*
Y54094D01*
X143836Y55122D01*
X143439Y56080D01*
X142808Y56902D01*
X141985Y57534D01*
X141028Y57930D01*
X140000Y58065D01*
D02*
G37*
G36*
X130000D02*
X128972Y57930D01*
X128015Y57534D01*
X127192Y56902D01*
X126561Y56080D01*
X126164Y55122D01*
X126029Y54094D01*
Y52520D01*
X126164Y51492D01*
X126561Y50534D01*
X127192Y49712D01*
X128015Y49081D01*
X128972Y48684D01*
X130000Y48549D01*
X131028Y48684D01*
X131985Y49081D01*
X132808Y49712D01*
X133439Y50534D01*
X133836Y51492D01*
X133971Y52520D01*
Y54094D01*
X133836Y55122D01*
X133439Y56080D01*
X132808Y56902D01*
X131985Y57534D01*
X131028Y57930D01*
X130000Y58065D01*
D02*
G37*
%LPD*%
D31*
X110236Y146850D02*
Y177165D01*
X276279Y111534D02*
X277658Y112912D01*
X276279Y111516D02*
Y111534D01*
X277658Y112912D02*
Y129035D01*
X290158Y141535D01*
X282972Y126870D02*
X298031Y141929D01*
X282972Y107973D02*
Y126870D01*
Y107973D02*
X285728Y105217D01*
Y111417D02*
Y125689D01*
X285335Y126083D02*
X285728Y125689D01*
X275590Y151772D02*
X306299D01*
X272736Y148917D02*
X275590Y151772D01*
X265453Y148917D02*
X272736D01*
X263386Y150984D02*
X265453Y148917D01*
X273425Y153740D02*
X309842D01*
X306299Y151772D02*
X308957Y149114D01*
X271654Y151969D02*
X273425Y153740D01*
X309842D02*
X312894Y150689D01*
X282283Y140551D02*
Y148819D01*
X271850Y130118D02*
X282283Y140551D01*
X271850Y118898D02*
Y130118D01*
X286221Y141437D02*
Y148819D01*
X274803Y130020D02*
X286221Y141437D01*
X274803Y121653D02*
Y130020D01*
X280118Y127953D02*
X294094Y141929D01*
X280118Y111614D02*
Y127953D01*
X294094Y141929D02*
Y148819D01*
X298031Y141929D02*
Y148819D01*
X290158Y141535D02*
Y148819D01*
X285335Y126083D02*
X301969Y142717D01*
Y148819D01*
X308957Y148031D02*
Y149114D01*
X312894Y148228D02*
Y150689D01*
X263386Y150984D02*
Y152264D01*
X318898Y173228D02*
Y191437D01*
X314961Y173228D02*
Y191437D01*
X311024Y173228D02*
Y191437D01*
X210000Y231339D02*
X221654Y219685D01*
X210000Y231339D02*
Y236063D01*
X220000Y231181D02*
Y243307D01*
Y231181D02*
X226772Y224410D01*
X164000Y243307D02*
Y247024D01*
X161811Y249213D02*
X164000Y247024D01*
X138583Y249213D02*
X161811D01*
X137402Y250394D02*
X138583Y249213D01*
X108661Y267717D02*
X134252D01*
X307087Y173228D02*
Y191437D01*
X303150Y173228D02*
Y191437D01*
X298327Y161713D02*
Y164862D01*
X299213Y191437D02*
X300394Y190256D01*
X298327Y164862D02*
X300394Y166929D01*
Y190256D01*
D36*
X60000Y243307D02*
D03*
D37*
X45276Y18504D02*
D03*
X64961D02*
D03*
X257480D02*
D03*
X277165D02*
D03*
D38*
X44094Y267717D02*
D03*
X69685D02*
D03*
Y285433D02*
D03*
X108661Y267717D02*
D03*
X134252D02*
D03*
Y285433D02*
D03*
X35827Y209449D02*
D03*
X10236D02*
D03*
Y191732D02*
D03*
D39*
X44094Y285433D02*
D03*
X108661D02*
D03*
X35827Y191732D02*
D03*
D40*
X110000Y53307D02*
D03*
X250000Y243307D02*
D03*
X200000Y53307D02*
D03*
X164000Y243307D02*
D03*
X362205Y155118D02*
D03*
Y166929D02*
D03*
Y178740D02*
D03*
Y190551D02*
D03*
Y205512D02*
D03*
Y217323D02*
D03*
Y229134D02*
D03*
Y240945D02*
D03*
Y54331D02*
D03*
Y66142D02*
D03*
Y104724D02*
D03*
Y116535D02*
D03*
Y77953D02*
D03*
Y89764D02*
D03*
Y128347D02*
D03*
Y140157D02*
D03*
D41*
X120000Y53307D02*
D03*
X130000D02*
D03*
X140000D02*
D03*
X150000D02*
D03*
X160000D02*
D03*
X170000D02*
D03*
X180000D02*
D03*
X240000Y243307D02*
D03*
X230000D02*
D03*
X220000D02*
D03*
X210000D02*
D03*
X200000D02*
D03*
X190000D02*
D03*
X180000D02*
D03*
X250000Y53307D02*
D03*
X240000D02*
D03*
X230000D02*
D03*
X220000D02*
D03*
X210000D02*
D03*
X74000Y243307D02*
D03*
X84000D02*
D03*
X94000D02*
D03*
X104000D02*
D03*
X114000D02*
D03*
X124000D02*
D03*
X134000D02*
D03*
X144000D02*
D03*
X154000D02*
D03*
X382205Y155118D02*
D03*
X372205D02*
D03*
Y166929D02*
D03*
X382205D02*
D03*
Y178740D02*
D03*
X372205D02*
D03*
Y190551D02*
D03*
X382205D02*
D03*
Y205512D02*
D03*
X372205D02*
D03*
Y217323D02*
D03*
X382205D02*
D03*
Y229134D02*
D03*
X372205D02*
D03*
Y240945D02*
D03*
X382205D02*
D03*
Y54331D02*
D03*
X372205D02*
D03*
Y66142D02*
D03*
X382205D02*
D03*
Y104724D02*
D03*
X372205D02*
D03*
Y116535D02*
D03*
X382205D02*
D03*
Y77953D02*
D03*
X372205D02*
D03*
Y89764D02*
D03*
X382205D02*
D03*
Y128347D02*
D03*
X372205D02*
D03*
Y140157D02*
D03*
X382205D02*
D03*
D42*
X70866Y183858D02*
D03*
Y223228D02*
D03*
D43*
X31890Y237795D02*
D03*
D44*
X21890D02*
D03*
X11890D02*
D03*
X31890Y227795D02*
D03*
X21890D02*
D03*
X11890D02*
D03*
D45*
X267717Y283465D02*
D03*
X287402D02*
D03*
X307087D02*
D03*
X326772D02*
D03*
X346457D02*
D03*
X366142D02*
D03*
X12205Y98032D02*
D03*
D46*
X267717Y273465D02*
D03*
X287402D02*
D03*
X307087D02*
D03*
X326772D02*
D03*
X346457D02*
D03*
X366142D02*
D03*
X12205Y88032D02*
D03*
Y78031D02*
D03*
D47*
X313386Y35039D02*
D03*
Y15354D02*
D03*
D48*
X260000Y73307D02*
D03*
Y183307D02*
D03*
X55000Y53307D02*
D03*
D49*
X7874Y149409D02*
D03*
Y127165D02*
D03*
D50*
X34400Y127100D02*
D03*
X26500Y128500D02*
D03*
Y131700D02*
D03*
X164173Y110236D02*
D03*
X178740Y121653D02*
D03*
X23228Y126772D02*
D03*
X20079D02*
D03*
X23228Y129921D02*
D03*
X20079D02*
D03*
X200394Y274410D02*
D03*
X155512Y118504D02*
D03*
X224409Y100197D02*
D03*
X220472Y100394D02*
D03*
X219685Y88878D02*
D03*
Y85433D02*
D03*
X229528D02*
D03*
X225984D02*
D03*
X222835D02*
D03*
Y88878D02*
D03*
X225984Y88976D02*
D03*
X137402Y123228D02*
D03*
X140551D02*
D03*
X146850Y116535D02*
D03*
X143701D02*
D03*
X140551D02*
D03*
X137402D02*
D03*
Y119685D02*
D03*
X140551D02*
D03*
X143701D02*
D03*
X82677Y120866D02*
D03*
X75590D02*
D03*
X57480Y175984D02*
D03*
X54724Y178347D02*
D03*
X110236Y146850D02*
D03*
Y177165D02*
D03*
X22441Y268110D02*
D03*
X26378D02*
D03*
Y271260D02*
D03*
X22441D02*
D03*
Y274410D02*
D03*
X77165Y190157D02*
D03*
X80315Y180709D02*
D03*
Y183858D02*
D03*
Y187008D02*
D03*
Y190157D02*
D03*
X285728Y111417D02*
D03*
X29134Y148622D02*
D03*
X49508Y113386D02*
D03*
X85138D02*
D03*
X234449Y252461D02*
D03*
X366142Y251673D02*
D03*
X346457D02*
D03*
X326772D02*
D03*
X307087D02*
D03*
X287402D02*
D03*
X267717D02*
D03*
X233957Y277067D02*
D03*
X166437Y268012D02*
D03*
X162008Y263779D02*
D03*
X57185Y222244D02*
D03*
X93504Y172835D02*
D03*
X96260Y151279D02*
D03*
X157874Y138484D02*
D03*
X225590Y148425D02*
D03*
X231004Y114272D02*
D03*
X26378Y274410D02*
D03*
X146949Y119587D02*
D03*
X229331Y89173D02*
D03*
X263779Y161417D02*
D03*
X267717D02*
D03*
X271654D02*
D03*
X327559Y128740D02*
D03*
X298327Y161713D02*
D03*
X303248Y130118D02*
D03*
X294587Y130610D02*
D03*
X271850Y118898D02*
D03*
X274803Y121653D02*
D03*
X276279Y111516D02*
D03*
X280118Y111614D02*
D03*
X285728Y105217D02*
D03*
X286221Y148819D02*
D03*
X301969D02*
D03*
X298031D02*
D03*
X282283D02*
D03*
X294094D02*
D03*
X290158D02*
D03*
X271654Y151969D02*
D03*
X262992D02*
D03*
X312894Y148228D02*
D03*
X308957Y148031D02*
D03*
X299213Y191437D02*
D03*
X281496Y171260D02*
D03*
X318898Y191437D02*
D03*
X303150D02*
D03*
X314961D02*
D03*
X307087D02*
D03*
X311024D02*
D03*
Y173228D02*
D03*
X307087D02*
D03*
X314961D02*
D03*
X303150D02*
D03*
X318898D02*
D03*
X191732Y112992D02*
D03*
X194488Y100394D02*
D03*
X197874Y97795D02*
D03*
X165343Y96850D02*
D03*
X164949Y88189D02*
D03*
X33858Y116142D02*
D03*
X65945Y195866D02*
D03*
X37008Y153543D02*
D03*
X155905Y103937D02*
D03*
X79134Y120866D02*
D03*
X51968Y181102D02*
D03*
X51181Y174409D02*
D03*
X63386Y163386D02*
D03*
X200787Y118504D02*
D03*
X221654Y219685D02*
D03*
X226772Y224410D02*
D03*
X137402Y250394D02*
D03*
X89764Y279921D02*
D03*
X323622Y128740D02*
D03*
X319685D02*
D03*
D51*
X194567Y94488D02*
X197874Y97795D01*
X171248Y94488D02*
X194567D01*
X164949Y88189D02*
X171248Y94488D01*
X190945Y96850D02*
X194488Y100394D01*
X165343Y96850D02*
X190945D01*
X156168Y104200D02*
X182546D01*
X191339Y112992D01*
X155905Y103937D02*
X156168Y104200D01*
X191339Y112992D02*
X191732D01*
X210000Y236063D02*
Y243307D01*
M02*
