G04 Layer_Color=8388736*
%FSLAX25Y25*%
%MOIN*%
G70*
G01*
G75*
%ADD10R,0.05906X0.02362*%
%ADD22R,0.01772X0.04724*%
%ADD23R,0.04724X0.01772*%
%ADD25R,0.01378X0.03937*%
%ADD29R,0.02362X0.04724*%
%ADD30R,0.08268X0.01575*%
G04:AMPARAMS|DCode=49|XSize=84.65mil|YSize=47.24mil|CornerRadius=14.17mil|HoleSize=0mil|Usage=FLASHONLY|Rotation=0.000|XOffset=0mil|YOffset=0mil|HoleType=Round|Shape=RoundedRectangle|*
%AMROUNDEDRECTD49*
21,1,0.08465,0.01890,0,0,0.0*
21,1,0.05630,0.04724,0,0,0.0*
1,1,0.02835,0.02815,-0.00945*
1,1,0.02835,-0.02815,-0.00945*
1,1,0.02835,-0.02815,0.00945*
1,1,0.02835,0.02815,0.00945*
%
%ADD49ROUNDEDRECTD49*%
%ADD53R,0.03950X0.03950*%
%ADD54R,0.05918X0.03556*%
%ADD55R,0.04343X0.03162*%
%ADD56R,0.03162X0.04343*%
%ADD57R,0.04343X0.05918*%
%ADD58R,0.22453X0.09068*%
%ADD59R,0.03556X0.05918*%
%ADD60R,0.05918X0.04343*%
%ADD61R,0.03950X0.03950*%
%ADD62R,0.07099X0.12611*%
%ADD63R,0.09068X0.22453*%
%ADD64C,0.12000*%
%ADD65R,0.08674X0.11430*%
%ADD66R,0.10642X0.05524*%
%ADD67R,0.10642X0.14579*%
%ADD68C,0.13398*%
%ADD69C,0.10642*%
%ADD70C,0.08280*%
%ADD71R,0.08280X0.08280*%
%ADD72R,0.07099X0.08674*%
%ADD73O,0.07099X0.08674*%
%ADD74C,0.06706*%
%ADD75R,0.07493X0.07493*%
%ADD76C,0.07493*%
%ADD77R,0.08674X0.07099*%
%ADD78O,0.08674X0.07099*%
%ADD79C,0.07887*%
%ADD80C,0.29934*%
%ADD81C,0.00800*%
D10*
X56693Y165541D02*
D03*
Y160541D02*
D03*
Y155541D02*
D03*
Y150541D02*
D03*
X77953Y165541D02*
D03*
Y160541D02*
D03*
Y155541D02*
D03*
Y140581D02*
D03*
Y145581D02*
D03*
Y150581D02*
D03*
X56693Y140581D02*
D03*
Y145581D02*
D03*
X77953Y130522D02*
D03*
Y135522D02*
D03*
X56693Y130522D02*
D03*
Y135522D02*
D03*
D22*
X201024Y105591D02*
D03*
X197874D02*
D03*
X194724D02*
D03*
X191575D02*
D03*
X188425D02*
D03*
X185276D02*
D03*
X182126D02*
D03*
X178976D02*
D03*
X178976Y141024D02*
D03*
X182126D02*
D03*
X185276D02*
D03*
X188425D02*
D03*
X191575D02*
D03*
X194724D02*
D03*
X197874D02*
D03*
X201024D02*
D03*
D23*
X172480Y112283D02*
D03*
Y115433D02*
D03*
Y118583D02*
D03*
Y121732D02*
D03*
Y124882D02*
D03*
Y128032D02*
D03*
Y131181D02*
D03*
Y134331D02*
D03*
X207716D02*
D03*
Y131181D02*
D03*
Y128032D02*
D03*
Y124882D02*
D03*
Y121732D02*
D03*
Y118583D02*
D03*
Y115433D02*
D03*
Y112283D02*
D03*
D25*
X282185Y142323D02*
D03*
X284744D02*
D03*
X287303D02*
D03*
X289862D02*
D03*
X292421D02*
D03*
X294980D02*
D03*
X297539D02*
D03*
X300098D02*
D03*
X302658D02*
D03*
X305217D02*
D03*
X307776D02*
D03*
X310335D02*
D03*
X312894D02*
D03*
X315453D02*
D03*
X282185Y166339D02*
D03*
X284744D02*
D03*
X287303D02*
D03*
X289862D02*
D03*
X292421D02*
D03*
X294980D02*
D03*
X297539D02*
D03*
X300098D02*
D03*
X302658D02*
D03*
X305217D02*
D03*
X307776D02*
D03*
X310335D02*
D03*
X312894D02*
D03*
X315453D02*
D03*
D29*
X219311Y276378D02*
D03*
X214311D02*
D03*
X209311D02*
D03*
X204311D02*
D03*
X219311Y255118D02*
D03*
X214311D02*
D03*
X209311D02*
D03*
X204311D02*
D03*
D30*
X19587Y133169D02*
D03*
Y135728D02*
D03*
Y138287D02*
D03*
Y140847D02*
D03*
Y143405D02*
D03*
D49*
X7874Y149409D02*
D03*
Y127165D02*
D03*
D53*
X8268Y174016D02*
D03*
Y180315D02*
D03*
D54*
Y165945D02*
D03*
Y158465D02*
D03*
X111811Y37598D02*
D03*
Y45079D02*
D03*
X26378Y80905D02*
D03*
Y88386D02*
D03*
Y87992D02*
D03*
Y95472D02*
D03*
X80315Y275394D02*
D03*
Y267913D02*
D03*
X147638Y267520D02*
D03*
Y260039D02*
D03*
X33858Y267913D02*
D03*
Y275394D02*
D03*
X99213Y267913D02*
D03*
Y275394D02*
D03*
X50394Y200591D02*
D03*
Y208071D02*
D03*
Y195079D02*
D03*
Y187598D02*
D03*
X216831Y136221D02*
D03*
Y128740D02*
D03*
X164173Y145866D02*
D03*
Y153347D02*
D03*
X267717Y256102D02*
D03*
Y263583D02*
D03*
X287402Y256102D02*
D03*
Y263583D02*
D03*
X307087Y256102D02*
D03*
Y263583D02*
D03*
X326772Y256102D02*
D03*
Y263583D02*
D03*
X346457Y256102D02*
D03*
Y263583D02*
D03*
X366142Y256102D02*
D03*
Y263583D02*
D03*
X271654Y148228D02*
D03*
Y155709D02*
D03*
X262992Y148228D02*
D03*
Y155709D02*
D03*
X298425Y126969D02*
D03*
Y134449D02*
D03*
D55*
X34400Y130447D02*
D03*
Y136353D02*
D03*
D56*
X27461Y144488D02*
D03*
X33366D02*
D03*
D57*
X56102Y113386D02*
D03*
X63583D02*
D03*
X78543D02*
D03*
X71063D02*
D03*
X86811Y172835D02*
D03*
X79331D02*
D03*
X40748Y153543D02*
D03*
X48228D02*
D03*
X63976Y172835D02*
D03*
X71457D02*
D03*
X33268Y153543D02*
D03*
X25787D02*
D03*
X102559Y232677D02*
D03*
X95079D02*
D03*
X18307Y217717D02*
D03*
X25787D02*
D03*
X314370Y125984D02*
D03*
X306890D02*
D03*
X314370Y134252D02*
D03*
X306890D02*
D03*
D58*
X48622Y98425D02*
D03*
X86024D02*
D03*
D59*
X63583Y122047D02*
D03*
X71063D02*
D03*
X42160Y138200D02*
D03*
X49640D02*
D03*
X42060Y145900D02*
D03*
X49540D02*
D03*
X26575Y122441D02*
D03*
X34055D02*
D03*
X185630Y272441D02*
D03*
X193110D02*
D03*
X185630Y263779D02*
D03*
X193110D02*
D03*
X159634Y75561D02*
D03*
X152154D02*
D03*
X159694Y66745D02*
D03*
X152213D02*
D03*
X159634Y88189D02*
D03*
X152154D02*
D03*
X159634Y96850D02*
D03*
X152154D02*
D03*
X340748Y128347D02*
D03*
X348228D02*
D03*
X340748Y140157D02*
D03*
X348229D02*
D03*
X340748Y77953D02*
D03*
X348228D02*
D03*
X340748Y89764D02*
D03*
X348229D02*
D03*
X340748Y104724D02*
D03*
X348229D02*
D03*
X340748Y116535D02*
D03*
X348228D02*
D03*
X340748Y54331D02*
D03*
X348228D02*
D03*
X340748Y66142D02*
D03*
X348228D02*
D03*
X340748Y229134D02*
D03*
X348228D02*
D03*
X340748Y240945D02*
D03*
X348228D02*
D03*
X340748Y205512D02*
D03*
X348228D02*
D03*
X340748Y217323D02*
D03*
X348229D02*
D03*
X340748Y178740D02*
D03*
X348229D02*
D03*
X340748Y190551D02*
D03*
X348228D02*
D03*
X340748Y155118D02*
D03*
X348229D02*
D03*
X340748Y166929D02*
D03*
X348228D02*
D03*
D60*
X87402Y156890D02*
D03*
Y164370D02*
D03*
X96063Y156890D02*
D03*
Y164370D02*
D03*
X104724Y156890D02*
D03*
Y164370D02*
D03*
X87402Y149016D02*
D03*
Y141535D02*
D03*
X59449Y195472D02*
D03*
Y187992D02*
D03*
X237858Y273031D02*
D03*
Y280512D02*
D03*
X229984Y273031D02*
D03*
Y280512D02*
D03*
X245732Y273031D02*
D03*
Y280512D02*
D03*
X89900Y275440D02*
D03*
Y267960D02*
D03*
X156299Y267520D02*
D03*
Y260039D02*
D03*
X50394Y222244D02*
D03*
Y214764D02*
D03*
X120472Y36811D02*
D03*
Y44291D02*
D03*
X148819Y37205D02*
D03*
Y44685D02*
D03*
X140157Y37205D02*
D03*
Y44685D02*
D03*
X157480Y37205D02*
D03*
Y44685D02*
D03*
X225590Y143110D02*
D03*
Y135630D02*
D03*
Y121457D02*
D03*
Y128937D02*
D03*
X164173Y123425D02*
D03*
Y115945D02*
D03*
X155512Y131299D02*
D03*
Y123819D02*
D03*
X164173Y130905D02*
D03*
Y138386D02*
D03*
X146949Y123819D02*
D03*
Y131299D02*
D03*
X225590Y106890D02*
D03*
Y114370D02*
D03*
X216929Y114764D02*
D03*
Y122244D02*
D03*
Y100197D02*
D03*
Y107677D02*
D03*
X229921Y264370D02*
D03*
Y256890D02*
D03*
X238976Y264370D02*
D03*
Y256890D02*
D03*
X247638Y264370D02*
D03*
Y256890D02*
D03*
X290158Y134055D02*
D03*
Y126575D02*
D03*
X323228Y125394D02*
D03*
Y132874D02*
D03*
D61*
X99606Y33465D02*
D03*
X93307D02*
D03*
X178740Y271260D02*
D03*
X172441D02*
D03*
X178740Y264961D02*
D03*
X172441D02*
D03*
X167044Y75561D02*
D03*
X173343D02*
D03*
X167044Y66745D02*
D03*
X173343D02*
D03*
D62*
X27165Y63189D02*
D03*
Y47047D02*
D03*
X83465Y63976D02*
D03*
Y47835D02*
D03*
D63*
X240158Y151378D02*
D03*
Y113976D02*
D03*
D64*
X379921Y279528D02*
D03*
X377953Y15748D02*
D03*
X15748D02*
D03*
Y271654D02*
D03*
D65*
X48425Y76378D02*
D03*
X61024D02*
D03*
D66*
X42913Y162992D02*
D03*
Y172047D02*
D03*
Y181102D02*
D03*
D67*
X18504Y172047D02*
D03*
D68*
X60000Y243307D02*
D03*
D69*
X45276Y18504D02*
D03*
X64961D02*
D03*
X257480D02*
D03*
X277165D02*
D03*
D70*
X44094Y267717D02*
D03*
X69685D02*
D03*
Y285433D02*
D03*
X108661Y267717D02*
D03*
X134252D02*
D03*
Y285433D02*
D03*
X35827Y209449D02*
D03*
X10236D02*
D03*
Y191732D02*
D03*
D71*
X44094Y285433D02*
D03*
X108661D02*
D03*
X35827Y191732D02*
D03*
D72*
X110000Y53307D02*
D03*
X250000Y243307D02*
D03*
X200000Y53307D02*
D03*
X164000Y243307D02*
D03*
X362205Y155118D02*
D03*
Y166929D02*
D03*
Y178740D02*
D03*
Y190551D02*
D03*
Y205512D02*
D03*
Y217323D02*
D03*
Y229134D02*
D03*
Y240945D02*
D03*
Y54331D02*
D03*
Y66142D02*
D03*
Y104724D02*
D03*
Y116535D02*
D03*
Y77953D02*
D03*
Y89764D02*
D03*
Y128347D02*
D03*
Y140157D02*
D03*
D73*
X120000Y53307D02*
D03*
X130000D02*
D03*
X140000D02*
D03*
X150000D02*
D03*
X160000D02*
D03*
X170000D02*
D03*
X180000D02*
D03*
X240000Y243307D02*
D03*
X230000D02*
D03*
X220000D02*
D03*
X210000D02*
D03*
X200000D02*
D03*
X190000D02*
D03*
X180000D02*
D03*
X250000Y53307D02*
D03*
X240000D02*
D03*
X230000D02*
D03*
X220000D02*
D03*
X210000D02*
D03*
X74000Y243307D02*
D03*
X84000D02*
D03*
X94000D02*
D03*
X104000D02*
D03*
X114000D02*
D03*
X124000D02*
D03*
X134000D02*
D03*
X144000D02*
D03*
X154000D02*
D03*
X382205Y155118D02*
D03*
X372205D02*
D03*
Y166929D02*
D03*
X382205D02*
D03*
Y178740D02*
D03*
X372205D02*
D03*
Y190551D02*
D03*
X382205D02*
D03*
Y205512D02*
D03*
X372205D02*
D03*
Y217323D02*
D03*
X382205D02*
D03*
Y229134D02*
D03*
X372205D02*
D03*
Y240945D02*
D03*
X382205D02*
D03*
Y54331D02*
D03*
X372205D02*
D03*
Y66142D02*
D03*
X382205D02*
D03*
Y104724D02*
D03*
X372205D02*
D03*
Y116535D02*
D03*
X382205D02*
D03*
Y77953D02*
D03*
X372205D02*
D03*
Y89764D02*
D03*
X382205D02*
D03*
Y128347D02*
D03*
X372205D02*
D03*
Y140157D02*
D03*
X382205D02*
D03*
D74*
X70866Y183858D02*
D03*
Y223228D02*
D03*
D75*
X31890Y237795D02*
D03*
D76*
X21890D02*
D03*
X11890D02*
D03*
X31890Y227795D02*
D03*
X21890D02*
D03*
X11890D02*
D03*
D77*
X267717Y283465D02*
D03*
X287402D02*
D03*
X307087D02*
D03*
X326772D02*
D03*
X346457D02*
D03*
X366142D02*
D03*
X12205Y98032D02*
D03*
D78*
X267717Y273465D02*
D03*
X287402D02*
D03*
X307087D02*
D03*
X326772D02*
D03*
X346457D02*
D03*
X366142D02*
D03*
X12205Y88032D02*
D03*
Y78031D02*
D03*
D79*
X313386Y35039D02*
D03*
Y15354D02*
D03*
D80*
X260000Y73307D02*
D03*
Y183307D02*
D03*
X55000Y53307D02*
D03*
D81*
X16339Y146161D02*
D03*
X16339Y130413D02*
D03*
M02*
