G04 Layer_Color=8421504*
%FSLAX25Y25*%
%MOIN*%
G70*
G01*
G75*
%ADD10R,0.05906X0.02362*%
%ADD11R,0.03150X0.03150*%
%ADD12R,0.05118X0.02756*%
%ADD13R,0.03543X0.02362*%
%ADD14R,0.02362X0.03543*%
%ADD15R,0.03543X0.05118*%
%ADD16R,0.21654X0.08268*%
%ADD17R,0.02756X0.05118*%
%ADD18R,0.05118X0.03543*%
%ADD19R,0.03150X0.03150*%
%ADD20R,0.06299X0.11811*%
%ADD21R,0.08268X0.21654*%
%ADD22R,0.01772X0.04724*%
%ADD23R,0.04724X0.01772*%
%ADD25R,0.01378X0.03937*%
%ADD26R,0.07874X0.10630*%
%ADD27R,0.09843X0.04724*%
%ADD28R,0.09843X0.13780*%
%ADD29R,0.02362X0.04724*%
%ADD30R,0.08268X0.01575*%
D10*
X56693Y165541D02*
D03*
Y160541D02*
D03*
Y155541D02*
D03*
Y150541D02*
D03*
X77953Y165541D02*
D03*
Y160541D02*
D03*
Y155541D02*
D03*
Y140581D02*
D03*
Y145581D02*
D03*
Y150581D02*
D03*
X56693Y140581D02*
D03*
Y145581D02*
D03*
X77953Y130522D02*
D03*
Y135522D02*
D03*
X56693Y130522D02*
D03*
Y135522D02*
D03*
D11*
X8268Y174016D02*
D03*
Y180315D02*
D03*
D12*
Y165945D02*
D03*
Y158465D02*
D03*
X111811Y37598D02*
D03*
Y45079D02*
D03*
X26378Y80905D02*
D03*
Y88386D02*
D03*
Y87992D02*
D03*
Y95472D02*
D03*
X80315Y275394D02*
D03*
Y267913D02*
D03*
X147638Y267520D02*
D03*
Y260039D02*
D03*
X33858Y267913D02*
D03*
Y275394D02*
D03*
X99213Y267913D02*
D03*
Y275394D02*
D03*
X50394Y200591D02*
D03*
Y208071D02*
D03*
Y195079D02*
D03*
Y187598D02*
D03*
X216831Y136221D02*
D03*
Y128740D02*
D03*
X164173Y145866D02*
D03*
Y153347D02*
D03*
X267717Y256102D02*
D03*
Y263583D02*
D03*
X287402Y256102D02*
D03*
Y263583D02*
D03*
X307087Y256102D02*
D03*
Y263583D02*
D03*
X326772Y256102D02*
D03*
Y263583D02*
D03*
X346457Y256102D02*
D03*
Y263583D02*
D03*
X366142Y256102D02*
D03*
Y263583D02*
D03*
X271654Y148228D02*
D03*
Y155709D02*
D03*
X262992Y148228D02*
D03*
Y155709D02*
D03*
X298425Y126969D02*
D03*
Y134449D02*
D03*
D13*
X34400Y130447D02*
D03*
Y136353D02*
D03*
D14*
X27461Y144488D02*
D03*
X33366D02*
D03*
D15*
X56102Y113386D02*
D03*
X63583D02*
D03*
X78543D02*
D03*
X71063D02*
D03*
X86811Y172835D02*
D03*
X79331D02*
D03*
X40748Y153543D02*
D03*
X48228D02*
D03*
X63976Y172835D02*
D03*
X71457D02*
D03*
X33268Y153543D02*
D03*
X25787D02*
D03*
X102559Y232677D02*
D03*
X95079D02*
D03*
X18307Y217717D02*
D03*
X25787D02*
D03*
X314370Y125984D02*
D03*
X306890D02*
D03*
X314370Y134252D02*
D03*
X306890D02*
D03*
D16*
X48622Y98425D02*
D03*
X86024D02*
D03*
D17*
X63583Y122047D02*
D03*
X71063D02*
D03*
X42160Y138200D02*
D03*
X49640D02*
D03*
X42060Y145900D02*
D03*
X49540D02*
D03*
X26575Y122441D02*
D03*
X34055D02*
D03*
X185630Y272441D02*
D03*
X193110D02*
D03*
X185630Y263779D02*
D03*
X193110D02*
D03*
X159634Y75561D02*
D03*
X152154D02*
D03*
X159694Y66745D02*
D03*
X152213D02*
D03*
X159634Y88189D02*
D03*
X152154D02*
D03*
X159634Y96850D02*
D03*
X152154D02*
D03*
X340748Y128347D02*
D03*
X348228D02*
D03*
X340748Y140157D02*
D03*
X348229D02*
D03*
X340748Y77953D02*
D03*
X348228D02*
D03*
X340748Y89764D02*
D03*
X348229D02*
D03*
X340748Y104724D02*
D03*
X348229D02*
D03*
X340748Y116535D02*
D03*
X348228D02*
D03*
X340748Y54331D02*
D03*
X348228D02*
D03*
X340748Y66142D02*
D03*
X348228D02*
D03*
X340748Y229134D02*
D03*
X348228D02*
D03*
X340748Y240945D02*
D03*
X348228D02*
D03*
X340748Y205512D02*
D03*
X348228D02*
D03*
X340748Y217323D02*
D03*
X348229D02*
D03*
X340748Y178740D02*
D03*
X348229D02*
D03*
X340748Y190551D02*
D03*
X348228D02*
D03*
X340748Y155118D02*
D03*
X348229D02*
D03*
X340748Y166929D02*
D03*
X348228D02*
D03*
D18*
X87402Y156890D02*
D03*
Y164370D02*
D03*
X96063Y156890D02*
D03*
Y164370D02*
D03*
X104724Y156890D02*
D03*
Y164370D02*
D03*
X87402Y149016D02*
D03*
Y141535D02*
D03*
X59449Y195472D02*
D03*
Y187992D02*
D03*
X237858Y273031D02*
D03*
Y280512D02*
D03*
X229984Y273031D02*
D03*
Y280512D02*
D03*
X245732Y273031D02*
D03*
Y280512D02*
D03*
X89900Y275440D02*
D03*
Y267960D02*
D03*
X156299Y267520D02*
D03*
Y260039D02*
D03*
X50394Y222244D02*
D03*
Y214764D02*
D03*
X120472Y36811D02*
D03*
Y44291D02*
D03*
X148819Y37205D02*
D03*
Y44685D02*
D03*
X140157Y37205D02*
D03*
Y44685D02*
D03*
X157480Y37205D02*
D03*
Y44685D02*
D03*
X225590Y143110D02*
D03*
Y135630D02*
D03*
Y121457D02*
D03*
Y128937D02*
D03*
X164173Y123425D02*
D03*
Y115945D02*
D03*
X155512Y131299D02*
D03*
Y123819D02*
D03*
X164173Y130905D02*
D03*
Y138386D02*
D03*
X146949Y123819D02*
D03*
Y131299D02*
D03*
X225590Y106890D02*
D03*
Y114370D02*
D03*
X216929Y114764D02*
D03*
Y122244D02*
D03*
Y100197D02*
D03*
Y107677D02*
D03*
X229921Y264370D02*
D03*
Y256890D02*
D03*
X238976Y264370D02*
D03*
Y256890D02*
D03*
X247638Y264370D02*
D03*
Y256890D02*
D03*
X290158Y134055D02*
D03*
Y126575D02*
D03*
X323228Y125394D02*
D03*
Y132874D02*
D03*
D19*
X99606Y33465D02*
D03*
X93307D02*
D03*
X178740Y271260D02*
D03*
X172441D02*
D03*
X178740Y264961D02*
D03*
X172441D02*
D03*
X167044Y75561D02*
D03*
X173343D02*
D03*
X167044Y66745D02*
D03*
X173343D02*
D03*
D20*
X27165Y63189D02*
D03*
Y47047D02*
D03*
X83465Y63976D02*
D03*
Y47835D02*
D03*
D21*
X240158Y151378D02*
D03*
Y113976D02*
D03*
D22*
X201024Y105591D02*
D03*
X197874D02*
D03*
X194724D02*
D03*
X191575D02*
D03*
X188425D02*
D03*
X185276D02*
D03*
X182126D02*
D03*
X178976D02*
D03*
X178976Y141024D02*
D03*
X182126D02*
D03*
X185276D02*
D03*
X188425D02*
D03*
X191575D02*
D03*
X194724D02*
D03*
X197874D02*
D03*
X201024D02*
D03*
D23*
X172480Y112283D02*
D03*
Y115433D02*
D03*
Y118583D02*
D03*
Y121732D02*
D03*
Y124882D02*
D03*
Y128032D02*
D03*
Y131181D02*
D03*
Y134331D02*
D03*
X207716D02*
D03*
Y131181D02*
D03*
Y128032D02*
D03*
Y124882D02*
D03*
Y121732D02*
D03*
Y118583D02*
D03*
Y115433D02*
D03*
Y112283D02*
D03*
D25*
X282185Y142323D02*
D03*
X284744D02*
D03*
X287303D02*
D03*
X289862D02*
D03*
X292421D02*
D03*
X294980D02*
D03*
X297539D02*
D03*
X300098D02*
D03*
X302658D02*
D03*
X305217D02*
D03*
X307776D02*
D03*
X310335D02*
D03*
X312894D02*
D03*
X315453D02*
D03*
X282185Y166339D02*
D03*
X284744D02*
D03*
X287303D02*
D03*
X289862D02*
D03*
X292421D02*
D03*
X294980D02*
D03*
X297539D02*
D03*
X300098D02*
D03*
X302658D02*
D03*
X305217D02*
D03*
X307776D02*
D03*
X310335D02*
D03*
X312894D02*
D03*
X315453D02*
D03*
D26*
X48425Y76378D02*
D03*
X61024D02*
D03*
D27*
X42913Y162992D02*
D03*
Y172047D02*
D03*
Y181102D02*
D03*
D28*
X18504Y172047D02*
D03*
D29*
X219311Y276378D02*
D03*
X214311D02*
D03*
X209311D02*
D03*
X204311D02*
D03*
X219311Y255118D02*
D03*
X214311D02*
D03*
X209311D02*
D03*
X204311D02*
D03*
D30*
X19587Y133169D02*
D03*
Y135728D02*
D03*
Y138287D02*
D03*
Y140847D02*
D03*
Y143405D02*
D03*
M02*
