G04 Layer_Color=32768*
%FSLAX25Y25*%
%MOIN*%
G70*
G01*
G75*
%ADD35C,0.01969*%
%ADD51C,0.01000*%
D35*
X311032Y-35833D02*
Y-43704D01*
X314968Y-47640D01*
X318903Y-43704D01*
Y-35833D01*
X334646Y-47640D02*
X338582D01*
X336614D01*
Y-35833D01*
X334646Y-37801D01*
X344486Y-47640D02*
Y-45672D01*
X346453D01*
Y-47640D01*
X344486D01*
X354325Y-37801D02*
X356293Y-35833D01*
X360229D01*
X362196Y-37801D01*
Y-45672D01*
X360229Y-47640D01*
X356293D01*
X354325Y-45672D01*
Y-37801D01*
X57084Y-37405D02*
X55116Y-35437D01*
X51180D01*
X49213Y-37405D01*
Y-39373D01*
X51180Y-41341D01*
X55116D01*
X57084Y-43308D01*
Y-45276D01*
X55116Y-47244D01*
X51180D01*
X49213Y-45276D01*
X66923Y-47244D02*
X62988D01*
X61020Y-45276D01*
Y-41341D01*
X62988Y-39373D01*
X66923D01*
X68891Y-41341D01*
Y-43308D01*
X61020D01*
X72827Y-39373D02*
Y-47244D01*
Y-43308D01*
X74795Y-41341D01*
X76763Y-39373D01*
X78731D01*
X84634D02*
X88570Y-47244D01*
X92506Y-39373D01*
X98409Y-47244D02*
X102345D01*
X104313Y-45276D01*
Y-41341D01*
X102345Y-39373D01*
X98409D01*
X96441Y-41341D01*
Y-45276D01*
X98409Y-47244D01*
X127927Y-37405D02*
X125959Y-35437D01*
X122024D01*
X120056Y-37405D01*
Y-45276D01*
X122024Y-47244D01*
X125959D01*
X127927Y-45276D01*
X133831Y-47244D02*
X137767D01*
X139734Y-45276D01*
Y-41341D01*
X137767Y-39373D01*
X133831D01*
X131863Y-41341D01*
Y-45276D01*
X133831Y-47244D01*
X143670D02*
Y-39373D01*
X149574D01*
X151542Y-41341D01*
Y-47244D01*
X157445Y-37405D02*
Y-39373D01*
X155477D01*
X159413D01*
X157445D01*
Y-45276D01*
X159413Y-47244D01*
X165317Y-39373D02*
Y-47244D01*
Y-43308D01*
X167285Y-41341D01*
X169253Y-39373D01*
X171220D01*
X179092Y-47244D02*
X183028D01*
X184995Y-45276D01*
Y-41341D01*
X183028Y-39373D01*
X179092D01*
X177124Y-41341D01*
Y-45276D01*
X179092Y-47244D01*
X188931D02*
X192867D01*
X190899D01*
Y-35437D01*
X188931D01*
X198770Y-47244D02*
X202706D01*
X200738D01*
Y-35437D01*
X198770D01*
X214513Y-47244D02*
X210578D01*
X208610Y-45276D01*
Y-41341D01*
X210578Y-39373D01*
X214513D01*
X216481Y-41341D01*
Y-43308D01*
X208610D01*
X220417Y-39373D02*
Y-47244D01*
Y-43308D01*
X222385Y-41341D01*
X224353Y-39373D01*
X226321D01*
D51*
X7874Y-29134D02*
X372047D01*
Y-98032D02*
Y-29134D01*
X7874Y-58661D02*
X372047D01*
X303150D02*
Y-29134D01*
X7874Y-98032D02*
Y-29134D01*
Y-101575D02*
Y-97736D01*
X372047Y-101575D02*
Y-97736D01*
X7874Y-101575D02*
X372047D01*
X26984Y-62297D02*
Y-68295D01*
X29983D01*
X30983Y-67295D01*
Y-63296D01*
X29983Y-62297D01*
X26984D01*
X35981Y-68295D02*
X33982D01*
X32982Y-67295D01*
Y-65296D01*
X33982Y-64296D01*
X35981D01*
X36981Y-65296D01*
Y-66295D01*
X32982D01*
X38980Y-68295D02*
X41979D01*
X42979Y-67295D01*
X41979Y-66295D01*
X39980D01*
X38980Y-65296D01*
X39980Y-64296D01*
X42979D01*
X44978Y-68295D02*
X46978D01*
X45978D01*
Y-64296D01*
X44978D01*
X51976Y-70294D02*
X52976D01*
X53975Y-69295D01*
Y-64296D01*
X50977D01*
X49977Y-65296D01*
Y-67295D01*
X50977Y-68295D01*
X53975D01*
X55975D02*
Y-64296D01*
X58974D01*
X59974Y-65296D01*
Y-68295D01*
X64972D02*
X62973D01*
X61973Y-67295D01*
Y-65296D01*
X62973Y-64296D01*
X64972D01*
X65972Y-65296D01*
Y-66295D01*
X61973D01*
X71970Y-62297D02*
Y-68295D01*
X68971D01*
X67971Y-67295D01*
Y-65296D01*
X68971Y-64296D01*
X71970D01*
X79967Y-62297D02*
Y-68295D01*
X82966D01*
X83966Y-67295D01*
Y-66295D01*
Y-65296D01*
X82966Y-64296D01*
X79967D01*
X85965D02*
Y-67295D01*
X86965Y-68295D01*
X89964D01*
Y-69295D01*
X88964Y-70294D01*
X87964D01*
X89964Y-68295D02*
Y-64296D01*
X101960Y-62297D02*
X97961D01*
Y-65296D01*
X99961D01*
X97961D01*
Y-68295D01*
X104959Y-64296D02*
X106958D01*
X107958Y-65296D01*
Y-68295D01*
X104959D01*
X103959Y-67295D01*
X104959Y-66295D01*
X107958D01*
X111957Y-70294D02*
X112956D01*
X113956Y-69295D01*
Y-64296D01*
X110957D01*
X109957Y-65296D01*
Y-67295D01*
X110957Y-68295D01*
X113956D01*
X115955D02*
Y-64296D01*
X118955D01*
X119954Y-65296D01*
Y-68295D01*
X124953D02*
X122953D01*
X121953Y-67295D01*
Y-65296D01*
X122953Y-64296D01*
X124953D01*
X125952Y-65296D01*
Y-66295D01*
X121953D01*
X127952Y-64296D02*
Y-68295D01*
Y-66295D01*
X128951Y-65296D01*
X129951Y-64296D01*
X130951D01*
X139948Y-62297D02*
Y-68295D01*
X143946D01*
X145946D02*
X147945D01*
X146946D01*
Y-64296D01*
X145946D01*
X150944D02*
Y-68295D01*
Y-66295D01*
X151944Y-65296D01*
X152944Y-64296D01*
X153943D01*
X156942D02*
Y-67295D01*
X157942Y-68295D01*
X160941D01*
Y-69295D01*
X159941Y-70294D01*
X158942D01*
X160941Y-68295D02*
Y-64296D01*
X163940D02*
X165939D01*
X166939Y-65296D01*
Y-68295D01*
X163940D01*
X162940Y-67295D01*
X163940Y-66295D01*
X166939D01*
X26984Y-73894D02*
Y-79892D01*
Y-76893D01*
X30983D01*
Y-73894D01*
Y-79892D01*
X33982D02*
X35981D01*
X36981Y-78892D01*
Y-76893D01*
X35981Y-75893D01*
X33982D01*
X32982Y-76893D01*
Y-78892D01*
X33982Y-79892D01*
X38980D02*
Y-75893D01*
X39980D01*
X40980Y-76893D01*
Y-79892D01*
Y-76893D01*
X41979Y-75893D01*
X42979Y-76893D01*
Y-79892D01*
X47978D02*
X45978D01*
X44978Y-78892D01*
Y-76893D01*
X45978Y-75893D01*
X47978D01*
X48977Y-76893D01*
Y-77893D01*
X44978D01*
X50977Y-81891D02*
Y-75893D01*
X53975D01*
X54975Y-76893D01*
Y-78892D01*
X53975Y-79892D01*
X50977D01*
X57974Y-75893D02*
X59974D01*
X60973Y-76893D01*
Y-79892D01*
X57974D01*
X56975Y-78892D01*
X57974Y-77893D01*
X60973D01*
X64972Y-81891D02*
X65972D01*
X66971Y-80892D01*
Y-75893D01*
X63972D01*
X62973Y-76893D01*
Y-78892D01*
X63972Y-79892D01*
X66971D01*
X71970D02*
X69970D01*
X68971Y-78892D01*
Y-76893D01*
X69970Y-75893D01*
X71970D01*
X72969Y-76893D01*
Y-77893D01*
X68971D01*
X74969Y-75893D02*
X75968D01*
Y-76893D01*
X74969D01*
Y-75893D01*
Y-78892D02*
X75968D01*
Y-79892D01*
X74969D01*
Y-78892D01*
X87964Y-81891D02*
X88964D01*
X89964Y-80892D01*
Y-75893D01*
X86965D01*
X85965Y-76893D01*
Y-78892D01*
X86965Y-79892D01*
X89964D01*
X91963D02*
X93963D01*
X92963D01*
Y-75893D01*
X91963D01*
X97961Y-74893D02*
Y-75893D01*
X96962D01*
X98961D01*
X97961D01*
Y-78892D01*
X98961Y-79892D01*
X101960Y-73894D02*
Y-79892D01*
Y-76893D01*
X102960Y-75893D01*
X104959D01*
X105959Y-76893D01*
Y-79892D01*
X107958Y-75893D02*
Y-78892D01*
X108958Y-79892D01*
X111957D01*
Y-75893D01*
X113956Y-73894D02*
Y-79892D01*
X116955D01*
X117955Y-78892D01*
Y-77893D01*
Y-76893D01*
X116955Y-75893D01*
X113956D01*
X119954Y-79892D02*
Y-78892D01*
X120954D01*
Y-79892D01*
X119954D01*
X128951Y-75893D02*
X125952D01*
X124952Y-76893D01*
Y-78892D01*
X125952Y-79892D01*
X128951D01*
X131950D02*
X133950D01*
X134949Y-78892D01*
Y-76893D01*
X133950Y-75893D01*
X131950D01*
X130951Y-76893D01*
Y-78892D01*
X131950Y-79892D01*
X136949D02*
Y-75893D01*
X137948D01*
X138948Y-76893D01*
Y-79892D01*
Y-76893D01*
X139948Y-75893D01*
X140947Y-76893D01*
Y-79892D01*
X142947D02*
X146945Y-75893D01*
X149944Y-79892D02*
Y-74893D01*
Y-76893D01*
X148945D01*
X150944D01*
X149944D01*
Y-74893D01*
X150944Y-73894D01*
X154943Y-75893D02*
X156942D01*
X157942Y-76893D01*
Y-79892D01*
X154943D01*
X153943Y-78892D01*
X154943Y-77893D01*
X157942D01*
X161941Y-81891D02*
X162940D01*
X163940Y-80892D01*
Y-75893D01*
X160941D01*
X159941Y-76893D01*
Y-78892D01*
X160941Y-79892D01*
X163940D01*
X165939D02*
Y-75893D01*
X168938D01*
X169938Y-76893D01*
Y-79892D01*
X174936D02*
X172937D01*
X171937Y-78892D01*
Y-76893D01*
X172937Y-75893D01*
X174936D01*
X175936Y-76893D01*
Y-77893D01*
X171937D01*
X177935Y-75893D02*
Y-79892D01*
Y-77893D01*
X178935Y-76893D01*
X179935Y-75893D01*
X180934D01*
X183933Y-79892D02*
X185933D01*
X184933D01*
Y-73894D01*
X183933D01*
X188932Y-79892D02*
X190931D01*
X189931D01*
Y-75893D01*
X188932D01*
X193930D02*
Y-79892D01*
Y-77893D01*
X194930Y-76893D01*
X195930Y-75893D01*
X196929D01*
X199928D02*
Y-78892D01*
X200928Y-79892D01*
X203927D01*
Y-80892D01*
X202927Y-81891D01*
X201928D01*
X203927Y-79892D02*
Y-75893D01*
X206926D02*
X208925D01*
X209925Y-76893D01*
Y-79892D01*
X206926D01*
X205926Y-78892D01*
X206926Y-77893D01*
X209925D01*
X30983Y-86490D02*
X29983Y-85491D01*
X27984D01*
X26984Y-86490D01*
Y-90489D01*
X27984Y-91489D01*
X29983D01*
X30983Y-90489D01*
X33982Y-91489D02*
X35981D01*
X36981Y-90489D01*
Y-88490D01*
X35981Y-87490D01*
X33982D01*
X32982Y-88490D01*
Y-90489D01*
X33982Y-91489D01*
X38980D02*
Y-87490D01*
X41979D01*
X42979Y-88490D01*
Y-91489D01*
X45978Y-86490D02*
Y-87490D01*
X44978D01*
X46978D01*
X45978D01*
Y-90489D01*
X46978Y-91489D01*
X50977Y-87490D02*
X52976D01*
X53975Y-88490D01*
Y-91489D01*
X50977D01*
X49977Y-90489D01*
X50977Y-89490D01*
X53975D01*
X56975Y-86490D02*
Y-87490D01*
X55975D01*
X57974D01*
X56975D01*
Y-90489D01*
X57974Y-91489D01*
X64972Y-87490D02*
X61973D01*
X60973Y-88490D01*
Y-90489D01*
X61973Y-91489D01*
X64972D01*
X67971Y-86490D02*
Y-87490D01*
X66971D01*
X68971D01*
X67971D01*
Y-90489D01*
X68971Y-91489D01*
X71970Y-87490D02*
X72969D01*
Y-88490D01*
X71970D01*
Y-87490D01*
Y-90489D02*
X72969D01*
Y-91489D01*
X71970D01*
Y-90489D01*
X83966Y-91489D02*
Y-86490D01*
Y-88490D01*
X82966D01*
X84965D01*
X83966D01*
Y-86490D01*
X84965Y-85491D01*
X89964Y-93488D02*
X90964D01*
X91963Y-92488D01*
Y-87490D01*
X88964D01*
X87964Y-88490D01*
Y-90489D01*
X88964Y-91489D01*
X91963D01*
X93963Y-87490D02*
Y-91489D01*
Y-89490D01*
X94962Y-88490D01*
X95962Y-87490D01*
X96962D01*
X99961Y-91489D02*
X101960D01*
X100960D01*
Y-85491D01*
X99961D01*
X104959Y-91489D02*
X106958D01*
X105959D01*
Y-87490D01*
X104959D01*
X109957D02*
Y-91489D01*
Y-89490D01*
X110957Y-88490D01*
X111957Y-87490D01*
X112956D01*
X115955D02*
Y-90489D01*
X116955Y-91489D01*
X119954D01*
Y-92488D01*
X118955Y-93488D01*
X117955D01*
X119954Y-91489D02*
Y-87490D01*
X122953D02*
X124952D01*
X125952Y-88490D01*
Y-91489D01*
X122953D01*
X121953Y-90489D01*
X122953Y-89490D01*
X125952D01*
X130951D02*
Y-88490D01*
X129951D01*
Y-89490D01*
X130951D01*
X131950Y-88490D01*
Y-86490D01*
X130951Y-85491D01*
X128951D01*
X127952Y-86490D01*
Y-90489D01*
X128951Y-91489D01*
X131950D01*
X135949Y-93488D02*
X136949D01*
X137948Y-92488D01*
Y-87490D01*
X134949D01*
X133950Y-88490D01*
Y-90489D01*
X134949Y-91489D01*
X137948D01*
X139948D02*
Y-87490D01*
X140947D01*
X141947Y-88490D01*
Y-91489D01*
Y-88490D01*
X142947Y-87490D01*
X143946Y-88490D01*
Y-91489D01*
X146945Y-87490D02*
X148945D01*
X149944Y-88490D01*
Y-91489D01*
X146945D01*
X145946Y-90489D01*
X146945Y-89490D01*
X149944D01*
X151944Y-91489D02*
X153943D01*
X152944D01*
Y-87490D01*
X151944D01*
X156942Y-91489D02*
X158941D01*
X157942D01*
Y-85491D01*
X156942D01*
X161941Y-91489D02*
Y-90489D01*
X162940D01*
Y-91489D01*
X161941D01*
X170938Y-87490D02*
X167939D01*
X166939Y-88490D01*
Y-90489D01*
X167939Y-91489D01*
X170938D01*
X173937D02*
X175936D01*
X176936Y-90489D01*
Y-88490D01*
X175936Y-87490D01*
X173937D01*
X172937Y-88490D01*
Y-90489D01*
X173937Y-91489D01*
X178935D02*
Y-87490D01*
X179935D01*
X180934Y-88490D01*
Y-91489D01*
Y-88490D01*
X181934Y-87490D01*
X182934Y-88490D01*
Y-91489D01*
X426227Y315354D02*
Y321352D01*
X423228Y318353D01*
X427227D01*
X429226Y315354D02*
Y316354D01*
X430226D01*
Y315354D01*
X429226D01*
X444222Y320353D02*
X443222Y321352D01*
X441222D01*
X440223Y320353D01*
Y316354D01*
X441222Y315354D01*
X443222D01*
X444222Y316354D01*
X449220Y321352D02*
X447221D01*
X446221Y320353D01*
Y316354D01*
X447221Y315354D01*
X449220D01*
X450220Y316354D01*
Y320353D01*
X449220Y321352D01*
X452219Y315354D02*
Y321352D01*
X454218Y319353D01*
X456218Y321352D01*
Y315354D01*
X458217D02*
Y321352D01*
X461216D01*
X462216Y320353D01*
Y318353D01*
X461216Y317354D01*
X458217D01*
X467214Y321352D02*
X465215D01*
X464215Y320353D01*
Y316354D01*
X465215Y315354D01*
X467214D01*
X468214Y316354D01*
Y320353D01*
X467214Y321352D01*
X470213Y315354D02*
Y321352D01*
X474212Y315354D01*
Y321352D01*
X480210D02*
X476211D01*
Y315354D01*
X480210D01*
X476211Y318353D02*
X478211D01*
X482209Y315354D02*
Y321352D01*
X486208Y315354D01*
Y321352D01*
X488207D02*
X492206D01*
X490207D01*
Y315354D01*
X500203Y321352D02*
X502203D01*
X501203D01*
Y315354D01*
X500203D01*
X502203D01*
X505202Y321352D02*
Y315354D01*
X508201D01*
X509200Y316354D01*
Y320353D01*
X508201Y321352D01*
X505202D01*
X515199D02*
X511200D01*
Y315354D01*
X515199D01*
X511200Y318353D02*
X513199D01*
X517198Y315354D02*
Y321352D01*
X521197Y315354D01*
Y321352D01*
X523196D02*
X527195D01*
X525195D01*
Y315354D01*
X529194Y319353D02*
X530194D01*
Y318353D01*
X529194D01*
Y319353D01*
Y316354D02*
X530194D01*
Y315354D01*
X529194D01*
Y316354D01*
X544189Y320353D02*
X543189Y321352D01*
X541190D01*
X540191Y320353D01*
Y316354D01*
X541190Y315354D01*
X543189D01*
X544189Y316354D01*
X549188Y321352D02*
X547188D01*
X546189Y320353D01*
Y316354D01*
X547188Y315354D01*
X549188D01*
X550187Y316354D01*
Y320353D01*
X549188Y321352D01*
X552187D02*
Y315354D01*
X556185D01*
X561184Y321352D02*
X559184D01*
X558185Y320353D01*
Y316354D01*
X559184Y315354D01*
X561184D01*
X562183Y316354D01*
Y320353D01*
X561184Y321352D01*
X564183D02*
Y316354D01*
X565182Y315354D01*
X567182D01*
X568182Y316354D01*
Y321352D01*
X570181Y315354D02*
Y321352D01*
X573180D01*
X574180Y320353D01*
Y318353D01*
X573180Y317354D01*
X570181D01*
X572180D02*
X574180Y315354D01*
X582177Y321352D02*
X586176D01*
X584176D01*
Y315354D01*
X591174Y321352D02*
X589175D01*
X588175Y320353D01*
Y316354D01*
X589175Y315354D01*
X591174D01*
X592174Y316354D01*
Y320353D01*
X591174Y321352D01*
X600171D02*
Y315354D01*
X603170D01*
X604170Y316354D01*
Y317354D01*
X603170Y318353D01*
X600171D01*
X603170D01*
X604170Y319353D01*
Y320353D01*
X603170Y321352D01*
X600171D01*
X610168D02*
X606169D01*
Y315354D01*
X610168D01*
X606169Y318353D02*
X608169D01*
X618165Y321352D02*
Y315354D01*
X620165Y317354D01*
X622164Y315354D01*
Y321352D01*
X624163D02*
Y315354D01*
Y318353D01*
X628162D01*
Y321352D01*
Y315354D01*
X630161Y321352D02*
X632161D01*
X631161D01*
Y315354D01*
X630161D01*
X632161D01*
X635160Y321352D02*
X639158D01*
X637159D01*
Y315354D01*
X645157Y321352D02*
X641158D01*
Y315354D01*
X645157D01*
X641158Y318353D02*
X643157D01*
X423228Y340038D02*
X424228Y341037D01*
X426227D01*
X427227Y340038D01*
Y339038D01*
X426227Y338038D01*
X425228D01*
X426227D01*
X427227Y337039D01*
Y336039D01*
X426227Y335039D01*
X424228D01*
X423228Y336039D01*
X429226Y335039D02*
Y336039D01*
X430226D01*
Y335039D01*
X429226D01*
X444222Y340038D02*
X443222Y341037D01*
X441222D01*
X440223Y340038D01*
Y339038D01*
X441222Y338038D01*
X443222D01*
X444222Y337039D01*
Y336039D01*
X443222Y335039D01*
X441222D01*
X440223Y336039D01*
X449220Y341037D02*
X447221D01*
X446221Y340038D01*
Y336039D01*
X447221Y335039D01*
X449220D01*
X450220Y336039D01*
Y340038D01*
X449220Y341037D01*
X452219D02*
Y335039D01*
X456218D01*
X458217Y341037D02*
Y335039D01*
X461216D01*
X462216Y336039D01*
Y340038D01*
X461216Y341037D01*
X458217D01*
X468214D02*
X464215D01*
Y335039D01*
X468214D01*
X464215Y338038D02*
X466214D01*
X470213Y335039D02*
Y341037D01*
X473212D01*
X474212Y340038D01*
Y338038D01*
X473212Y337039D01*
X470213D01*
X472213D02*
X474212Y335039D01*
X482209D02*
Y341037D01*
X485208D01*
X486208Y340038D01*
Y338038D01*
X485208Y337039D01*
X482209D01*
X484209D02*
X486208Y335039D01*
X492206Y341037D02*
X488207D01*
Y335039D01*
X492206D01*
X488207Y338038D02*
X490207D01*
X498204Y340038D02*
X497204Y341037D01*
X495205D01*
X494205Y340038D01*
Y339038D01*
X495205Y338038D01*
X497204D01*
X498204Y337039D01*
Y336039D01*
X497204Y335039D01*
X495205D01*
X494205Y336039D01*
X500203Y341037D02*
X502203D01*
X501203D01*
Y335039D01*
X500203D01*
X502203D01*
X509200Y340038D02*
X508201Y341037D01*
X506202D01*
X505202Y340038D01*
Y339038D01*
X506202Y338038D01*
X508201D01*
X509200Y337039D01*
Y336039D01*
X508201Y335039D01*
X506202D01*
X505202Y336039D01*
X511200Y341037D02*
X515199D01*
X513199D01*
Y335039D01*
X517198Y339038D02*
X518198D01*
Y338038D01*
X517198D01*
Y339038D01*
Y336039D02*
X518198D01*
Y335039D01*
X517198D01*
Y336039D01*
X528194Y335039D02*
Y339038D01*
X530194Y341037D01*
X532193Y339038D01*
Y335039D01*
Y338038D01*
X528194D01*
X534193Y335039D02*
Y341037D01*
X537191D01*
X538191Y340038D01*
Y338038D01*
X537191Y337039D01*
X534193D01*
X540191Y335039D02*
Y341037D01*
X543189D01*
X544189Y340038D01*
Y338038D01*
X543189Y337039D01*
X540191D01*
X546189Y341037D02*
Y335039D01*
X550187D01*
X552187Y341037D02*
Y340038D01*
X554186Y338038D01*
X556185Y340038D01*
Y341037D01*
X554186Y338038D02*
Y335039D01*
X564183Y341037D02*
X568182D01*
X566182D01*
Y335039D01*
X573180Y341037D02*
X571180D01*
X570181Y340038D01*
Y336039D01*
X571180Y335039D01*
X573180D01*
X574180Y336039D01*
Y340038D01*
X573180Y341037D01*
X582177D02*
Y335039D01*
X585176D01*
X586176Y336039D01*
Y337039D01*
X585176Y338038D01*
X582177D01*
X585176D01*
X586176Y339038D01*
Y340038D01*
X585176Y341037D01*
X582177D01*
X591174D02*
X589175D01*
X588175Y340038D01*
Y336039D01*
X589175Y335039D01*
X591174D01*
X592174Y336039D01*
Y340038D01*
X591174Y341037D01*
X594173D02*
X598172D01*
X596172D01*
Y335039D01*
X600171Y341037D02*
Y335039D01*
Y338038D01*
X604170D01*
Y341037D01*
Y335039D01*
X616166Y340038D02*
X615166Y341037D01*
X613167D01*
X612167Y340038D01*
Y339038D01*
X613167Y338038D01*
X615166D01*
X616166Y337039D01*
Y336039D01*
X615166Y335039D01*
X613167D01*
X612167Y336039D01*
X618165Y341037D02*
X620165D01*
X619165D01*
Y335039D01*
X618165D01*
X620165D01*
X623164Y341037D02*
Y335039D01*
X626163D01*
X627162Y336039D01*
Y340038D01*
X626163Y341037D01*
X623164D01*
X633160D02*
X629162D01*
Y335039D01*
X633160D01*
X629162Y338038D02*
X631161D01*
X639158Y340038D02*
X638159Y341037D01*
X636160D01*
X635160Y340038D01*
Y339038D01*
X636160Y338038D01*
X638159D01*
X639158Y337039D01*
Y336039D01*
X638159Y335039D01*
X636160D01*
X635160Y336039D01*
X651155Y340038D02*
X650155Y341037D01*
X648156D01*
X647156Y340038D01*
Y336039D01*
X648156Y335039D01*
X650155D01*
X651155Y336039D01*
X656153Y341037D02*
X654154D01*
X653154Y340038D01*
Y336039D01*
X654154Y335039D01*
X656153D01*
X657153Y336039D01*
Y340038D01*
X656153Y341037D01*
X659152D02*
Y335039D01*
X663151D01*
X668149Y341037D02*
X666150D01*
X665150Y340038D01*
Y336039D01*
X666150Y335039D01*
X668149D01*
X669149Y336039D01*
Y340038D01*
X668149Y341037D01*
X671148D02*
Y336039D01*
X672148Y335039D01*
X674147D01*
X675147Y336039D01*
Y341037D01*
X677146Y335039D02*
Y341037D01*
X680145D01*
X681145Y340038D01*
Y338038D01*
X680145Y337039D01*
X677146D01*
X679146D02*
X681145Y335039D01*
X689142Y338038D02*
X693141D01*
X705137Y340038D02*
X704138Y341037D01*
X702138D01*
X701138Y340038D01*
Y336039D01*
X702138Y335039D01*
X704138D01*
X705137Y336039D01*
Y338038D01*
X703138D01*
X707136Y335039D02*
Y341037D01*
X710136D01*
X711135Y340038D01*
Y338038D01*
X710136Y337039D01*
X707136D01*
X709136D02*
X711135Y335039D01*
X717133Y341037D02*
X713135D01*
Y335039D01*
X717133D01*
X713135Y338038D02*
X715134D01*
X723131Y341037D02*
X719133D01*
Y335039D01*
X723131D01*
X719133Y338038D02*
X721132D01*
X725131Y335039D02*
Y341037D01*
X729129Y335039D01*
Y341037D01*
X427227Y354724D02*
X423228D01*
X427227Y358723D01*
Y359723D01*
X426227Y360722D01*
X424228D01*
X423228Y359723D01*
X429226Y354724D02*
Y355724D01*
X430226D01*
Y354724D01*
X429226D01*
X440223Y360722D02*
Y354724D01*
X443222D01*
X444222Y355724D01*
Y356724D01*
X443222Y357723D01*
X440223D01*
X443222D01*
X444222Y358723D01*
Y359723D01*
X443222Y360722D01*
X440223D01*
X449220D02*
X447221D01*
X446221Y359723D01*
Y355724D01*
X447221Y354724D01*
X449220D01*
X450220Y355724D01*
Y359723D01*
X449220Y360722D01*
X452219Y354724D02*
Y358723D01*
X454218Y360722D01*
X456218Y358723D01*
Y354724D01*
Y357723D01*
X452219D01*
X458217Y354724D02*
Y360722D01*
X461216D01*
X462216Y359723D01*
Y357723D01*
X461216Y356724D01*
X458217D01*
X460216D02*
X462216Y354724D01*
X464215Y360722D02*
Y354724D01*
X467214D01*
X468214Y355724D01*
Y359723D01*
X467214Y360722D01*
X464215D01*
X480210D02*
X476211D01*
Y357723D01*
X478211D01*
X476211D01*
Y354724D01*
X482209Y360722D02*
X484209D01*
X483209D01*
Y354724D01*
X482209D01*
X484209D01*
X487208D02*
Y360722D01*
X491206Y354724D01*
Y360722D01*
X493206D02*
X495205D01*
X494205D01*
Y354724D01*
X493206D01*
X495205D01*
X502203Y359723D02*
X501203Y360722D01*
X499204D01*
X498204Y359723D01*
Y358723D01*
X499204Y357723D01*
X501203D01*
X502203Y356724D01*
Y355724D01*
X501203Y354724D01*
X499204D01*
X498204Y355724D01*
X504202Y360722D02*
Y354724D01*
Y357723D01*
X508201D01*
Y360722D01*
Y354724D01*
X510200Y358723D02*
X511200D01*
Y357723D01*
X510200D01*
Y358723D01*
Y355724D02*
X511200D01*
Y354724D01*
X510200D01*
Y355724D01*
X521197Y360722D02*
Y354724D01*
Y357723D01*
X525195D01*
Y360722D01*
Y354724D01*
X527195D02*
Y358723D01*
X529194Y360722D01*
X531193Y358723D01*
Y354724D01*
Y357723D01*
X527195D01*
X537191Y359723D02*
X536192Y360722D01*
X534193D01*
X533193Y359723D01*
Y358723D01*
X534193Y357723D01*
X536192D01*
X537191Y356724D01*
Y355724D01*
X536192Y354724D01*
X534193D01*
X533193Y355724D01*
X539191Y360722D02*
Y354724D01*
X543189D01*
X551187Y360722D02*
Y354724D01*
X553186Y356724D01*
X555186Y354724D01*
Y360722D01*
X557185D02*
X559184D01*
X558185D01*
Y354724D01*
X557185D01*
X559184D01*
X562183Y360722D02*
X566182D01*
X564183D01*
Y354724D01*
X568182Y360722D02*
Y354724D01*
Y357723D01*
X572180D01*
Y360722D01*
Y354724D01*
X580178Y360722D02*
Y354724D01*
X584176D01*
X590174Y360722D02*
X586176D01*
Y354724D01*
X590174D01*
X586176Y357723D02*
X588175D01*
X592174Y354724D02*
Y358723D01*
X594173Y360722D01*
X596172Y358723D01*
Y354724D01*
Y357723D01*
X592174D01*
X598172Y360722D02*
Y354724D01*
X601171D01*
X602171Y355724D01*
Y359723D01*
X601171Y360722D01*
X598172D01*
X423228Y374410D02*
X425228D01*
X424228D01*
Y380408D01*
X423228Y379408D01*
X428227Y374410D02*
Y375409D01*
X429226D01*
Y374410D01*
X428227D01*
X443222Y380408D02*
X439223D01*
Y377409D01*
X441222D01*
X439223D01*
Y374410D01*
X445221Y380408D02*
X447221D01*
X446221D01*
Y374410D01*
X445221D01*
X447221D01*
X450220D02*
Y380408D01*
X454218Y374410D01*
Y380408D01*
X456218D02*
X458217D01*
X457217D01*
Y374410D01*
X456218D01*
X458217D01*
X465215Y379408D02*
X464215Y380408D01*
X462216D01*
X461216Y379408D01*
Y378408D01*
X462216Y377409D01*
X464215D01*
X465215Y376409D01*
Y375409D01*
X464215Y374410D01*
X462216D01*
X461216Y375409D01*
X467214Y380408D02*
Y374410D01*
Y377409D01*
X471213D01*
Y380408D01*
Y374410D01*
X477211Y380408D02*
X473212D01*
Y374410D01*
X477211D01*
X473212Y377409D02*
X475211D01*
X479210Y380408D02*
Y374410D01*
X482209D01*
X483209Y375409D01*
Y379408D01*
X482209Y380408D01*
X479210D01*
X491206Y374410D02*
Y380408D01*
X494205D01*
X495205Y379408D01*
Y377409D01*
X494205Y376409D01*
X491206D01*
X497204Y374410D02*
Y378408D01*
X499204Y380408D01*
X501203Y378408D01*
Y374410D01*
Y377409D01*
X497204D01*
X503202Y374410D02*
Y380408D01*
X507201Y374410D01*
Y380408D01*
X513199D02*
X509200D01*
Y374410D01*
X513199D01*
X509200Y377409D02*
X511200D01*
X515199Y380408D02*
Y374410D01*
X519197D01*
X527195Y380408D02*
X531193D01*
X529194D01*
Y374410D01*
X533193Y380408D02*
Y374410D01*
Y377409D01*
X537191D01*
Y380408D01*
Y374410D01*
X539191Y380408D02*
X541190D01*
X540191D01*
Y374410D01*
X539191D01*
X541190D01*
X548188Y379408D02*
X547188Y380408D01*
X545189D01*
X544189Y379408D01*
Y375409D01*
X545189Y374410D01*
X547188D01*
X548188Y375409D01*
X550187Y380408D02*
Y374410D01*
Y376409D01*
X554186Y380408D01*
X551187Y377409D01*
X554186Y374410D01*
X556185D02*
Y380408D01*
X560184Y374410D01*
Y380408D01*
X566182D02*
X562183D01*
Y374410D01*
X566182D01*
X562183Y377409D02*
X564183D01*
X572180Y379408D02*
X571180Y380408D01*
X569181D01*
X568182Y379408D01*
Y378408D01*
X569181Y377409D01*
X571180D01*
X572180Y376409D01*
Y375409D01*
X571180Y374410D01*
X569181D01*
X568182Y375409D01*
X578178Y379408D02*
X577178Y380408D01*
X575179D01*
X574180Y379408D01*
Y378408D01*
X575179Y377409D01*
X577178D01*
X578178Y376409D01*
Y375409D01*
X577178Y374410D01*
X575179D01*
X574180Y375409D01*
X586176Y380408D02*
X588175D01*
X587175D01*
Y374410D01*
X586176D01*
X588175D01*
X595173Y379408D02*
X594173Y380408D01*
X592174D01*
X591174Y379408D01*
Y378408D01*
X592174Y377409D01*
X594173D01*
X595173Y376409D01*
Y375409D01*
X594173Y374410D01*
X592174D01*
X591174Y375409D01*
X603170Y374410D02*
Y380408D01*
X607169Y374410D01*
Y380408D01*
X612167D02*
X610168D01*
X609168Y379408D01*
Y375409D01*
X610168Y374410D01*
X612167D01*
X613167Y375409D01*
Y379408D01*
X612167Y380408D01*
X615166D02*
X619165D01*
X617166D01*
Y374410D01*
X631161Y379408D02*
X630161Y380408D01*
X628162D01*
X627162Y379408D01*
Y375409D01*
X628162Y374410D01*
X630161D01*
X631161Y375409D01*
X633160Y374410D02*
Y380408D01*
X636160D01*
X637159Y379408D01*
Y377409D01*
X636160Y376409D01*
X633160D01*
X635160D02*
X637159Y374410D01*
X639158Y380408D02*
X641158D01*
X640158D01*
Y374410D01*
X639158D01*
X641158D01*
X644157Y380408D02*
X648156D01*
X646156D01*
Y374410D01*
X650155Y380408D02*
X652154D01*
X651155D01*
Y374410D01*
X650155D01*
X652154D01*
X659152Y379408D02*
X658152Y380408D01*
X656153D01*
X655153Y379408D01*
Y375409D01*
X656153Y374410D01*
X658152D01*
X659152Y375409D01*
X661151Y374410D02*
Y378408D01*
X663151Y380408D01*
X665150Y378408D01*
Y374410D01*
Y377409D01*
X661151D01*
X667149Y380408D02*
Y374410D01*
X671148D01*
X673147Y378408D02*
X674147D01*
Y377409D01*
X673147D01*
Y378408D01*
Y375409D02*
X674147D01*
Y374410D01*
X673147D01*
Y375409D01*
X684144Y380408D02*
X688143D01*
X686143D01*
Y374410D01*
X693141Y380408D02*
X691142D01*
X690142Y379408D01*
Y375409D01*
X691142Y374410D01*
X693141D01*
X694141Y375409D01*
Y379408D01*
X693141Y380408D01*
X702138D02*
Y374410D01*
X705137D01*
X706137Y375409D01*
Y376409D01*
X705137Y377409D01*
X702138D01*
X705137D01*
X706137Y378408D01*
Y379408D01*
X705137Y380408D01*
X702138D01*
X712135D02*
X708136D01*
Y374410D01*
X712135D01*
X708136Y377409D02*
X710136D01*
X720132Y374410D02*
Y378408D01*
X722132Y380408D01*
X724131Y378408D01*
Y374410D01*
Y377409D01*
X720132D01*
X726130Y374410D02*
Y380408D01*
X729129D01*
X730129Y379408D01*
Y377409D01*
X729129Y376409D01*
X726130D01*
X732128Y374410D02*
Y380408D01*
X735127D01*
X736127Y379408D01*
Y377409D01*
X735127Y376409D01*
X732128D01*
X738127Y374410D02*
Y380408D01*
X741125D01*
X742125Y379408D01*
Y377409D01*
X741125Y376409D01*
X738127D01*
X740126D02*
X742125Y374410D01*
X747124Y380408D02*
X745124D01*
X744125Y379408D01*
Y375409D01*
X745124Y374410D01*
X747124D01*
X748123Y375409D01*
Y379408D01*
X747124Y380408D01*
X750123D02*
X754121Y374410D01*
Y380408D02*
X750123Y374410D01*
X756121Y380408D02*
X758120D01*
X757120D01*
Y374410D01*
X756121D01*
X758120D01*
X761119D02*
Y380408D01*
X763118Y378408D01*
X765118Y380408D01*
Y374410D01*
X767117D02*
Y378408D01*
X769116Y380408D01*
X771116Y378408D01*
Y374410D01*
Y377409D01*
X767117D01*
X773115Y380408D02*
X777114D01*
X775114D01*
Y374410D01*
X783112Y380408D02*
X779113D01*
Y374410D01*
X783112D01*
X779113Y377409D02*
X781113D01*
X785111Y380408D02*
Y374410D01*
X789110D01*
X791109Y380408D02*
Y379408D01*
X793109Y377409D01*
X795108Y379408D01*
Y380408D01*
X793109Y377409D02*
Y374410D01*
X803106D02*
X805105D01*
X804105D01*
Y380408D01*
X803106Y379408D01*
X808104Y374410D02*
Y375409D01*
X809103D01*
Y374410D01*
X808104D01*
X817101Y380408D02*
X815102Y379408D01*
X813102Y377409D01*
Y375409D01*
X814102Y374410D01*
X816101D01*
X817101Y375409D01*
Y376409D01*
X816101Y377409D01*
X813102D01*
X819100Y374410D02*
Y378408D01*
X820100D01*
X821100Y377409D01*
Y374410D01*
Y377409D01*
X822099Y378408D01*
X823099Y377409D01*
Y374410D01*
X825098D02*
Y378408D01*
X826098D01*
X827098Y377409D01*
Y374410D01*
Y377409D01*
X828097Y378408D01*
X829097Y377409D01*
Y374410D01*
X423228Y394094D02*
Y400093D01*
X425228Y398093D01*
X427227Y400093D01*
Y394094D01*
X429226D02*
X431226D01*
X430226D01*
Y398093D01*
X429226D01*
X434225Y394094D02*
Y398093D01*
X437224D01*
X438224Y397094D01*
Y394094D01*
X440223D02*
X442222D01*
X441222D01*
Y398093D01*
X440223D01*
X445221Y394094D02*
Y398093D01*
X446221D01*
X447221Y397094D01*
Y394094D01*
Y397094D01*
X448220Y398093D01*
X449220Y397094D01*
Y394094D01*
X451219Y398093D02*
Y395094D01*
X452219Y394094D01*
X455218D01*
Y398093D01*
X457217Y394094D02*
Y398093D01*
X458217D01*
X459217Y397094D01*
Y394094D01*
Y397094D01*
X460216Y398093D01*
X461216Y397094D01*
Y394094D01*
X469213Y400093D02*
X473212D01*
X471213D01*
Y394094D01*
X475211Y400093D02*
Y394094D01*
Y397094D01*
X476211Y398093D01*
X478211D01*
X479210Y397094D01*
Y394094D01*
X481210Y398093D02*
Y394094D01*
Y396094D01*
X482209Y397094D01*
X483209Y398093D01*
X484209D01*
X488207Y394094D02*
X490207D01*
X491206Y395094D01*
Y397094D01*
X490207Y398093D01*
X488207D01*
X487208Y397094D01*
Y395094D01*
X488207Y394094D01*
X493206Y398093D02*
Y395094D01*
X494205Y394094D01*
X497204D01*
Y398093D01*
X501203Y392095D02*
X502203D01*
X503202Y393095D01*
Y398093D01*
X500203D01*
X499204Y397094D01*
Y395094D01*
X500203Y394094D01*
X503202D01*
X505202Y400093D02*
Y394094D01*
Y397094D01*
X506202Y398093D01*
X508201D01*
X509200Y397094D01*
Y394094D01*
X517198Y400093D02*
Y394094D01*
Y397094D01*
X521197D01*
Y400093D01*
Y394094D01*
X524196D02*
X526195D01*
X527195Y395094D01*
Y397094D01*
X526195Y398093D01*
X524196D01*
X523196Y397094D01*
Y395094D01*
X524196Y394094D01*
X529194D02*
X531193D01*
X530194D01*
Y400093D01*
X529194D01*
X537191Y394094D02*
X535192D01*
X534193Y395094D01*
Y397094D01*
X535192Y398093D01*
X537191D01*
X538191Y397094D01*
Y396094D01*
X534193D01*
X546189Y400093D02*
Y396094D01*
X548188Y394094D01*
X550187Y396094D01*
Y400093D01*
X552187D02*
X554186D01*
X553186D01*
Y394094D01*
X552187D01*
X554186D01*
X557185D02*
Y398093D01*
X559184Y400093D01*
X561184Y398093D01*
Y394094D01*
Y397094D01*
X557185D01*
X563183Y398093D02*
X564183D01*
Y397094D01*
X563183D01*
Y398093D01*
Y395094D02*
X564183D01*
Y394094D01*
X563183D01*
Y395094D01*
X574180Y399093D02*
X575179Y400093D01*
X577178D01*
X578178Y399093D01*
Y395094D01*
X577178Y394094D01*
X575179D01*
X574180Y395094D01*
Y399093D01*
X580178Y394094D02*
Y395094D01*
X581177D01*
Y394094D01*
X580178D01*
X589175Y400093D02*
X587175Y399093D01*
X585176Y397094D01*
Y395094D01*
X586176Y394094D01*
X588175D01*
X589175Y395094D01*
Y396094D01*
X588175Y397094D01*
X585176D01*
X595173Y400093D02*
X591174D01*
Y397094D01*
X593173Y398093D01*
X594173D01*
X595173Y397094D01*
Y395094D01*
X594173Y394094D01*
X592174D01*
X591174Y395094D01*
X597172Y394094D02*
Y398093D01*
X598172D01*
X599171Y397094D01*
Y394094D01*
Y397094D01*
X600171Y398093D01*
X601171Y397094D01*
Y394094D01*
X603170D02*
Y398093D01*
X604170D01*
X605169Y397094D01*
Y394094D01*
Y397094D01*
X606169Y398093D01*
X607169Y397094D01*
Y394094D01*
X617166D02*
X615166Y396094D01*
Y398093D01*
X617166Y400093D01*
X620165Y392095D02*
Y398093D01*
X623164D01*
X624163Y397094D01*
Y395094D01*
X623164Y394094D01*
X620165D01*
X627162Y398093D02*
X629162D01*
X630161Y397094D01*
Y394094D01*
X627162D01*
X626163Y395094D01*
X627162Y396094D01*
X630161D01*
X636160Y400093D02*
Y394094D01*
X633160D01*
X632161Y395094D01*
Y397094D01*
X633160Y398093D01*
X636160D01*
X638159Y394094D02*
X640158Y396094D01*
Y398093D01*
X638159Y400093D01*
X649155Y394094D02*
X653154Y398093D01*
X661151Y399093D02*
X662151Y400093D01*
X664150D01*
X665150Y399093D01*
Y395094D01*
X664150Y394094D01*
X662151D01*
X661151Y395094D01*
Y399093D01*
X667149Y394094D02*
Y395094D01*
X668149D01*
Y394094D01*
X667149D01*
X672148Y399093D02*
X673147Y400093D01*
X675147D01*
X676147Y399093D01*
Y398093D01*
X675147Y397094D01*
X674147D01*
X675147D01*
X676147Y396094D01*
Y395094D01*
X675147Y394094D01*
X673147D01*
X672148Y395094D01*
X678146Y394094D02*
Y398093D01*
X679146D01*
X680145Y397094D01*
Y394094D01*
Y397094D01*
X681145Y398093D01*
X682145Y397094D01*
Y394094D01*
X684144D02*
Y398093D01*
X685144D01*
X686143Y397094D01*
Y394094D01*
Y397094D01*
X687143Y398093D01*
X688143Y397094D01*
Y394094D01*
X698139D02*
X696140Y396094D01*
Y398093D01*
X698139Y400093D01*
X705137D02*
Y394094D01*
X702138D01*
X701138Y395094D01*
Y397094D01*
X702138Y398093D01*
X705137D01*
X707136D02*
Y394094D01*
Y396094D01*
X708136Y397094D01*
X709136Y398093D01*
X710136D01*
X713135Y394094D02*
X715134D01*
X714134D01*
Y398093D01*
X713135D01*
X718133Y394094D02*
X720132D01*
X719133D01*
Y400093D01*
X718133D01*
X723131Y394094D02*
X725131D01*
X724131D01*
Y400093D01*
X723131D01*
X728130Y394094D02*
X730129Y396094D01*
Y398093D01*
X728130Y400093D01*
X733128Y394094D02*
Y395094D01*
X734128D01*
Y394094D01*
X733128D01*
X744125Y400093D02*
Y394094D01*
X747123D01*
X748123Y395094D01*
Y399093D01*
X747123Y400093D01*
X744125D01*
X750123Y398093D02*
Y394094D01*
Y396094D01*
X751122Y397094D01*
X752122Y398093D01*
X753122D01*
X756121Y394094D02*
X758120D01*
X757120D01*
Y398093D01*
X756121D01*
X761119Y394094D02*
X763118D01*
X762119D01*
Y400093D01*
X761119D01*
X766117Y394094D02*
X768117D01*
X767117D01*
Y400093D01*
X766117D01*
X771116Y394094D02*
X773115D01*
X772115D01*
Y398093D01*
X771116D01*
X776114Y394094D02*
Y398093D01*
X779113D01*
X780113Y397094D01*
Y394094D01*
X784112Y392095D02*
X785111D01*
X786111Y393095D01*
Y398093D01*
X783112D01*
X782112Y397094D01*
Y395094D01*
X783112Y394094D01*
X786111D01*
X788110Y398093D02*
X789110D01*
Y397094D01*
X788110D01*
Y398093D01*
Y395094D02*
X789110D01*
Y394094D01*
X788110D01*
Y395094D01*
X799107Y400093D02*
Y394094D01*
X803105D01*
X805105D02*
X807104D01*
X806104D01*
Y400093D01*
X805105Y399093D01*
X810103Y397094D02*
X814102D01*
X816101Y400093D02*
Y394094D01*
X820100D01*
X826098D02*
X822099D01*
X826098Y398093D01*
Y399093D01*
X825098Y400093D01*
X823099D01*
X822099Y399093D01*
X423228Y403937D02*
Y409935D01*
X425228Y407936D01*
X427227Y409935D01*
Y403937D01*
X429226D02*
X431226D01*
X430226D01*
Y407936D01*
X429226D01*
X434225Y403937D02*
Y407936D01*
X437224D01*
X438224Y406936D01*
Y403937D01*
X440223D02*
X442222D01*
X441222D01*
Y407936D01*
X440223D01*
X445221Y403937D02*
Y407936D01*
X446221D01*
X447221Y406936D01*
Y403937D01*
Y406936D01*
X448220Y407936D01*
X449220Y406936D01*
Y403937D01*
X451219Y407936D02*
Y404937D01*
X452219Y403937D01*
X455218D01*
Y407936D01*
X457217Y403937D02*
Y407936D01*
X458217D01*
X459217Y406936D01*
Y403937D01*
Y406936D01*
X460216Y407936D01*
X461216Y406936D01*
Y403937D01*
X473212Y408935D02*
X472213Y409935D01*
X470213D01*
X469213Y408935D01*
Y404937D01*
X470213Y403937D01*
X472213D01*
X473212Y404937D01*
Y406936D01*
X471213D01*
X476211Y407936D02*
X478211D01*
X479210Y406936D01*
Y403937D01*
X476211D01*
X475211Y404937D01*
X476211Y405936D01*
X479210D01*
X481210Y401938D02*
Y407936D01*
X484209D01*
X485208Y406936D01*
Y404937D01*
X484209Y403937D01*
X481210D01*
X487208Y407936D02*
X488207D01*
Y406936D01*
X487208D01*
Y407936D01*
Y404937D02*
X488207D01*
Y403937D01*
X487208D01*
Y404937D01*
X498204Y408935D02*
X499204Y409935D01*
X501203D01*
X502203Y408935D01*
Y404937D01*
X501203Y403937D01*
X499204D01*
X498204Y404937D01*
Y408935D01*
X504202Y403937D02*
Y404937D01*
X505202D01*
Y403937D01*
X504202D01*
X513199D02*
X509200D01*
X513199Y407936D01*
Y408935D01*
X512200Y409935D01*
X510200D01*
X509200Y408935D01*
X515199Y403937D02*
Y407936D01*
X516198D01*
X517198Y406936D01*
Y403937D01*
Y406936D01*
X518198Y407936D01*
X519197Y406936D01*
Y403937D01*
X521197D02*
Y407936D01*
X522196D01*
X523196Y406936D01*
Y403937D01*
Y406936D01*
X524196Y407936D01*
X525195Y406936D01*
Y403937D01*
X423228Y413779D02*
Y419778D01*
X425228Y417778D01*
X427227Y419778D01*
Y413779D01*
X429226D02*
X431226D01*
X430226D01*
Y417778D01*
X429226D01*
X434225Y413779D02*
Y417778D01*
X437224D01*
X438224Y416779D01*
Y413779D01*
X440223D02*
X442222D01*
X441222D01*
Y417778D01*
X440223D01*
X445221Y413779D02*
Y417778D01*
X446221D01*
X447221Y416779D01*
Y413779D01*
Y416779D01*
X448220Y417778D01*
X449220Y416779D01*
Y413779D01*
X451219Y417778D02*
Y414779D01*
X452219Y413779D01*
X455218D01*
Y417778D01*
X457217Y413779D02*
Y417778D01*
X458217D01*
X459217Y416779D01*
Y413779D01*
Y416779D01*
X460216Y417778D01*
X461216Y416779D01*
Y413779D01*
X469213Y419778D02*
X473212D01*
X471213D01*
Y413779D01*
X475211Y417778D02*
Y413779D01*
Y415779D01*
X476211Y416779D01*
X477211Y417778D01*
X478211D01*
X482209D02*
X484209D01*
X485208Y416779D01*
Y413779D01*
X482209D01*
X481210Y414779D01*
X482209Y415779D01*
X485208D01*
X491206Y417778D02*
X488207D01*
X487208Y416779D01*
Y414779D01*
X488207Y413779D01*
X491206D01*
X493206D02*
Y419778D01*
Y415779D02*
X496205Y417778D01*
X493206Y415779D02*
X496205Y413779D01*
X499204Y417778D02*
X500203D01*
Y416779D01*
X499204D01*
Y417778D01*
Y414779D02*
X500203D01*
Y413779D01*
X499204D01*
Y414779D01*
X510200Y418778D02*
X511200Y419778D01*
X513199D01*
X514199Y418778D01*
Y414779D01*
X513199Y413779D01*
X511200D01*
X510200Y414779D01*
Y418778D01*
X516198Y413779D02*
Y414779D01*
X517198D01*
Y413779D01*
X516198D01*
X525195D02*
X521197D01*
X525195Y417778D01*
Y418778D01*
X524196Y419778D01*
X522196D01*
X521197Y418778D01*
X527195Y413779D02*
Y417778D01*
X528194D01*
X529194Y416779D01*
Y413779D01*
Y416779D01*
X530194Y417778D01*
X531193Y416779D01*
Y413779D01*
X533193D02*
Y417778D01*
X534193D01*
X535192Y416779D01*
Y413779D01*
Y416779D01*
X536192Y417778D01*
X537191Y416779D01*
Y413779D01*
X423228Y429620D02*
Y423622D01*
X426227D01*
X427227Y424622D01*
Y425621D01*
X426227Y426621D01*
X423228D01*
X426227D01*
X427227Y427621D01*
Y428620D01*
X426227Y429620D01*
X423228D01*
X430226Y423622D02*
X432225D01*
X433225Y424622D01*
Y426621D01*
X432225Y427621D01*
X430226D01*
X429226Y426621D01*
Y424622D01*
X430226Y423622D01*
X436224Y427621D02*
X438224D01*
X439223Y426621D01*
Y423622D01*
X436224D01*
X435224Y424622D01*
X436224Y425621D01*
X439223D01*
X441222Y427621D02*
Y423622D01*
Y425621D01*
X442222Y426621D01*
X443222Y427621D01*
X444222D01*
X451219Y429620D02*
Y423622D01*
X448220D01*
X447221Y424622D01*
Y426621D01*
X448220Y427621D01*
X451219D01*
X459217Y423622D02*
X461216D01*
X460216D01*
Y427621D01*
X459217D01*
X464215Y423622D02*
Y427621D01*
X467214D01*
X468214Y426621D01*
Y423622D01*
X471213D02*
Y428620D01*
Y426621D01*
X470213D01*
X472213D01*
X471213D01*
Y428620D01*
X472213Y429620D01*
X476211Y423622D02*
X478211D01*
X479210Y424622D01*
Y426621D01*
X478211Y427621D01*
X476211D01*
X475211Y426621D01*
Y424622D01*
X476211Y423622D01*
X0Y369172D02*
X3999Y365173D01*
X0D02*
X3999Y369172D01*
X0Y367172D02*
X3999D01*
X1999Y365173D02*
Y369172D01*
X5998Y364173D02*
Y365173D01*
X6998D01*
Y364173D01*
X5998D01*
X14995Y369172D02*
X13995Y370171D01*
X11996D01*
X10996Y369172D01*
Y365173D01*
X11996Y364173D01*
X13995D01*
X14995Y365173D01*
Y367172D01*
X12996D01*
X16995Y370171D02*
Y364173D01*
Y366173D01*
X20993Y370171D01*
X17994Y367172D01*
X20993Y364173D01*
X25992Y370171D02*
X23992D01*
X22993Y369172D01*
Y365173D01*
X23992Y364173D01*
X25992D01*
X26991Y365173D01*
Y369172D01*
X25992Y370171D01*
X34989Y367172D02*
X38987D01*
X46985Y370171D02*
Y364173D01*
X49984D01*
X50984Y365173D01*
Y366173D01*
X49984Y367172D01*
X46985D01*
X49984D01*
X50984Y368172D01*
Y369172D01*
X49984Y370171D01*
X46985D01*
X53983Y364173D02*
X55982D01*
X56982Y365173D01*
Y367172D01*
X55982Y368172D01*
X53983D01*
X52983Y367172D01*
Y365173D01*
X53983Y364173D01*
X59981Y368172D02*
X61980D01*
X62980Y367172D01*
Y364173D01*
X59981D01*
X58981Y365173D01*
X59981Y366173D01*
X62980D01*
X64979Y368172D02*
Y364173D01*
Y366173D01*
X65979Y367172D01*
X66978Y368172D01*
X67978D01*
X74976Y370171D02*
Y364173D01*
X71977D01*
X70977Y365173D01*
Y367172D01*
X71977Y368172D01*
X74976D01*
X85972Y370171D02*
X83973D01*
X82973Y369172D01*
Y365173D01*
X83973Y364173D01*
X85972D01*
X86972Y365173D01*
Y369172D01*
X85972Y370171D01*
X88971Y368172D02*
Y365173D01*
X89971Y364173D01*
X92970D01*
Y368172D01*
X95969Y369172D02*
Y368172D01*
X94969D01*
X96969D01*
X95969D01*
Y365173D01*
X96969Y364173D01*
X99968D02*
X101967D01*
X100967D01*
Y370171D01*
X99968D01*
X104966Y364173D02*
X106965D01*
X105966D01*
Y368172D01*
X104966D01*
X109964Y364173D02*
Y368172D01*
X112963D01*
X113963Y367172D01*
Y364173D01*
X118962D02*
X116962D01*
X115963Y365173D01*
Y367172D01*
X116962Y368172D01*
X118962D01*
X119961Y367172D01*
Y366173D01*
X115963D01*
X127959Y370171D02*
Y364173D01*
X131957D01*
X134956Y368172D02*
X136956D01*
X137955Y367172D01*
Y364173D01*
X134956D01*
X133957Y365173D01*
X134956Y366173D01*
X137955D01*
X139955Y368172D02*
Y365173D01*
X140954Y364173D01*
X143953D01*
Y363174D01*
X142954Y362174D01*
X141954D01*
X143953Y364173D02*
Y368172D01*
X148952Y364173D02*
X146952D01*
X145953Y365173D01*
Y367172D01*
X146952Y368172D01*
X148952D01*
X149952Y367172D01*
Y366173D01*
X145953D01*
X151951Y368172D02*
Y364173D01*
Y366173D01*
X152951Y367172D01*
X153950Y368172D01*
X154950D01*
X3999Y458754D02*
X0D01*
Y455755D01*
X1999D01*
X0D01*
Y452756D01*
X5998D02*
X7997D01*
X6998D01*
Y456755D01*
X5998D01*
X10996Y452756D02*
X12996D01*
X11996D01*
Y458754D01*
X10996D01*
X18994Y452756D02*
X16995D01*
X15995Y453756D01*
Y455755D01*
X16995Y456755D01*
X18994D01*
X19994Y455755D01*
Y454755D01*
X15995D01*
X21993Y452756D02*
X24992D01*
X25992Y453756D01*
X24992Y454755D01*
X22993D01*
X21993Y455755D01*
X22993Y456755D01*
X25992D01*
X0Y408542D02*
X3999Y404543D01*
X0D02*
X3999Y408542D01*
X0Y406542D02*
X3999D01*
X1999Y404543D02*
Y408542D01*
X5998Y403543D02*
Y404543D01*
X6998D01*
Y403543D01*
X5998D01*
X14995Y408542D02*
X13995Y409541D01*
X11996D01*
X10996Y408542D01*
Y404543D01*
X11996Y403543D01*
X13995D01*
X14995Y404543D01*
Y406542D01*
X12996D01*
X16995Y409541D02*
X20993D01*
X18994D01*
Y403543D01*
X25992Y409541D02*
X23992D01*
X22993Y408542D01*
Y404543D01*
X23992Y403543D01*
X25992D01*
X26991Y404543D01*
Y408542D01*
X25992Y409541D01*
X34989Y406542D02*
X38987D01*
X46985Y409541D02*
X50984D01*
X48984D01*
Y403543D01*
X53983D02*
X55982D01*
X56982Y404543D01*
Y406542D01*
X55982Y407542D01*
X53983D01*
X52983Y406542D01*
Y404543D01*
X53983Y403543D01*
X58981Y401544D02*
Y407542D01*
X61980D01*
X62980Y406542D01*
Y404543D01*
X61980Y403543D01*
X58981D01*
X74976Y408542D02*
X73976Y409541D01*
X71977D01*
X70977Y408542D01*
Y407542D01*
X71977Y406542D01*
X73976D01*
X74976Y405543D01*
Y404543D01*
X73976Y403543D01*
X71977D01*
X70977Y404543D01*
X76975Y403543D02*
X78974D01*
X77975D01*
Y407542D01*
X76975D01*
X81973Y403543D02*
X83973D01*
X82973D01*
Y409541D01*
X81973D01*
X86972Y403543D02*
Y409541D01*
Y405543D02*
X89971Y407542D01*
X86972Y405543D02*
X89971Y403543D01*
X102967Y408542D02*
X101967Y409541D01*
X99968D01*
X98968Y408542D01*
Y407542D01*
X99968Y406542D01*
X101967D01*
X102967Y405543D01*
Y404543D01*
X101967Y403543D01*
X99968D01*
X98968Y404543D01*
X108965Y407542D02*
X105966D01*
X104966Y406542D01*
Y404543D01*
X105966Y403543D01*
X108965D01*
X110964Y407542D02*
Y403543D01*
Y405543D01*
X111964Y406542D01*
X112963Y407542D01*
X113963D01*
X119961Y403543D02*
X117962D01*
X116962Y404543D01*
Y406542D01*
X117962Y407542D01*
X119961D01*
X120961Y406542D01*
Y405543D01*
X116962D01*
X125959Y403543D02*
X123960D01*
X122960Y404543D01*
Y406542D01*
X123960Y407542D01*
X125959D01*
X126959Y406542D01*
Y405543D01*
X122960D01*
X128958Y403543D02*
Y407542D01*
X131957D01*
X132957Y406542D01*
Y403543D01*
X140954Y409541D02*
Y403543D01*
X144953D01*
X147952Y407542D02*
X149952D01*
X150951Y406542D01*
Y403543D01*
X147952D01*
X146952Y404543D01*
X147952Y405543D01*
X150951D01*
X152951Y407542D02*
Y404543D01*
X153950Y403543D01*
X156949D01*
Y402544D01*
X155949Y401544D01*
X154950D01*
X156949Y403543D02*
Y407542D01*
X161948Y403543D02*
X159948D01*
X158949Y404543D01*
Y406542D01*
X159948Y407542D01*
X161948D01*
X162947Y406542D01*
Y405543D01*
X158949D01*
X164947Y407542D02*
Y403543D01*
Y405543D01*
X165946Y406542D01*
X166946Y407542D01*
X167946D01*
X0Y388857D02*
X3999Y384858D01*
X0D02*
X3999Y388857D01*
X0Y386857D02*
X3999D01*
X1999Y384858D02*
Y388857D01*
X5998Y383858D02*
Y384858D01*
X6998D01*
Y383858D01*
X5998D01*
X14995Y388857D02*
X13995Y389856D01*
X11996D01*
X10996Y388857D01*
Y384858D01*
X11996Y383858D01*
X13995D01*
X14995Y384858D01*
Y386857D01*
X12996D01*
X16995Y389856D02*
X20993D01*
X18994D01*
Y383858D01*
X22993D02*
Y389856D01*
X25992D01*
X26991Y388857D01*
Y386857D01*
X25992Y385858D01*
X22993D01*
X34989Y386857D02*
X38987D01*
X46985Y389856D02*
X50984D01*
X48984D01*
Y383858D01*
X53983D02*
X55982D01*
X56982Y384858D01*
Y386857D01*
X55982Y387857D01*
X53983D01*
X52983Y386857D01*
Y384858D01*
X53983Y383858D01*
X58981Y381859D02*
Y387857D01*
X61980D01*
X62980Y386857D01*
Y384858D01*
X61980Y383858D01*
X58981D01*
X70977D02*
Y389856D01*
X73976D01*
X74976Y388857D01*
Y386857D01*
X73976Y385858D01*
X70977D01*
X77975Y387857D02*
X79974D01*
X80974Y386857D01*
Y383858D01*
X77975D01*
X76975Y384858D01*
X77975Y385858D01*
X80974D01*
X82973Y383858D02*
X85972D01*
X86972Y384858D01*
X85972Y385858D01*
X83973D01*
X82973Y386857D01*
X83973Y387857D01*
X86972D01*
X89971Y388857D02*
Y387857D01*
X88971D01*
X90971D01*
X89971D01*
Y384858D01*
X90971Y383858D01*
X96969D02*
X94969D01*
X93970Y384858D01*
Y386857D01*
X94969Y387857D01*
X96969D01*
X97968Y386857D01*
Y385858D01*
X93970D01*
X105966Y389856D02*
Y383858D01*
X109964D01*
X112963Y387857D02*
X114963D01*
X115963Y386857D01*
Y383858D01*
X112963D01*
X111964Y384858D01*
X112963Y385858D01*
X115963D01*
X117962Y387857D02*
Y384858D01*
X118962Y383858D01*
X121960D01*
Y382859D01*
X120961Y381859D01*
X119961D01*
X121960Y383858D02*
Y387857D01*
X126959Y383858D02*
X124960D01*
X123960Y384858D01*
Y386857D01*
X124960Y387857D01*
X126959D01*
X127959Y386857D01*
Y385858D01*
X123960D01*
X129958Y387857D02*
Y383858D01*
Y385858D01*
X130958Y386857D01*
X131957Y387857D01*
X132957D01*
X143953Y383858D02*
X141954Y385858D01*
Y387857D01*
X143953Y389856D01*
X146952D02*
X150951D01*
X148952D01*
Y383858D01*
X153950D02*
X155949D01*
X156949Y384858D01*
Y386857D01*
X155949Y387857D01*
X153950D01*
X152951Y386857D01*
Y384858D01*
X153950Y383858D01*
X158949Y381859D02*
Y387857D01*
X161948D01*
X162947Y386857D01*
Y384858D01*
X161948Y383858D01*
X158949D01*
X174943Y388857D02*
X173944Y389856D01*
X171944D01*
X170945Y388857D01*
Y387857D01*
X171944Y386857D01*
X173944D01*
X174943Y385858D01*
Y384858D01*
X173944Y383858D01*
X171944D01*
X170945Y384858D01*
X177942Y388857D02*
Y387857D01*
X176943D01*
X178942D01*
X177942D01*
Y384858D01*
X178942Y383858D01*
X184940D02*
X182941D01*
X181941Y384858D01*
Y386857D01*
X182941Y387857D01*
X184940D01*
X185940Y386857D01*
Y385858D01*
X181941D01*
X187939Y383858D02*
Y387857D01*
X190938D01*
X191938Y386857D01*
Y383858D01*
X197936Y387857D02*
X194937D01*
X193937Y386857D01*
Y384858D01*
X194937Y383858D01*
X197936D01*
X199935D02*
X201935D01*
X200935D01*
Y387857D01*
X199935D01*
X204934Y383858D02*
X206933D01*
X205933D01*
Y389856D01*
X204934D01*
X219929D02*
X215930D01*
Y386857D01*
X217930D01*
X215930D01*
Y383858D01*
X221928D02*
X223928D01*
X222928D01*
Y387857D01*
X221928D01*
X226927Y383858D02*
X228926D01*
X227926D01*
Y389856D01*
X226927D01*
X234924Y383858D02*
X232925D01*
X231925Y384858D01*
Y386857D01*
X232925Y387857D01*
X234924D01*
X235924Y386857D01*
Y385858D01*
X231925D01*
X237923Y383858D02*
X239922Y385858D01*
Y387857D01*
X237923Y389856D01*
X0Y428227D02*
X3999Y424228D01*
X0D02*
X3999Y428227D01*
X0Y426227D02*
X3999D01*
X1999Y424228D02*
Y428227D01*
X5998Y423228D02*
Y424228D01*
X6998D01*
Y423228D01*
X5998D01*
X14995Y428227D02*
X13995Y429226D01*
X11996D01*
X10996Y428227D01*
Y424228D01*
X11996Y423228D01*
X13995D01*
X14995Y424228D01*
Y426227D01*
X12996D01*
X16995Y429226D02*
X20993D01*
X18994D01*
Y423228D01*
X26991Y428227D02*
X25992Y429226D01*
X23992D01*
X22993Y428227D01*
Y427227D01*
X23992Y426227D01*
X25992D01*
X26991Y425228D01*
Y424228D01*
X25992Y423228D01*
X23992D01*
X22993Y424228D01*
X34989Y426227D02*
X38987D01*
X46985Y429226D02*
X50984D01*
X48984D01*
Y423228D01*
X53983D02*
X55982D01*
X56982Y424228D01*
Y426227D01*
X55982Y427227D01*
X53983D01*
X52983Y426227D01*
Y424228D01*
X53983Y423228D01*
X58981Y421229D02*
Y427227D01*
X61980D01*
X62980Y426227D01*
Y424228D01*
X61980Y423228D01*
X58981D01*
X74976Y428227D02*
X73976Y429226D01*
X71977D01*
X70977Y428227D01*
Y427227D01*
X71977Y426227D01*
X73976D01*
X74976Y425228D01*
Y424228D01*
X73976Y423228D01*
X71977D01*
X70977Y424228D01*
X77975Y423228D02*
X79974D01*
X80974Y424228D01*
Y426227D01*
X79974Y427227D01*
X77975D01*
X76975Y426227D01*
Y424228D01*
X77975Y423228D01*
X82973D02*
X84973D01*
X83973D01*
Y429226D01*
X82973D01*
X91970D02*
Y423228D01*
X88971D01*
X87972Y424228D01*
Y426227D01*
X88971Y427227D01*
X91970D01*
X96969Y423228D02*
X94969D01*
X93970Y424228D01*
Y426227D01*
X94969Y427227D01*
X96969D01*
X97968Y426227D01*
Y425228D01*
X93970D01*
X99968Y427227D02*
Y423228D01*
Y425228D01*
X100967Y426227D01*
X101967Y427227D01*
X102967D01*
X111964Y423228D02*
Y429226D01*
X113963Y427227D01*
X115963Y429226D01*
Y423228D01*
X118962Y427227D02*
X120961D01*
X121960Y426227D01*
Y423228D01*
X118962D01*
X117962Y424228D01*
X118962Y425228D01*
X121960D01*
X123960Y423228D02*
X126959D01*
X127959Y424228D01*
X126959Y425228D01*
X124960D01*
X123960Y426227D01*
X124960Y427227D01*
X127959D01*
X129958Y423228D02*
Y429226D01*
Y425228D02*
X132957Y427227D01*
X129958Y425228D02*
X132957Y423228D01*
X141954Y429226D02*
Y423228D01*
X145953D01*
X148952Y427227D02*
X150951D01*
X151951Y426227D01*
Y423228D01*
X148952D01*
X147952Y424228D01*
X148952Y425228D01*
X151951D01*
X153950Y427227D02*
Y424228D01*
X154950Y423228D01*
X157949D01*
Y422229D01*
X156949Y421229D01*
X155949D01*
X157949Y423228D02*
Y427227D01*
X162947Y423228D02*
X160948D01*
X159948Y424228D01*
Y426227D01*
X160948Y427227D01*
X162947D01*
X163947Y426227D01*
Y425228D01*
X159948D01*
X165946Y427227D02*
Y423228D01*
Y425228D01*
X166946Y426227D01*
X167946Y427227D01*
X168945D01*
X0Y447912D02*
X3999Y443913D01*
X0D02*
X3999Y447912D01*
X0Y445912D02*
X3999D01*
X1999Y443913D02*
Y447912D01*
X5998Y442913D02*
Y443913D01*
X6998D01*
Y442913D01*
X5998D01*
X14995Y447912D02*
X13995Y448911D01*
X11996D01*
X10996Y447912D01*
Y443913D01*
X11996Y442913D01*
X13995D01*
X14995Y443913D01*
Y445912D01*
X12996D01*
X16995Y448911D02*
X20993D01*
X18994D01*
Y442913D01*
X22993Y448911D02*
Y442913D01*
X26991D01*
X34989Y445912D02*
X38987D01*
X46985Y448911D02*
Y442913D01*
X50984D01*
X52983D02*
X54982D01*
X53983D01*
Y448911D01*
X52983Y447912D01*
X65979Y442913D02*
X63979Y444913D01*
Y446912D01*
X65979Y448911D01*
X68978D02*
X72976D01*
X70977D01*
Y442913D01*
X75975D02*
X77975D01*
X78974Y443913D01*
Y445912D01*
X77975Y446912D01*
X75975D01*
X74976Y445912D01*
Y443913D01*
X75975Y442913D01*
X80974Y440914D02*
Y446912D01*
X83973D01*
X84973Y445912D01*
Y443913D01*
X83973Y442913D01*
X80974D01*
X96969Y447912D02*
X95969Y448911D01*
X93970D01*
X92970Y447912D01*
Y443913D01*
X93970Y442913D01*
X95969D01*
X96969Y443913D01*
X99968Y442913D02*
X101967D01*
X102967Y443913D01*
Y445912D01*
X101967Y446912D01*
X99968D01*
X98968Y445912D01*
Y443913D01*
X99968Y442913D01*
X104966Y440914D02*
Y446912D01*
X107965D01*
X108965Y445912D01*
Y443913D01*
X107965Y442913D01*
X104966D01*
X110964Y440914D02*
Y446912D01*
X113963D01*
X114963Y445912D01*
Y443913D01*
X113963Y442913D01*
X110964D01*
X119961D02*
X117962D01*
X116962Y443913D01*
Y445912D01*
X117962Y446912D01*
X119961D01*
X120961Y445912D01*
Y444913D01*
X116962D01*
X122960Y446912D02*
Y442913D01*
Y444913D01*
X123960Y445912D01*
X124960Y446912D01*
X125959D01*
X134956Y448911D02*
Y442913D01*
X138955D01*
X141954Y446912D02*
X143953D01*
X144953Y445912D01*
Y442913D01*
X141954D01*
X140954Y443913D01*
X141954Y444913D01*
X144953D01*
X146952Y446912D02*
Y443913D01*
X147952Y442913D01*
X150951D01*
Y441914D01*
X149952Y440914D01*
X148952D01*
X150951Y442913D02*
Y446912D01*
X155949Y442913D02*
X153950D01*
X152951Y443913D01*
Y445912D01*
X153950Y446912D01*
X155949D01*
X156949Y445912D01*
Y444913D01*
X152951D01*
X158949Y446912D02*
Y442913D01*
Y444913D01*
X159948Y445912D01*
X160948Y446912D01*
X161948D01*
X164947Y442913D02*
X166946Y444913D01*
Y446912D01*
X164947Y448911D01*
X0Y438069D02*
X3999Y434071D01*
X0D02*
X3999Y438069D01*
X0Y436070D02*
X3999D01*
X1999Y434071D02*
Y438069D01*
X5998Y433071D02*
Y434071D01*
X6998D01*
Y433071D01*
X5998D01*
X14995Y438069D02*
X13995Y439069D01*
X11996D01*
X10996Y438069D01*
Y434071D01*
X11996Y433071D01*
X13995D01*
X14995Y434071D01*
Y436070D01*
X12996D01*
X16995Y439069D02*
Y433071D01*
X19994D01*
X20993Y434071D01*
Y435070D01*
X19994Y436070D01*
X16995D01*
X19994D01*
X20993Y437070D01*
Y438069D01*
X19994Y439069D01*
X16995D01*
X22993D02*
Y433071D01*
X26991D01*
X34989Y436070D02*
X38987D01*
X46985Y439069D02*
Y433071D01*
X50984D01*
X56982D02*
X52983D01*
X56982Y437070D01*
Y438069D01*
X55982Y439069D01*
X53983D01*
X52983Y438069D01*
X66978Y433071D02*
X64979Y435070D01*
Y437070D01*
X66978Y439069D01*
X69977D02*
Y433071D01*
X72976D01*
X73976Y434071D01*
Y435070D01*
X72976Y436070D01*
X69977D01*
X72976D01*
X73976Y437070D01*
Y438069D01*
X72976Y439069D01*
X69977D01*
X76975Y433071D02*
X78974D01*
X79974Y434071D01*
Y436070D01*
X78974Y437070D01*
X76975D01*
X75975Y436070D01*
Y434071D01*
X76975Y433071D01*
X82973Y438069D02*
Y437070D01*
X81973D01*
X83973D01*
X82973D01*
Y434071D01*
X83973Y433071D01*
X87972Y438069D02*
Y437070D01*
X86972D01*
X88971D01*
X87972D01*
Y434071D01*
X88971Y433071D01*
X92970D02*
X94969D01*
X95969Y434071D01*
Y436070D01*
X94969Y437070D01*
X92970D01*
X91970Y436070D01*
Y434071D01*
X92970Y433071D01*
X97968D02*
Y437070D01*
X98968D01*
X99968Y436070D01*
Y433071D01*
Y436070D01*
X100967Y437070D01*
X101967Y436070D01*
Y433071D01*
X113963Y438069D02*
X112963Y439069D01*
X110964D01*
X109964Y438069D01*
Y434071D01*
X110964Y433071D01*
X112963D01*
X113963Y434071D01*
X116962Y433071D02*
X118962D01*
X119961Y434071D01*
Y436070D01*
X118962Y437070D01*
X116962D01*
X115963Y436070D01*
Y434071D01*
X116962Y433071D01*
X121960Y431072D02*
Y437070D01*
X124960D01*
X125959Y436070D01*
Y434071D01*
X124960Y433071D01*
X121960D01*
X127959Y431072D02*
Y437070D01*
X130958D01*
X131957Y436070D01*
Y434071D01*
X130958Y433071D01*
X127959D01*
X136956D02*
X134956D01*
X133957Y434071D01*
Y436070D01*
X134956Y437070D01*
X136956D01*
X137955Y436070D01*
Y435070D01*
X133957D01*
X139955Y437070D02*
Y433071D01*
Y435070D01*
X140954Y436070D01*
X141954Y437070D01*
X142954D01*
X151951Y439069D02*
Y433071D01*
X155949D01*
X158949Y437070D02*
X160948D01*
X161948Y436070D01*
Y433071D01*
X158949D01*
X157949Y434071D01*
X158949Y435070D01*
X161948D01*
X163947Y437070D02*
Y434071D01*
X164947Y433071D01*
X167946D01*
Y432071D01*
X166946Y431072D01*
X165946D01*
X167946Y433071D02*
Y437070D01*
X172944Y433071D02*
X170945D01*
X169945Y434071D01*
Y436070D01*
X170945Y437070D01*
X172944D01*
X173944Y436070D01*
Y435070D01*
X169945D01*
X175943Y437070D02*
Y433071D01*
Y435070D01*
X176943Y436070D01*
X177942Y437070D01*
X178942D01*
X181941Y433071D02*
X183940Y435070D01*
Y437070D01*
X181941Y439069D01*
X0Y418384D02*
X3999Y414386D01*
X0D02*
X3999Y418384D01*
X0Y416385D02*
X3999D01*
X1999Y414386D02*
Y418384D01*
X5998Y413386D02*
Y414386D01*
X6998D01*
Y413386D01*
X5998D01*
X14995Y418384D02*
X13995Y419384D01*
X11996D01*
X10996Y418384D01*
Y414386D01*
X11996Y413386D01*
X13995D01*
X14995Y414386D01*
Y416385D01*
X12996D01*
X16995Y419384D02*
Y413386D01*
X19994D01*
X20993Y414386D01*
Y415385D01*
X19994Y416385D01*
X16995D01*
X19994D01*
X20993Y417384D01*
Y418384D01*
X19994Y419384D01*
X16995D01*
X26991Y418384D02*
X25992Y419384D01*
X23992D01*
X22993Y418384D01*
Y417384D01*
X23992Y416385D01*
X25992D01*
X26991Y415385D01*
Y414386D01*
X25992Y413386D01*
X23992D01*
X22993Y414386D01*
X34989Y416385D02*
X38987D01*
X46985Y419384D02*
Y413386D01*
X49984D01*
X50984Y414386D01*
Y415385D01*
X49984Y416385D01*
X46985D01*
X49984D01*
X50984Y417384D01*
Y418384D01*
X49984Y419384D01*
X46985D01*
X53983Y413386D02*
X55982D01*
X56982Y414386D01*
Y416385D01*
X55982Y417384D01*
X53983D01*
X52983Y416385D01*
Y414386D01*
X53983Y413386D01*
X59981Y418384D02*
Y417384D01*
X58981D01*
X60980D01*
X59981D01*
Y414386D01*
X60980Y413386D01*
X64979Y418384D02*
Y417384D01*
X63979D01*
X65979D01*
X64979D01*
Y414386D01*
X65979Y413386D01*
X69977D02*
X71977D01*
X72976Y414386D01*
Y416385D01*
X71977Y417384D01*
X69977D01*
X68978Y416385D01*
Y414386D01*
X69977Y413386D01*
X74976D02*
Y417384D01*
X75975D01*
X76975Y416385D01*
Y413386D01*
Y416385D01*
X77975Y417384D01*
X78974Y416385D01*
Y413386D01*
X90971Y418384D02*
X89971Y419384D01*
X87972D01*
X86972Y418384D01*
Y417384D01*
X87972Y416385D01*
X89971D01*
X90971Y415385D01*
Y414386D01*
X89971Y413386D01*
X87972D01*
X86972Y414386D01*
X93970Y413386D02*
X95969D01*
X96969Y414386D01*
Y416385D01*
X95969Y417384D01*
X93970D01*
X92970Y416385D01*
Y414386D01*
X93970Y413386D01*
X98968D02*
X100967D01*
X99968D01*
Y419384D01*
X98968D01*
X107965D02*
Y413386D01*
X104966D01*
X103966Y414386D01*
Y416385D01*
X104966Y417384D01*
X107965D01*
X112963Y413386D02*
X110964D01*
X109964Y414386D01*
Y416385D01*
X110964Y417384D01*
X112963D01*
X113963Y416385D01*
Y415385D01*
X109964D01*
X115963Y417384D02*
Y413386D01*
Y415385D01*
X116962Y416385D01*
X117962Y417384D01*
X118962D01*
X127959Y413386D02*
Y419384D01*
X129958Y417384D01*
X131957Y419384D01*
Y413386D01*
X134956Y417384D02*
X136956D01*
X137955Y416385D01*
Y413386D01*
X134956D01*
X133957Y414386D01*
X134956Y415385D01*
X137955D01*
X139955Y413386D02*
X142954D01*
X143953Y414386D01*
X142954Y415385D01*
X140954D01*
X139955Y416385D01*
X140954Y417384D01*
X143953D01*
X145953Y413386D02*
Y419384D01*
Y415385D02*
X148952Y417384D01*
X145953Y415385D02*
X148952Y413386D01*
X157949Y419384D02*
Y413386D01*
X161948D01*
X164947Y417384D02*
X166946D01*
X167946Y416385D01*
Y413386D01*
X164947D01*
X163947Y414386D01*
X164947Y415385D01*
X167946D01*
X169945Y417384D02*
Y414386D01*
X170945Y413386D01*
X173944D01*
Y412386D01*
X172944Y411386D01*
X171944D01*
X173944Y413386D02*
Y417384D01*
X178942Y413386D02*
X176943D01*
X175943Y414386D01*
Y416385D01*
X176943Y417384D01*
X178942D01*
X179942Y416385D01*
Y415385D01*
X175943D01*
X181941Y417384D02*
Y413386D01*
Y415385D01*
X182941Y416385D01*
X183940Y417384D01*
X184940D01*
X0Y398699D02*
X3999Y394701D01*
X0D02*
X3999Y398699D01*
X0Y396700D02*
X3999D01*
X1999Y394701D02*
Y398699D01*
X5998Y393701D02*
Y394701D01*
X6998D01*
Y393701D01*
X5998D01*
X14995Y398699D02*
X13995Y399699D01*
X11996D01*
X10996Y398699D01*
Y394701D01*
X11996Y393701D01*
X13995D01*
X14995Y394701D01*
Y396700D01*
X12996D01*
X16995Y399699D02*
Y393701D01*
X19994D01*
X20993Y394701D01*
Y395700D01*
X19994Y396700D01*
X16995D01*
X19994D01*
X20993Y397699D01*
Y398699D01*
X19994Y399699D01*
X16995D01*
X25992D02*
X23992D01*
X22993Y398699D01*
Y394701D01*
X23992Y393701D01*
X25992D01*
X26991Y394701D01*
Y398699D01*
X25992Y399699D01*
X34989Y396700D02*
X38987D01*
X46985Y399699D02*
Y393701D01*
X49984D01*
X50984Y394701D01*
Y395700D01*
X49984Y396700D01*
X46985D01*
X49984D01*
X50984Y397699D01*
Y398699D01*
X49984Y399699D01*
X46985D01*
X53983Y393701D02*
X55982D01*
X56982Y394701D01*
Y396700D01*
X55982Y397699D01*
X53983D01*
X52983Y396700D01*
Y394701D01*
X53983Y393701D01*
X59981Y398699D02*
Y397699D01*
X58981D01*
X60980D01*
X59981D01*
Y394701D01*
X60980Y393701D01*
X64979Y398699D02*
Y397699D01*
X63979D01*
X65979D01*
X64979D01*
Y394701D01*
X65979Y393701D01*
X69977D02*
X71977D01*
X72976Y394701D01*
Y396700D01*
X71977Y397699D01*
X69977D01*
X68978Y396700D01*
Y394701D01*
X69977Y393701D01*
X74976D02*
Y397699D01*
X75975D01*
X76975Y396700D01*
Y393701D01*
Y396700D01*
X77975Y397699D01*
X78974Y396700D01*
Y393701D01*
X90971Y398699D02*
X89971Y399699D01*
X87972D01*
X86972Y398699D01*
Y397699D01*
X87972Y396700D01*
X89971D01*
X90971Y395700D01*
Y394701D01*
X89971Y393701D01*
X87972D01*
X86972Y394701D01*
X92970Y393701D02*
X94969D01*
X93970D01*
Y397699D01*
X92970D01*
X97968Y393701D02*
X99968D01*
X98968D01*
Y399699D01*
X97968D01*
X102967Y393701D02*
Y399699D01*
Y395700D02*
X105966Y397699D01*
X102967Y395700D02*
X105966Y393701D01*
X118962Y398699D02*
X117962Y399699D01*
X115963D01*
X114963Y398699D01*
Y397699D01*
X115963Y396700D01*
X117962D01*
X118962Y395700D01*
Y394701D01*
X117962Y393701D01*
X115963D01*
X114963Y394701D01*
X124960Y397699D02*
X121960D01*
X120961Y396700D01*
Y394701D01*
X121960Y393701D01*
X124960D01*
X126959Y397699D02*
Y393701D01*
Y395700D01*
X127959Y396700D01*
X128958Y397699D01*
X129958D01*
X135956Y393701D02*
X133957D01*
X132957Y394701D01*
Y396700D01*
X133957Y397699D01*
X135956D01*
X136956Y396700D01*
Y395700D01*
X132957D01*
X141954Y393701D02*
X139955D01*
X138955Y394701D01*
Y396700D01*
X139955Y397699D01*
X141954D01*
X142954Y396700D01*
Y395700D01*
X138955D01*
X144953Y393701D02*
Y397699D01*
X147952D01*
X148952Y396700D01*
Y393701D01*
X156949Y399699D02*
Y393701D01*
X160948D01*
X163947Y397699D02*
X165946D01*
X166946Y396700D01*
Y393701D01*
X163947D01*
X162947Y394701D01*
X163947Y395700D01*
X166946D01*
X168945Y397699D02*
Y394701D01*
X169945Y393701D01*
X172944D01*
Y392701D01*
X171944Y391701D01*
X170945D01*
X172944Y393701D02*
Y397699D01*
X177942Y393701D02*
X175943D01*
X174943Y394701D01*
Y396700D01*
X175943Y397699D01*
X177942D01*
X178942Y396700D01*
Y395700D01*
X174943D01*
X180941Y397699D02*
Y393701D01*
Y395700D01*
X181941Y396700D01*
X182941Y397699D01*
X183940D01*
X0Y349487D02*
X3999Y345488D01*
X0D02*
X3999Y349487D01*
X0Y347487D02*
X3999D01*
X1999Y345488D02*
Y349487D01*
X5998Y344488D02*
Y345488D01*
X6998D01*
Y344488D01*
X5998D01*
X14995Y349487D02*
X13995Y350486D01*
X11996D01*
X10996Y349487D01*
Y345488D01*
X11996Y344488D01*
X13995D01*
X14995Y345488D01*
Y347487D01*
X12996D01*
X16995Y344488D02*
Y350486D01*
X18994Y348487D01*
X20993Y350486D01*
Y344488D01*
X26991D02*
X22993D01*
X26991Y348487D01*
Y349487D01*
X25992Y350486D01*
X23992D01*
X22993Y349487D01*
X34989Y347487D02*
X38987D01*
X46985Y344488D02*
Y350486D01*
X48984Y348487D01*
X50984Y350486D01*
Y344488D01*
X55982D02*
X53983D01*
X52983Y345488D01*
Y347487D01*
X53983Y348487D01*
X55982D01*
X56982Y347487D01*
Y346487D01*
X52983D01*
X62980Y348487D02*
X59981D01*
X58981Y347487D01*
Y345488D01*
X59981Y344488D01*
X62980D01*
X64979Y350486D02*
Y344488D01*
Y347487D01*
X65979Y348487D01*
X67978D01*
X68978Y347487D01*
Y344488D01*
X71977Y348487D02*
X73976D01*
X74976Y347487D01*
Y344488D01*
X71977D01*
X70977Y345488D01*
X71977Y346487D01*
X74976D01*
X76975Y344488D02*
Y348487D01*
X79974D01*
X80974Y347487D01*
Y344488D01*
X82973D02*
X84973D01*
X83973D01*
Y348487D01*
X82973D01*
X91970D02*
X88971D01*
X87972Y347487D01*
Y345488D01*
X88971Y344488D01*
X91970D01*
X94969Y348487D02*
X96969D01*
X97968Y347487D01*
Y344488D01*
X94969D01*
X93970Y345488D01*
X94969Y346487D01*
X97968D01*
X99968Y344488D02*
X101967D01*
X100967D01*
Y350486D01*
X99968D01*
X110964D02*
Y344488D01*
X113963D01*
X114963Y345488D01*
Y349487D01*
X113963Y350486D01*
X110964D01*
X116962Y348487D02*
Y344488D01*
Y346487D01*
X117962Y347487D01*
X118962Y348487D01*
X119961D01*
X123960D02*
X125959D01*
X126959Y347487D01*
Y344488D01*
X123960D01*
X122960Y345488D01*
X123960Y346487D01*
X126959D01*
X128958Y348487D02*
Y345488D01*
X129958Y344488D01*
X130958Y345488D01*
X131957Y344488D01*
X132957Y345488D01*
Y348487D01*
X134956Y344488D02*
X136956D01*
X135956D01*
Y348487D01*
X134956D01*
X139955Y344488D02*
Y348487D01*
X142954D01*
X143953Y347487D01*
Y344488D01*
X147952Y342489D02*
X148952D01*
X149952Y343489D01*
Y348487D01*
X146952D01*
X145953Y347487D01*
Y345488D01*
X146952Y344488D01*
X149952D01*
X151951D02*
X154950D01*
X155949Y345488D01*
X154950Y346487D01*
X152951D01*
X151951Y347487D01*
X152951Y348487D01*
X155949D01*
X0Y340038D02*
X3999Y336039D01*
X0D02*
X3999Y340038D01*
X0Y338038D02*
X3999D01*
X1999Y336039D02*
Y340038D01*
X5998Y335039D02*
Y336039D01*
X6998D01*
Y335039D01*
X5998D01*
X14995Y340038D02*
X13995Y341037D01*
X11996D01*
X10996Y340038D01*
Y336039D01*
X11996Y335039D01*
X13995D01*
X14995Y336039D01*
Y338038D01*
X12996D01*
X16995Y335039D02*
Y341037D01*
X18994Y339038D01*
X20993Y341037D01*
Y335039D01*
X22993Y340038D02*
X23992Y341037D01*
X25992D01*
X26991Y340038D01*
Y339038D01*
X25992Y338038D01*
X24992D01*
X25992D01*
X26991Y337039D01*
Y336039D01*
X25992Y335039D01*
X23992D01*
X22993Y336039D01*
X34989Y338038D02*
X38987D01*
X46985Y335039D02*
Y341037D01*
X48984Y339038D01*
X50984Y341037D01*
Y335039D01*
X53983Y339038D02*
X55982D01*
X56982Y338038D01*
Y335039D01*
X53983D01*
X52983Y336039D01*
X53983Y337039D01*
X56982D01*
X58981Y335039D02*
Y339038D01*
X61980D01*
X62980Y338038D01*
Y335039D01*
X64979Y339038D02*
Y336039D01*
X65979Y335039D01*
X68978D01*
Y339038D01*
X71977Y335039D02*
Y340038D01*
Y338038D01*
X70977D01*
X72976D01*
X71977D01*
Y340038D01*
X72976Y341037D01*
X76975Y339038D02*
X78974D01*
X79974Y338038D01*
Y335039D01*
X76975D01*
X75975Y336039D01*
X76975Y337039D01*
X79974D01*
X85972Y339038D02*
X82973D01*
X81973Y338038D01*
Y336039D01*
X82973Y335039D01*
X85972D01*
X88971Y340038D02*
Y339038D01*
X87972D01*
X89971D01*
X88971D01*
Y336039D01*
X89971Y335039D01*
X92970Y339038D02*
Y336039D01*
X93970Y335039D01*
X96969D01*
Y339038D01*
X98968D02*
Y335039D01*
Y337039D01*
X99968Y338038D01*
X100967Y339038D01*
X101967D01*
X104966Y335039D02*
X106965D01*
X105966D01*
Y339038D01*
X104966D01*
X109964Y335039D02*
Y339038D01*
X112963D01*
X113963Y338038D01*
Y335039D01*
X117962Y333040D02*
X118962D01*
X119961Y334040D01*
Y339038D01*
X116962D01*
X115963Y338038D01*
Y336039D01*
X116962Y335039D01*
X119961D01*
X127959D02*
Y341037D01*
X131957Y335039D01*
Y341037D01*
X134956Y335039D02*
X136956D01*
X137955Y336039D01*
Y338038D01*
X136956Y339038D01*
X134956D01*
X133957Y338038D01*
Y336039D01*
X134956Y335039D01*
X140954Y340038D02*
Y339038D01*
X139955D01*
X141954D01*
X140954D01*
Y336039D01*
X141954Y335039D01*
X147952D02*
X145953D01*
X144953Y336039D01*
Y338038D01*
X145953Y339038D01*
X147952D01*
X148952Y338038D01*
Y337039D01*
X144953D01*
X150951Y335039D02*
X153950D01*
X154950Y336039D01*
X153950Y337039D01*
X151951D01*
X150951Y338038D01*
X151951Y339038D01*
X154950D01*
X0Y379014D02*
X3999Y375015D01*
X0D02*
X3999Y379014D01*
X0Y377015D02*
X3999D01*
X1999Y375015D02*
Y379014D01*
X5998Y374016D02*
Y375015D01*
X6998D01*
Y374016D01*
X5998D01*
X14995Y379014D02*
X13995Y380014D01*
X11996D01*
X10996Y379014D01*
Y375015D01*
X11996Y374016D01*
X13995D01*
X14995Y375015D01*
Y377015D01*
X12996D01*
X16995Y380014D02*
Y374016D01*
X19994D01*
X20993Y375015D01*
Y376015D01*
X19994Y377015D01*
X16995D01*
X19994D01*
X20993Y378014D01*
Y379014D01*
X19994Y380014D01*
X16995D01*
X22993Y374016D02*
Y380014D01*
X25992D01*
X26991Y379014D01*
Y377015D01*
X25992Y376015D01*
X22993D01*
X34989Y377015D02*
X38987D01*
X46985Y380014D02*
Y374016D01*
X49984D01*
X50984Y375015D01*
Y376015D01*
X49984Y377015D01*
X46985D01*
X49984D01*
X50984Y378014D01*
Y379014D01*
X49984Y380014D01*
X46985D01*
X53983Y374016D02*
X55982D01*
X56982Y375015D01*
Y377015D01*
X55982Y378014D01*
X53983D01*
X52983Y377015D01*
Y375015D01*
X53983Y374016D01*
X59981Y379014D02*
Y378014D01*
X58981D01*
X60980D01*
X59981D01*
Y375015D01*
X60980Y374016D01*
X64979Y379014D02*
Y378014D01*
X63979D01*
X65979D01*
X64979D01*
Y375015D01*
X65979Y374016D01*
X69977D02*
X71977D01*
X72976Y375015D01*
Y377015D01*
X71977Y378014D01*
X69977D01*
X68978Y377015D01*
Y375015D01*
X69977Y374016D01*
X74976D02*
Y378014D01*
X75975D01*
X76975Y377015D01*
Y374016D01*
Y377015D01*
X77975Y378014D01*
X78974Y377015D01*
Y374016D01*
X86972D02*
Y380014D01*
X89971D01*
X90971Y379014D01*
Y377015D01*
X89971Y376015D01*
X86972D01*
X93970Y378014D02*
X95969D01*
X96969Y377015D01*
Y374016D01*
X93970D01*
X92970Y375015D01*
X93970Y376015D01*
X96969D01*
X98968Y374016D02*
X101967D01*
X102967Y375015D01*
X101967Y376015D01*
X99968D01*
X98968Y377015D01*
X99968Y378014D01*
X102967D01*
X105966Y379014D02*
Y378014D01*
X104966D01*
X106965D01*
X105966D01*
Y375015D01*
X106965Y374016D01*
X112963D02*
X110964D01*
X109964Y375015D01*
Y377015D01*
X110964Y378014D01*
X112963D01*
X113963Y377015D01*
Y376015D01*
X109964D01*
X121960Y380014D02*
Y374016D01*
X125959D01*
X128958Y378014D02*
X130958D01*
X131957Y377015D01*
Y374016D01*
X128958D01*
X127959Y375015D01*
X128958Y376015D01*
X131957D01*
X133957Y378014D02*
Y375015D01*
X134956Y374016D01*
X137955D01*
Y373016D01*
X136956Y372016D01*
X135956D01*
X137955Y374016D02*
Y378014D01*
X142954Y374016D02*
X140954D01*
X139955Y375015D01*
Y377015D01*
X140954Y378014D01*
X142954D01*
X143953Y377015D01*
Y376015D01*
X139955D01*
X145953Y378014D02*
Y374016D01*
Y376015D01*
X146952Y377015D01*
X147952Y378014D01*
X148952D01*
X159948Y374016D02*
X157949Y376015D01*
Y378014D01*
X159948Y380014D01*
X162947D02*
Y374016D01*
X165946D01*
X166946Y375015D01*
Y376015D01*
X165946Y377015D01*
X162947D01*
X165946D01*
X166946Y378014D01*
Y379014D01*
X165946Y380014D01*
X162947D01*
X169945Y374016D02*
X171944D01*
X172944Y375015D01*
Y377015D01*
X171944Y378014D01*
X169945D01*
X168945Y377015D01*
Y375015D01*
X169945Y374016D01*
X175943Y379014D02*
Y378014D01*
X174943D01*
X176943D01*
X175943D01*
Y375015D01*
X176943Y374016D01*
X180941Y379014D02*
Y378014D01*
X179942D01*
X181941D01*
X180941D01*
Y375015D01*
X181941Y374016D01*
X185940D02*
X187939D01*
X188939Y375015D01*
Y377015D01*
X187939Y378014D01*
X185940D01*
X184940Y377015D01*
Y375015D01*
X185940Y374016D01*
X190938D02*
Y378014D01*
X191938D01*
X192938Y377015D01*
Y374016D01*
Y377015D01*
X193937Y378014D01*
X194937Y377015D01*
Y374016D01*
X206933Y379014D02*
X205933Y380014D01*
X203934D01*
X202934Y379014D01*
Y378014D01*
X203934Y377015D01*
X205933D01*
X206933Y376015D01*
Y375015D01*
X205933Y374016D01*
X203934D01*
X202934Y375015D01*
X209932Y379014D02*
Y378014D01*
X208932D01*
X210932D01*
X209932D01*
Y375015D01*
X210932Y374016D01*
X216930D02*
X214931D01*
X213931Y375015D01*
Y377015D01*
X214931Y378014D01*
X216930D01*
X217930Y377015D01*
Y376015D01*
X213931D01*
X219929Y374016D02*
Y378014D01*
X222928D01*
X223928Y377015D01*
Y374016D01*
X229926Y378014D02*
X226927D01*
X225927Y377015D01*
Y375015D01*
X226927Y374016D01*
X229926D01*
X231925D02*
X233924D01*
X232925D01*
Y378014D01*
X231925D01*
X236923Y374016D02*
X238923D01*
X237923D01*
Y380014D01*
X236923D01*
X251919D02*
X247920D01*
Y377015D01*
X249919D01*
X247920D01*
Y374016D01*
X253918D02*
X255917D01*
X254918D01*
Y378014D01*
X253918D01*
X258916Y374016D02*
X260916D01*
X259916D01*
Y380014D01*
X258916D01*
X266914Y374016D02*
X264914D01*
X263915Y375015D01*
Y377015D01*
X264914Y378014D01*
X266914D01*
X267913Y377015D01*
Y376015D01*
X263915D01*
X269913Y374016D02*
X271912Y376015D01*
Y378014D01*
X269913Y380014D01*
X0Y359329D02*
X3999Y355330D01*
X0D02*
X3999Y359329D01*
X0Y357330D02*
X3999D01*
X1999Y355330D02*
Y359329D01*
X5998Y354331D02*
Y355330D01*
X6998D01*
Y354331D01*
X5998D01*
X10996Y360329D02*
Y354331D01*
X13995D01*
X14995Y355330D01*
Y359329D01*
X13995Y360329D01*
X10996D01*
X16995Y354331D02*
Y360329D01*
X19994D01*
X20993Y359329D01*
Y357330D01*
X19994Y356330D01*
X16995D01*
X18994D02*
X20993Y354331D01*
X22993Y360329D02*
Y354331D01*
X26991D01*
X34989Y357330D02*
X38987D01*
X46985Y360329D02*
Y354331D01*
X49984D01*
X50984Y355330D01*
Y359329D01*
X49984Y360329D01*
X46985D01*
X52983Y358329D02*
Y354331D01*
Y356330D01*
X53983Y357330D01*
X54982Y358329D01*
X55982D01*
X58981Y354331D02*
X60980D01*
X59981D01*
Y358329D01*
X58981D01*
X63979Y354331D02*
X65979D01*
X64979D01*
Y360329D01*
X63979D01*
X68978Y354331D02*
X70977D01*
X69977D01*
Y360329D01*
X68978D01*
X79974D02*
Y354331D01*
X83973D01*
X86972Y358329D02*
X88971D01*
X89971Y357330D01*
Y354331D01*
X86972D01*
X85972Y355330D01*
X86972Y356330D01*
X89971D01*
X91970Y358329D02*
Y355330D01*
X92970Y354331D01*
X95969D01*
Y353331D01*
X94969Y352331D01*
X93970D01*
X95969Y354331D02*
Y358329D01*
X100967Y354331D02*
X98968D01*
X97968Y355330D01*
Y357330D01*
X98968Y358329D01*
X100967D01*
X101967Y357330D01*
Y356330D01*
X97968D01*
X103966Y358329D02*
Y354331D01*
Y356330D01*
X104966Y357330D01*
X105966Y358329D01*
X106965D01*
M02*
